/* XPM */
static char *_630661962508[] = {
/* columns rows colors chars-per-pixel */
"64 64 255 2 ",
"   c #000D21",
".  c #01142B",
"X  c #041729",
"o  c #011633",
"O  c #021C33",
"+  c #011C3B",
"@  c #162129",
"#  c #032335",
"$  c #02243C",
"%  c #08293B",
"&  c #172738",
"*  c #4D381D",
"=  c #6B5522",
"-  c #011D43",
";  c #031F46",
":  c #012344",
">  c #022B43",
",  c #0B2A43",
"<  c #01244B",
"1  c #022B4B",
"2  c #132C4E",
"3  c #09364A",
"4  c #163848",
"5  c #032A57",
"6  c #023354",
"7  c #01345B",
"8  c #063A58",
"9  c #193656",
"0  c #283C50",
"q  c #022C66",
"w  c #023363",
"e  c #033B64",
"r  c #03356C",
"t  c #023C6B",
"y  c #0C3868",
"u  c #123669",
"i  c #023B72",
"p  c #043978",
"a  c #13414E",
"s  c #0B425A",
"d  c #154757",
"f  c #1A525C",
"g  c #284656",
"h  c #324D5A",
"j  c #0A4668",
"k  c #154B66",
"l  c #0C526E",
"z  c #17576A",
"x  c #064877",
"c  c #134877",
"v  c #095577",
"b  c #155A76",
"n  c #275667",
"m  c #385768",
"M  c #2D4F70",
"N  c #156171",
"B  c #19657B",
"V  c #2B6973",
"C  c #276A7B",
"Z  c #3A6676",
"A  c #4F5650",
"S  c #5E605B",
"D  c #6F6C51",
"F  c #445B70",
"G  c #496777",
"H  c #556A79",
"J  c #4F7075",
"K  c #6B736E",
"L  c #8F6813",
"P  c #AF7911",
"I  c #906D31",
"U  c #A97E25",
"Y  c #8D7E5A",
"T  c #738876",
"R  c #BD8111",
"E  c #B58B34",
"W  c #CB9730",
"Q  c #D79E30",
"!  c #B4944C",
"~  c #B4AA5B",
"^  c #8E8974",
"/  c #AD986A",
"(  c #B3AB72",
")  c #C79D43",
"_  c #CBA74B",
"`  c #D3A645",
"'  c #D6A946",
"]  c #DAAA45",
"[  c #D2A649",
"{  c #D5A94C",
"}  c #DAAC4C",
"|  c #CBAB57",
" . c #D5AC54",
".. c #DCAE52",
"X. c #DDB154",
"o. c #DEB25B",
"O. c #E4B04B",
"+. c #E4B355",
"@. c #E2B55A",
"#. c #E5B95D",
"$. c #EABA5D",
"%. c #C7B26D",
"&. c #DCB565",
"*. c #DBBA79",
"=. c #EBBD63",
"-. c #E4B968",
";. c #F1BE63",
":. c #E3BD75",
">. c #EAC15D",
",. c #DBC471",
"<. c #EEC066",
"1. c #E4C369",
"2. c #EEC169",
"3. c #F4C165",
"4. c #FAC264",
"5. c #F2C36C",
"6. c #FAC66B",
"7. c #EAC275",
"8. c #F3C572",
"9. c #F9C975",
"0. c #F5C979",
"q. c #F9CB7C",
"w. c #033D84",
"e. c #054989",
"r. c #075487",
"t. c #15558C",
"y. c #044A98",
"u. c #065699",
"i. c #295788",
"p. c #345B87",
"a. c #0E6486",
"s. c #186888",
"d. c #1C748A",
"f. c #08659A",
"g. c #176897",
"h. c #1A7797",
"j. c #396587",
"k. c #277687",
"l. c #316992",
"z. c #257A94",
"x. c #397997",
"c. c #0254A3",
"v. c #0854A6",
"b. c #0356A8",
"n. c #015BAB",
"m. c #035AB6",
"M. c #0464AA",
"N. c #1268A8",
"B. c #0677A6",
"V. c #1878A7",
"C. c #0466B4",
"Z. c #1269B8",
"A. c #0576B6",
"S. c #1578B7",
"D. c #2871AE",
"F. c #476884",
"G. c #497789",
"H. c #597889",
"J. c #4E7391",
"K. c #69798C",
"L. c #497DA3",
"P. c #687FA4",
"I. c #0E78C4",
"U. c #1E879A",
"Y. c #268697",
"T. c #2B8E9A",
"R. c #348799",
"E. c #1B84A9",
"W. c #158FB5",
"Q. c #1A88B7",
"!. c #268AA7",
"~. c #2795A8",
"^. c #3592AC",
"/. c #248AB5",
"(. c #2797B6",
"). c #2AA3B9",
"_. c #36A9BB",
"`. c #38ADBA",
"'. c #4E8896",
"]. c #698596",
"[. c #788B9A",
"{. c #6F9096",
"}. c #4F92AB",
"|. c #6A88A7",
" X c #7896A5",
".X c #7094AD",
"XX c #4AA7BA",
"oX c #72A5B5",
"OX c #1786C6",
"+X c #138CD1",
"@X c #1F9FD9",
"#X c #2699C6",
"$X c #2B9CD4",
"%X c #2AA7C8",
"&X c #30B1CD",
"*X c #38B5CA",
"=X c #2BA7D6",
"-X c #36BBD7",
";X c #35B0E7",
":X c #4AB7CE",
">X c #65A5CB",
",X c #73B0C8",
"<X c #39C4D9",
"1X c #35CBEB",
"2X c #4BC8DA",
"3X c #4CCFE7",
"4X c #55E2F2",
"5X c #8A938E",
"6X c #999F8C",
"7X c #ADA88C",
"8X c #8A9CAE",
"9X c #87A4AD",
"0X c #87A8B6",
"qX c #92A7B2",
"wX c #97A9B8",
"eX c #98B4BD",
"rX c #A6B1B2",
"tX c #D0B786",
"yX c #C8BEA0",
"uX c #DAC48E",
"iX c #EACA8B",
"pX c #F5CD83",
"aX c #FACE82",
"sX c #FBD185",
"dX c #F4D08C",
"fX c #FBD38B",
"gX c #F8D494",
"hX c #D0C7AE",
"jX c #E8D5AD",
"kX c #F3DBAC",
"lX c #F4DEB3",
"zX c #F5E1BA",
"xX c #8FB0C5",
"cX c #99B7C4",
"vX c #A5B9C4",
"bX c #AFBECD",
"nX c #90BFE1",
"mX c #9DCDDD",
"MX c #ABC8D4",
"NX c #B3CBD2",
"BX c #B7C9D5",
"VX c #B0E9F9",
"CX c #C2CCD4",
"ZX c #C7D3DD",
"AX c #E2D8C1",
"SX c #F0E3C7",
"DX c #C8DBE6",
"FX c #CFDBE6",
"GX c #CFE6EE",
"HX c #D6E4EB",
"JX c #D7EAF4",
"KX c #E3E9EF",
"LX c #E6EEF4",
"PX c #E9F4F9",
"IX c #F3F8FC",
/* pixels */
"%X=X/./.#Xs.v E.Q.S.R.k.V C V `.1X1X<X~.~.).).~.T.T.~.).).XX2X3X<X1X-X3X;X;X;X;X;X;X;X;X;XI.$XD.i.i.i.D.D.D.t.F.cXP.P.J.D.D.D.Z.",
"=X#X(.*Xh.B W.(.(.k.B b z R.<X1X1X~.U.).&X~.U.U.).`.<X<X1X<X*X~.Y.!.E.!.#X$X@X@X@X@X@X@X;XI.I.I.Z.v.w.w.v.t.v.v.p 8X0X|.K.t.D.D.",
"&X(.*XT.d.W.E.W.k.b l n Y.1X4X1XU.~.&X).U.~.).<X4X2X).d.N d d N b B k.k.z.V.V.S.I.I.I.+XI.I.I.I.D.Z.D.v.t.c t.y.v.p F.cXP.P.u p.",
"XX2X^.R.~.).#XR.s.j n R.1X1X).U.~.).U.T.~.).<X&Xk.N f f f V {.cXFXLXJXHXGXHXDXBXcX,XL.V.Z.I.I.I.I.Z.Z.Z.Z.v.u w.t.v.y.u 8X8XwXJ.",
":X_.T.~.`.<XR.C N l U.<X1X).B ~.T.T.U.`.<X1X~.z f V T '.eXeXeX{.|.{.|.}.|.|.oXMXFXIXIXPXDXoXp.r.Z.Z.Z.Z.Z.m.Z.t.J.y.v.v.w.P.8XxX",
":XR.XX`.2XXXk.n f U.=X1X).U.).~.U.U.`.<X`.V d f T 9XoX{.T T.W.W.%X#X(./.!./././.E.D.}.xXFXIXPXNXP.u u.Z.I.Z.m.Z.v.i.i.w.y.q P.>X",
"^.^.2XXX:X'.C N d.<X1X(.U.`.~.U.T.`.`.V f Z m cXmXoX:X).@XW.W.d.s.B b b b b k l a.V.OXQ.N.l.wXKXIXHX[.u y.m.m.v.m.v.w.u w.y.w.D.",
"'.^.XX2XqXC N z.&X<X).U.).~.d.k.~.~.f a J  XBXoXT.).).Y.B B N N z l j k k j k c x j j y v N.c.t..XHXIXFXF.u m.m.m.v.m.y.w.q y.w.",
"T.}.-XcXC V z.(.&X(.T.&X(.B d.E.U.d a g vXcX'.E.V.d.d.s.z d d a s s k j j s 8 3 , , > 8 8 6 w e.y.t.0XPXIXwXu y.m.m.v.m.y.w.u y.",
"^.%X:X|.z d.h.~./.!.-X&Xb B U.B a 3 V HXeXT.!.s.s.b a a a 8 j l j s 8 8 e 8 8 8 7 6 1 $ # > 7 6 6 e.e.i.BXIXDXM w.m.m.v.m.y.u w.",
"/.#XmXz b d.W.W.U.%X=XN z s.l 3 4 G BXoXE.h.N z d a 3 3 8 s 8 s 8 3 3 8 6 8 7 j t j j 6 1 < + $ 6 6 r y.e.8XIXKXJ.w.m.D.P.K.K.w.",
"(.>X'.B b d.W.d.W.#Xa.s N z 3 f V 9Xx.E.a.v k n 3 3 3 s 3 , , g H J H.G G 4 % % $ < 7 i i 7 1 1 + < 5 q y.y.J.LXKXJ.P.7X~ / / p.",
"OXMXb b a.U.U.B.W.W.s s l 3 a f .XN W.a.k G V % > 3 3 % J eXeX Xm 4 % % 4 , O O # O O + 1 w t 1 < : + < 7 e.y.j.JXHX,.~ ~ ~ 7XZ.",
"^..Xv b N E.a.W.W.N s j s a s {.a.W.f.j n d % % % % m eXJX0XH.m 3 > > 6 6 8 7 6 < $ O o + + < w 6 < 1 + $ 6 e.e.{.,.~ | ~ ~ [.v.",
"xXb l r.d.a.f.W.W.s s s # s G.z.+XB.l a % % # # #  XJXDXG 9 9 $ $ > $ > > > 6 w t i w 1 $ + : + 5 9 h H K K T 7X0.~ %.~ ~ ( l.v.",
"cXv l x.v d.E.W.v 3 s % 3 j x.+XB.v 3 # % % # % eXJXJXMXvXDXxXG m 4 1 1 1 : $ $ : 1 7 i 7 < $ 9 ^ tXpX0.sXq.q.0._ ~ | | %.7Xv.v.",
"L.r.x G.a.^.A.A.6 3 3 h s z I.A.r.6 # # 3 m 4 BXJXJXJXJXGXcXZ 1 e j x e.u.r.r.x w 1 + : 5 q H iXpXsXsXfXgXfXaX:.! _ ~ | ,.5Xj M.",
"v r.j G.x.V.W.v > 3 3 n 8 f.A.f.j # % # cXG DXLXJXJXGXoXZ 7 7 7 7 7 7 7 e x e.u.n.e.x 1 , ^ pXaXsXgXfXgXgXaX:.) _ _ | | uXPXZ y.",
"x x C x.'.A.A.6 > > a 6 x I.M.r.> # # ].vXGXJXJXDX0Xd 3 7 7 j e w e e e e x e.e.e.r.u.u.7XfXaXsXfXfXgXgXdXpX| ) | _ | &.yXPXDXx ",
"r.j J.j.oXA.f.j H % 4 j f.A.f.j # m 4 DXJXJXJXDXh $ 1 8 e e e 7 7 7 t e e t t e.e.e.t.rXfXq.aXaX5.8.0.pX:.) !  . .{  .*.K.bXIXoX",
"e.k  XG.>XA.r.j.H.% : v A.M.r.> $ |.8XJXJXJXBXM # > 7 7 7 6 6 5 7 e t t t t t t x r.rXfXq.aX;.) =._ @.| U ) [ [ [  .-.:.l.i.FXFX",
"v b  XCXD.A.x .Xm 3 6 u.I.u.e.: m DXJXJXJXGXm + $ 6 7 8 8 7 t x e.c.c.u.y.x i t i [.fXaXaX:.I * &.I ! [  . .[ ) [ { -.:.i.y.F.DX",
"x 6  XKXN.A.7 cXs , e M.M.u.i $ m JXJXJXJX9XX $ 1 7 6 8 j u.M.C.C.C.m.m.n.u.u.y.l.gXfXfXaX@.* I ! -.+.X. .{ [ [ [ o.-.tXu w.c vX",
"t 6 {.HXM.C.6 vX8 $ c oXrXCXhX7XH JXJXJXGXF # : 6 1 7 x M.C.C.C.m.m.m.m.m.b.c.N.hXfXfXsX0.-._ =.O.@.X...[ [ [ [ | &.-.tX0 w.w.p.",
"j 7  XFX}.0X[.CXu h hXzXSXzXlXkXlXSXSXSXHX9 $ > < r u.M.C.C.C.M.C.m.m.m.y.w.y.8XgXfXfXaX8.=...+.+.....} [ [ [ [  .&.&.tX0 5 w.i.",
"7 6 wXzXlXjXkXkXhXjXlXlXzXlXzXzXlXgXgXdXgXK , 1 7 u.n.C.C.C.C.m.n.n.b.m.m.y.Z jXgXgXaX8.8.=.#.+...} } [ [ [ [ [  .&.:.uX[.; w.w.",
"> [.lXkXlXlXlXlXgXgXdXiXgXlXzXlXdXjXuX:.&.~ > 6 r b.n.M.M.M.M.M.n.n.b.b.v.v.hXfXgXfX9.9.=.7.#...} } } [ [ [ [ [ o.&.&.tXrX- p y.",
"G zXlXzXzXzXlXgX:.O.] Q Q =.gX^ CXbX0 A D h 7 w i n.n.n.n.M.n.n.n.b.c.b.v.qXgXfXgXaX;.:.2.=.X.} } [ [ [ ) [ [ ..o.&.:.Y bX0 q y.",
"hXzXzXzXSXkXiX@.Q W R R R R @.Y 8XK.& . o ; x e.r b.c.b.b.n.n.n.c.v.v.y.P.gXgXdXaX;.;.;.;.-.} } ..[ [ [ [ [ } ..o.-.tXS [.K.; w.",
"AXSXzXzXkXuX( ..Q R P P P Q =.9.jX0 0 o o < e.c.r c.c.c.c.b.b.b.b.v.y.D.jXdXfXfXaX;.:.9.;.+.....[ [ [ [ [ [ ..o.-.-.:.& F 8X; w.",
"AXSXlXkXtXg.7X+.Q R P P W +.9.9.9.:.^ 2 + q u.c.p y.c.c.c.c.c.c.c.c.l.hXgXfXdX;.;.;.:.;.;.o.+...] ` ] [ [ } o.o.o.tX^ ; & ZXo u ",
"K.jXjX7XcXy.7X-...W R Q O.4.q.q.9.9.9.%.S y y.c.y.y.y.y.y.c.c.y.v.L.jXfXfXgXq.:.:.;.;.;.@.-.+...[ [ ] [ [ } o.+.o.pXh ; o bX0 2 ",
"5 M M |.vXw.7X:.&...Q ..;.aXfXfX9.8.5.5.3.*.5XJ.v.w.y.w.y.v.l..XhXgXfXfXfXpX5.5.2.2.2.$.#.#.#...' ' ' ` { ..+.&.:.( ; + o rXK.; ",
"5 5 5 M P.p.7XtX:.*.-.;.aXfXfXaXsXq.6.3.3.3.3.3.:.tXtXtXtXtXgXgXfXsXaXfXgX5.8.5.2.<.1.#.#.@.X.} } ' ' ' } ..o.-.uXA ; - . vX8X; ",
"r 5 q 2 l.P.K.iX*.-.:.9.aXaXsXsXq.q.9.6.4.4.4.4.6.6.6.9.8.aXq.q.q.q.aXpX8.8.8.2.2.<.o.>.#.X.X.} } ' ' } ..X.-.:./ o ; ; . wXZX2 ",
"p.< q ; J..Xi.iX:.:.:.;.q.q.aXaXq.9.6.6.6.4.4.4.4.;.;.6.6.;.9.9.9.q.q.8.8.2.8.2.<.>.#.>.o...} } } ] ' } ..X.-.tX0 X ; ; . 8XZX2 ",
"F.5 5 q 9 i.P.6X:.:.:.;.;.aXaXaX9.6.6.6.6.4.4.4.;.4.4.4.4.6.9.9.0.8.5.5.2.2.2.<.#.#.o.o...} ] ' ' ] ] ....o.:.Y   o ; ; . K.bX9 ",
"M u ; 5 ; ; wXp.*.:.:.9.:.;.;.;.6.6.9.6.4.4.4.4.4.4.4.4.6.6.9.6.3.2.8.5.2.2.<.=.>.>.o.X.} } } ' ' ] ] } o.&.7X, .   ; ; o K.CX0 ",
"2 J.; q ; ; M P.K.:.:.9.:.:.aX;.3.4.6.6.6.4.;.4.;.4.4.4.4.4.;.;.<.5.2.2.2.2.<.=.o.X.X.} } } ] ] ] ] } ..o.*.h o   . ; - . [.bXu ",
"q H.5 - 5 5 ; 8Xi.6X9.:.pXaX;.:.5.;.;.3.;.4.4.4.6.4.;.4.$.;.=.;.<.2.<.<.<.2.-.#.>.#.X.X.} ] ] ] ] } } X.&.%.2 o     ; ; . vXwX0 ",
"q 2 F.- ; q ; 2 wXu 7X:.;.pX:.;.5.3.;.;.;.;.;.;.;.;.;.;.$.$.;.=.<.<.2.2.2.2.<.$.$.#.+.X.} ] ] ] } }  . .[ | 2 o   . ; o o ZX8X2 ",
"r q F u - 5 q q [.F.w.7X:.;.-.;.5.<.2.3.;.;.=.;.=.3.=.=.;.;.=.=.=.5.5.5.<.5.<.$.<.<.<.@.O.] } ] ` [ [ ) ) | ; o   . ; . , CX[.2 ",
"u q 5 F.; ; q q F 8Xu w.^ :.;.;.<.=.<.<.2.3.3.=.2.=.=.=.#.$.#.$.=.=.8.8.5.5.5.5.<.<.<.#.O.] ' ' ) ) ) ) ) / ; o   . - . 0 bXH 2 ",
"9 u q 9 i.; q q q K.P.q u ^ &.;.=.$.=.#.=.=.=.=.=.=.=.#.#.$.$.+.+.$.0.8.5.5.5.5.5.<.<.$.O.` ` E U W U ) ) ! - .   . - . H wX0 q ",
"u M q q M 2 ; q p q K.wXu ; A / ;.=.=.=.=.=.=.#.=.=.=.=.>.+.+.O.O.;.q.8.5.8.8.5.5.3.<.#.} W E P U W E ! E Y o .   o o . 5X8X@ u ",
"w.u u w.q M q q q p q [.ZXwX2 5 S | =.-.=.=.=.=.=.=.=.=.$.>.O.+.@.9.9.9.5.6.5.5.5.5.<.X.E P P P U U U U ! 0 - X   o .   8X[.; w.",
"w.w.M 2 w.q M ; q p p p H FXKX|.y 9 ! X.$.#.=.=.=.=.=.=.<.7.7.7.8.aXq.q.9.5.5.5.5.3.#.K L P L P P U U Y A ; o @   o   2 CXK.; w.",
"w.w.w.2 q w.q i.y q p p p 9 [.LXLXwXm S ! ` ..+.$.+.@.7.iX7.7.7.fXaXfXaXq.9.8.5.3.<.^ 3 / = = L L D M u < 5 o @ o o   K.ZX9 u t.",
"y.y.w.w.< r w.w.c u r p p p 7 H rXFXHXCXqXK S D E Q ` { | | #.0.fXaXsXaXq.q.9.8.=.%.k 8X6X& & K 2 u y w 5 < 0 X O o X bXqX+ x t.",
"w.v.v.y.r w r e.y.i.t.r i e.e.x j m H.H [.[.8X[.[.K * 0 * E &.fXsXsXsXq.q.q.q.8.&.l.].CX& X F F q p y 7 7 O K o O . g ZXF 2 e.x ",
"7 e.v.v.c.i w r y.u.i.|.x w x e.u.u.v 8 + O & 4 m , % % A ,.0.q.q.sXsXaXaXq.8.%.l.'.ZXg O X g 3 x x j w 6 h g % # X 8XBX, j e.p.",
"cX2 y.m.M.n.x 7 e e.c.r.j.v e 6 t r.r.u.f.r.x s s d T %.>.1.1.0.q.aXaXq.q.8.7Xg.J.DXg # O & , v l j y j 4 5X# % O 0 HXJ 8 r.r.wX",
"IXqX2 e.C.C.M.r.e e x u.c.r.x j j 8 8 j v r.f.N.f.5X>.,.,.>.,.0.q.aXaX7.%.6Xz.|.DXg % # , , b r.c l c 3 [.0 % % # 9XeX2 c g.p.DX",
"LXIXxX2 t.A.A.C.u.x y x r.N.S.f.8 8 j j s y d d d T iX,.,.,.,.,.1.%.9X}.Q.g.oXNXd # % % 4 v g.b v b z F ].% % # 0 FXh s s.s.0XDX",
"8XLXIXvXn M I.OXS.N.r.l c b g.S.OXS.s.c s j l b b b Z J K D D T {.^.(.V.x.MX9Xs % 3 8 4 l h.B s.g.s.g eX% 3 , % 8X[.3 b g.k.HXDX",
"e. XLXIXZXZ F.N.+XOXS.A.t.l c t.h.D.+X@X#XV.V.V.Q.E.Q./.W.#X@XW.E.h.x.eXBXZ s a f d 4 z h.s.s.h.z.d rXh d a % F rXg k h.d.0XLX,X",
"x t.|.JXIXJX].F.x.OX@XQ.S.V.t.b l c s.h.D.#X%X=X=X=X=X#X/.E.h.B G.eX9XG.z k B Y.f f N U.B U.E.h.k eXJ a z 3 % vX{.d s.!.}.PXGXx.",
"j r.N.'.DXPXPXMXx.G D.$X=X/.h.g.s.s.s.s.s.d.h.h.h.d.g.z.k.C V G.j.z b z d.Y.d.z a N B B U.E.h.f wX Xa N a 4 qXrXn s.!.!.CXKX>X!.",
"3 j u.N.D.cXPXIXLX0Xj.V x.$X;X#Xh.b b s.s.g.h.s.d.d.s.k.s.b N N B d.!.&X).C z d f N B ~.&XU.f eX9Xa N f a ].HXZ B !.(.oXPXMXR.:X",
", 3 8 t.N.OX}.BXIXIXPXxXj.Z J.^.=X;X-X#X/.h.h.z.h.h.Y.T.!.~.).).-X-X).z.N g J '.G.T.`.<XY.J MXcXa z z 4 J HX'.z z.(.XXKXHX|.%X2X",
"0 4 4 8 t.N.Q./..XGXIXIXIXMX'.V f k z.(.&X<X<X<X<X<X-X<X<X*X`.~.U.C f J qXqX{.k.).*X).B T VXoXa N z a m HX{.B k.~.).NXLXoX^.4X2X",
"2 H h h 3 y r.N.OXQ..XMXPXIXIXPXMXoX'.n N V Y.k.Y.k.Y.C k.V N V J 9XNXNX XV T.<X<XU.z  XVXT a B z a f DX0Xz k.^.*XcXPXMX}.2X3XXX",
"cX0 G K.H M 3 l f.V.OXD.x.|.vXFXPXIXIXPXDXNXvXeXeXeXvXNXNXNXGXJXNXoX'.T.).<X<X).N a  XvXf d C f a f ZX9XN B h.).oXPXDXx.:X4X:X%X",
"L.nXl.l.>X}.L.t.s.!.#X=X=X$X(.x.R.XXoXnXVXVXVXVXVXVXVX,XT.T XX}.~.`.<X4X4X1X).U.U.,XoXd.Y.T.Y.V '.mX,Xd.h.Y.(.~.mXVX}.%X3X:X>X4X"
};
