/* XPM */
static char *_16988ec43034539c08f35313c706a51NZySUOJCreBia0ur[] = {
/* columns rows colors chars-per-pixel */
"64 64 256 2 ",
"   c #3F3122",
".  c #6C5B34",
"X  c #01347C",
"o  c #023B7D",
"O  c #08387B",
"+  c #18487B",
"@  c #5C655E",
"#  c #536B74",
"$  c #9E7316",
"%  c #AE7912",
"&  c #916F2F",
"*  c #917C53",
"=  c #778176",
"-  c #BA8215",
";  c #AE852F",
":  c #B38B36",
">  c #BD923B",
",  c #C68B1A",
"<  c #CF972B",
"1  c #C89938",
"2  c #DAA238",
"3  c #E1A73A",
"4  c #9F8950",
"5  c #B49147",
"6  c #AFAA5C",
"7  c #B7AB59",
"8  c #949370",
"9  c #B2AC70",
"0  c #C39946",
"q  c #CBA74A",
"w  c #D3A645",
"e  c #D6A946",
"r  c #D9A945",
"t  c #D3A649",
"y  c #D5A94B",
"u  c #DAAC4C",
"i  c #DEB04F",
"p  c #C8A855",
"a  c #D4AC54",
"s  c #DCAF52",
"d  c #C8B25D",
"f  c #DEB155",
"g  c #DEB25B",
"h  c #D5B85B",
"j  c #E2B354",
"k  c #E8B250",
"l  c #E2B55B",
"z  c #E9B658",
"x  c #E6B95D",
"c  c #EBBA5D",
"v  c #C8B56B",
"b  c #DDB463",
"n  c #DAB969",
"m  c #D7B977",
"M  c #EBBD63",
"N  c #E4BA68",
"B  c #F1BE64",
"V  c #F0BF68",
"C  c #E2BD75",
"Z  c #DAC058",
"A  c #DAC470",
"S  c #E4C464",
"D  c #EEC066",
"F  c #EEC16A",
"G  c #F4C166",
"H  c #FAC263",
"J  c #F2C36C",
"K  c #FAC66B",
"L  c #ECC274",
"P  c #E8C57A",
"I  c #F3C572",
"U  c #F5C875",
"Y  c #F9C974",
"T  c #F4CA7B",
"R  c #F9CB7B",
"E  c #013584",
"W  c #023C84",
"Q  c #013689",
"!  c #013C8B",
"~  c #023E92",
"^  c #043F98",
"/  c #054483",
"(  c #03428C",
")  c #08498A",
"_  c #13508C",
"`  c #034493",
"'  c #034A95",
"]  c #094A96",
"[  c #03439A",
"{  c #024B9C",
"}  c #0A5896",
"|  c #01539C",
" . c #31578B",
".. c #0D639A",
"X. c #11679C",
"o. c #2D6395",
"O. c #024BA4",
"+. c #034AA6",
"@. c #0254A4",
"#. c #035CA5",
"$. c #0154AC",
"%. c #025BAA",
"&. c #0A59A8",
"*. c #155EA9",
"=. c #0556B3",
"-. c #015BB4",
";. c #045CBC",
":. c #0A5FBB",
">. c #2156A0",
",. c #0363AC",
"<. c #0868A8",
"1. c #156DA3",
"2. c #0D73AC",
"3. c #1572A4",
"4. c #197AAA",
"5. c #0263B3",
"6. c #0469B5",
"7. c #0A6BB5",
"8. c #0264BB",
"9. c #0C64BC",
"0. c #026BBC",
"q. c #0B6ABA",
"w. c #1568BC",
"e. c #126CBC",
"r. c #0173BC",
"t. c #0B75B9",
"y. c #1875BA",
"u. c #2F71AC",
"i. c #2275BE",
"p. c #4A6D92",
"a. c #4878AB",
"s. c #075CC1",
"d. c #0165C1",
"f. c #026CC2",
"g. c #0B6BC2",
"h. c #1A6CC2",
"j. c #0273C4",
"k. c #027BC4",
"l. c #0B7AC7",
"z. c #027CC9",
"x. c #147AC5",
"c. c #247AC3",
"v. c #1682B3",
"b. c #1886BA",
"n. c #2388B7",
"m. c #2C8FB8",
"M. c #52869C",
"N. c #718A99",
"B. c #528CB4",
"V. c #7696A8",
"C. c #0282C5",
"Z. c #0383CA",
"A. c #058BCA",
"S. c #0A88C9",
"D. c #1384CD",
"F. c #1688C9",
"G. c #0A93CA",
"H. c #1897C9",
"J. c #0E82D2",
"K. c #138AD3",
"L. c #1689D7",
"P. c #0C97D3",
"I. c #1697D7",
"U. c #1B94DB",
"Y. c #1D9ADD",
"T. c #2F8EC9",
"R. c #2699C8",
"E. c #229BD9",
"W. c #1AA2CC",
"Q. c #19A5D9",
"!. c #26A4CD",
"~. c #33A3CD",
"^. c #26A7D6",
"/. c #23ABDC",
"(. c #2BACDC",
"). c #36ABD5",
"_. c #2BB2DB",
"`. c #37B6DC",
"'. c #1D99E3",
"]. c #269DE2",
"[. c #1CA9E3",
"{. c #1FB1E4",
"}. c #23A3E4",
"|. c #26AAE8",
" X c #2BABEB",
".X c #30ABEC",
"XX c #2DBBE4",
"oX c #25B5E8",
"OX c #2CB4ED",
"+X c #2BBBEC",
"@X c #32BCE4",
"#X c #35B9E9",
"$X c #2BB9F2",
"%X c #36B6F3",
"&X c #33BCF4",
"*X c #48A7D3",
"=X c #44BDE2",
"-X c #3CC4DF",
";X c #2DC2EB",
":X c #2EC7E9",
">X c #37C4E8",
",X c #34CCED",
"<X c #3BCBEC",
"1X c #2AD1ED",
"2X c #3BD2EC",
"3X c #38D7EE",
"4X c #2DC3F3",
"5X c #2ECBF3",
"6X c #33C4F4",
"7X c #34CCF4",
"8X c #39C9F7",
"9X c #2ED5F5",
"0X c #35D4F4",
"qX c #3CD4F5",
"wX c #34DAF4",
"eX c #3CDCF4",
"rX c #3AD6FA",
"tX c #3BE2F6",
"yX c #45CAEA",
"uX c #46D6ED",
"iX c #55D6EE",
"pX c #4CCBF1",
"aX c #46D9F6",
"sX c #43DCF4",
"dX c #55D8F2",
"fX c #66DCF1",
"gX c #49E5F7",
"hX c #56E8F8",
"jX c #51F2FD",
"kX c #64EDFA",
"lX c #9F9E8B",
"zX c #8B9C91",
"xX c #ADAB8E",
"cX c #91AAB2",
"vX c #AEB6AD",
"bX c #C8B98E",
"nX c #D9BB83",
"mX c #DBC48C",
"MX c #E8C583",
"NX c #F4CD86",
"BX c #FACE82",
"VX c #FBD085",
"CX c #F7D18B",
"ZX c #FBD28B",
"AX c #FBD492",
"SX c #F5D499",
"DX c #D3CAAD",
"FX c #F5D9A7",
"GX c #F2DBAC",
"HX c #EBDAB2",
"JX c #F5DEB3",
"KX c #F5E2BA",
"LX c #A2BAC2",
"PX c #B2C4C2",
"IX c #E1DAC6",
"UX c #F3E4C2",
/* pixels */
").(.|.(././.^.E.Q.}.@XyXuXuX,X1XwX9XtXtXwX9X0X5X7X0XrX0XsXgXkXhX<XpXpXaX%X%X%X#X%X%X%X.X.X].].c.c.c.c.c.i.i.i.i.i.w.i.w.h.i.h.h.",
"_.(.).-XXXQ./.Q._.^.oX/.:X0X1XtXwX9X9X9XwXtXtXeXeXeXgXrXrXrXaX6X7X7X+X$XOXOXOX X'.'.'.L.L.c.x.c.c.h.h.h.y.w.w.:.w.w.w.:.:.:.*.:.",
"-X_.yXuX:X_.Q.W.H.Q./.@X;X1XgXtX9X9XtXtXtXtXwXgXjXjXgXsXrX8X8X8X4X7X8X8XOX|.}.'.'.'.'.L.x.x.l.x.x.y.g.h.w.w.w.w.w.w.:.:.:.:.=.s.",
"iXhXyXqX,X_._./.{.Q.:XgXeX0XwX1X1XwXwX3XtXeXwXeXuXgXgXgXgXaXrXrX8X8X4X&X&X$X X[.'.'.L.L.'.l.l.x.h.g.h.g.w.9.7.w.:.:.w.:.:.:.:.s.",
"iXuXgXuX2XyX<X@X7X7X0X0X0X0X9X9XwXtXwXtXgXgXeXtXgXgXgXgXgXaXrXrX7X8X8X8X&X&X X X X'.'.'.'.x.x.l.e.e.e.e.9.q.9.:.:.:.:.;.:.;.;.s.",
"iXhXhXdXaXsXaX<X,X8X7X7X0XwXwXeXtXgXjXjXjXgXsX7X0XwXsXrXrXrX5X4X7X6X&X&X&X&X%X%X X'.'.'.l.'.x.h.g.e.e.g.g.w.:.:.;.;.:.;.;.:.:.s.",
"iXiXkXhXuX<X<X>X<X,X8X9XrXtXgXtXgXgXgXeXeXrXrX8X8X5X7X5X4X4X4X4X4X$XOXOXOX X X'.'.'.'.'.'.x.l.x.g.q.q.q.:.g.:.;.;.:.;.s.;.;.:.s.",
"iXiXdXpX>XyXyX<XaXqXrXrX9X0XwXtXwXeX0X0X7X8X6X4X7X4X$X5X5X5X4X$X$X$X}. X|.'.Y.'.'.'.l.'.l.l.l.g.q.q.9.d.9.;.s.;.;.;.s.;.s.s.s.s.",
"=X-XuX2X-X-X-X-X@X<X7XrX8X9X7XrX9XrX9X4X$X+XoXoXoX$X4X$X$X$X$X$X$X|.[.'.Y.U.I.D.S.K.J.S.l.z.g.f.g.g.9.d.d.s.s.=.;.;.s.s.s.s.s.s.",
"`.).-X-X_._.!._._.#XaXqX5X4X4X5X5X4X$X{.{.+XXXoXoXoXoX{.{.|.[.[.[.'.Y.L.K.D.D.D.l.l.z.l.l.l.g.f.8.0.9.d.;.;.;.;.;.s.s.s.s.s.s.s.",
"~.!.!.!.W.!.W.!./.XX;X;X5X4X$X{.{.[.[.{.{./././.{.Q.[.[.[.Q.'.I.I.I.A.J.l.S.l.l.l.l.l.l.z.l.l.j.g.8.8.8.;.;.;.;.;.s.s.B.9 8 zXw.",
"R.R.!.!.W.!.W.W.W._.Q.oX{.{.$XoX{.[.Q.[.Q.Q.I.I.I.Q.'.P.I.P.P.P.G.G.S.Z.C.l.z.j.j.j.g.j.f.f.d.f.f.f.8.d.;.;.;.;.;.;.zX9 9 4 9 a.",
"R.H.H.H.W.W.W.W.Q.Q.Q.Q.Q.Q.Q.Q.[.[.[.Q.Q.W.H.G.P.I.G.S.A.A.K.A.A.S.J.z.z.k.j.j.f.f.f.d.d.f.d.d.d.d.8.d.d.s.s.;.d.V.A 7 6 6 9 x.",
"v.b.G.H.G.W.W.W.G.W.P.Q.Q.Q.Q.P.P.P.P.P.P.P.G.G.G.G.A.A.Z.Z.A.Z.A.z.z.z.z.j.j.j.f.f.f.d.d.d.d.s.d.d.d.d.d.f.d.e.cXA 6 d 7 7 zXg.",
"F.F.S.b.G.G.G.G.G.W.G.P.P.P.P.P.P.P.P.P.A.G.G.A.A.A.A.Z.Z.Z.z.Z.z.z.z.z.z.j.f.f.f.f.f.d.d.d.d.s.d.B.V.vXbXbXmXmXP 5 7 7 7 v u.g.",
"F.S.S.Z.v.G.G.G.G.G.G.P.G.A.P.P.A.A.S.A.A.A.C.C.S.A.Z.Z.z.k.z.z.z.z.z.z.z.j.j.j.f.d.d.d.d.d.s.T.bXBXVXVXVXVXT NXp 7 d d v xX:.s.",
"S.Z.Z.A.G.A.A.G.G.G.A.A.A.A.Z.Z.Z.A.Z.Z.Z.Z.Z.Z.C.Z.C.Z.C.z.j.j.z.j.z.j.j.j.j.0.f.f.8.8.;.w.cXNXCXVXZXAXAXAXBXN 5 q q 7 A B.,.9.",
"S.z.C.Z.A.A.Z.A.C.S.A.C.A.Z.z.Z.C.Z.z.z.Z.Z.Z.Z.k.C.C.C.k.j.j.j.j.j.j.j.j.j.j.j.0.0.8.8.y.vXBXBXCXAXAXAXAXVXT 5 q p q d bXy.8.6.",
"l.z.C.C.C.C.C.C.C.C.C.C.C.C.k.z.k.z.z.z.z.Z.z.z.C.C.C.C.k.k.r.f.f.j.j.f.j.f.f.f.f.0.;.i.DXR BXCXBXBXCXCXNXP 0 0 a q a n xX;.-.q.",
"l.z.k.b.C.k.C.C.C.C.C.k.k.k.z.j.k.k.k.z.z.z.z.j.r.C.r.C.k.j.j.0.0.f.f.f.f.f.f.0.0.8.y.DXBXR BXB M I N T C 5 0 t q a h n V.=.;.8.",
"l.z.C.C.k.k.C.k.C.z.k.k.k.j.j.j.j.r.k.j.j.k.j.j.r.r.r.r.r.r.0.0.8.8.f.0.8.f.8.8.8.e.DXCXR BXl $ g 5 0 5 & s y t q a b C B.=.=.;.",
"k.r.r.r.r.k.r.r.k.r.r.k.j.f.j.r.r.j.j.f.j.r.j.r.r.r.r.k.r.r.0.8.8.-.8.8.8.8.8.6.8.cXCXCXBXI .   p 5 a g s s t 0 w a b C a.=.=.=.",
"t.r.r.r.r.r.r.r.r.r.r.j.y.T.T.i.0.f.0.8.0.r.r.0.6.6.r.r.6.r.0.6.8.-.;.-.8.5.5.,.B.SXCXZXR J & * 0 b z j s t t t q a N C a.=.=.=.",
"t.r.r.r.r.k.t.r.r.q.T.PXIXJXKXKXPXB.T.e.0.6.r.6.6.6.6.r.6.6.6.6.8.-.-.-.-.-.%.w.DXZXZXZXR c f x s z s u u t t t a b N C u.+.O.=.",
"r.0.6.m.cXIXDXvXm.B.UXUXKXJXFXKXKXJXFXHXcXy.0.6.5.6.5.6.6.6.6.5.-.-.$.-.-.-.-.cXAXZXZXT I M j l f s u u t t t t a b b nXa.+.+.=.",
"t.q.LXHXJXHXHXKXJXJXGXGXKXJXKXKXKXZXNXR V bXe.5.5.%.-.5.5.6.-.,.%.%.-.$.$.$.B.SXAXAXZXI J F M j s u u y t t t t a b b C >.+.+.+.",
"6.LXHXJXJXJXJXGXSXNXJ V B SXKXFXbXV.N.xXd 9 7.,.%.%.%.,.,.,.,.,.%.%.$.$.+.*.DXAXAXZXU J F F N u u u t t t t t y a b N bX=.+.+.+.",
"B.UXJXKXUXUXGXNXz 3 < , < 3 I N.<.%.%.&.u.<.,.,.@.%.%.%.%.,.%.%.%.%.O.O.+.vXAXZXCXT I F F V f y s t t t t t y a g N C lX+.+.+.+.",
"LXUXKXKXKXGXMXj 2 , % - % - j m u.&.@.$.@.%.%.#.@.%.@.@.%.#.#.%.#.@.@.+.V.SXCXCXT J J F V M s u u u t t t t u f g N C a.^ +.+.+.",
"IXUXUXJXFXxXV.s 2 - % % % < B Y MXzX*.&.@.@.%.#.O.O.@.@.@.#.#.@.@.@.O.a.FXAXZXNXJ F F J V l j s y t t t t t s g g C MX>.^ [ ^ +.",
"LXUXHXSXlX1.zXb r , % - < c Y Y R R nXa.&.&.@.&.O.@.O.{ @.@.@.@.@.| a.SXAXZXCXV F F F V M j j s r t w t w u j g b C lX^ ^ ^ ^ +.",
"*.vXvXM.&.| zXC g w , 2 k K VXBXR U I I bXp.*.| { { { { { | @.| u.cXSXAXVXSXBXV J J F M N l l s u r t t w s g b N C p.^ ^ ^ ^ ^ ",
"@.{ | | @.{ zXnXb b s j I BXZXZXVXK G G J G N xXN.p.o.o.o.p.N.vXFXVXVXZXAXNXV U J F D D x x f i y e e w y s g l C xX] ^ ^ ~ ~ ` ",
"{ { ' { { [ N.MXm C C V R ZXZXBXVXVXY H B H B H V U V I NXBXZXZXBXBXVXZXCXJ I J D D x x x g f f i y e e u s f N P p.` ~ ~ ~ ! ^ ",
"] { ' ' ` { o.MXC C N U Y R BXBXR R K Y H K H H B K H K Y Y Y R R R BXR I I I V D D x c x f i i u e e u s s z C xX] ~ ` ~ ~ ! ` ",
"] ' ' ' ` ` ] xXC C C I Y R R R R Y K K K K H H H B B H K K K Y Y R U V L F J F D D x h f i u e e r r u s f N nXo.^ ~ ! ~ ! ! ~ ",
"] ` ' ( ( ` ` p.C C C V U U U R Y K K K K H H H H H B H K K K Y U J J J J V F M x x x f i u u e e r r u i g C N.( ( ( ! ! ! ! ~ ",
"' ` ` ( ! ` ! ! lXV C R V I V V G K Y K K H H H H H H H H K Y B G J J J M F D M x x f f u u u u e r u r f n lX) ( ( ( ( W / W W ",
"` ( ! ! ! ! Q Q  .nXC Y U T R C J G G H H H H H H H H H H B B B D J J D F F D M S k h i u r e e u r u u g m  .o W W / ! / W W / ",
") ( ! ! Q ~ Q Q Q  .nXC I R U V J G B G B B B B K B B G B c c G J M D D F F M x x x i i i u e e u u i f g h  .O E W ( W W W W ! ",
"( ! ! E W E ! Q Q E p.C C V V V J B B B B B B B B B M B c c M M M M J J M J M c c x x j f r r 3 u r u y t t + O X X W W W W o / ",
"( Q ! E ! ! Q Q E E E  .m V V V G J D G B B B M D F B M B c c M M J I I J J D G D D D x f 3 i r t t 0 1 0 t  .O X E X o o W W W ",
"! E E E W W E Q Q E E W  .m N B M M M M D D D M D M M c c c x x c z U I J J J J J D D M k r 2 1 1 1 1 5 0 p O O X X X X X W W / ",
"] Q ! ! ! Q E Q Q E Q Q Q  .8 B M M M N M M M M D c M c c z x j k k T I J I I J J D D D Z y 1 ; : : : > 0 5 O X X X X E E o W ) ",
"( Q ! ! ! ! ! ! Q Q ! ! ! ! ~ # b H M M M M c M M M M N c z k k r V R Y I J J J J J F c u 1 - ; % ; : : > 8 X X X X o o o o W ) ",
"] ~ ` ` ^ ! ! ! ~ ~ ~ ! ! ! ` ( _ # N c M M M M M M M M c x z x M R R Y Y J J J J J c a - $ $ - % ; % : > + X X o o o o o W W / ",
"] ` ` ` ` ~ ~ ` ~ ` ` ` ` ' ) ' ` ' # 7 j z x c c B x N L T P P T BXBXR Y I J I J G x p.@ $ $ $ $ $ * @ + O o O o o o o o / ( ) ",
"] [ { [ ` [ ] ] [ [ { ' ' ' ' ' | { ' o.# 4 5 w i z i N P P L L VXVXCXZXR Y Y I J B = ) + . .   . @ W W o o o o o o / / / ) ) ] ",
"@.{ O.{ { { [ { { O.{ O.{ | | | | ..@.} } | ..+ @ 4 : 5 ; : > T VXVXVXBXBXR T U H 9 } ) ) ) ) ( ` ) / / o } o o ) o ) ) ) ) ) ..",
"@.@.#.@.@.O.@.@.@.@.&.@.@.@.| ,.| ,.,.,...,.#.,.3.1...} o.8 L BXVXBXBXBXBXR T P 9 X...} } } } } ] _ ) ) ) + } + + } + ) ) } ) } ",
"&.&.%.%.%.#.%.#.@.&.%.&.%.,.<.,.,.,.<.<.,.,.<.2.<.2.,.u.zXS F U R VXBXBXR R J 9 1.1.<.<.<.......} ....} _ ) } _ ....} + } } } ..",
"7.5.5.,.%.5.,.%.%.5.,.5.,.,.,.<.2.6.t.2.t.2.r.2.t.v.9 Z Z S F I R BXBXBXY F zX2.2.2.2.2.2.2.<.1.X.X.........X.X.........X.X...3.",
"7.7.7.6.6.7.7.6.7.7.6.q.7.6.7.t.2.t.b.x.l.b.l.b.S.V.A A A P P P T T L m zXM.v.v.2.v.b.b.b.y.v.v.2.3.1.1.X.X.X.3.3.X.3.3.3.3.3.4.",
"7.6.6.7.7.t.t.t.q.t.e.y.t.x.t.l.x.F.S.D.K.K.F.H.H.R.xXv v A n h p 9 B.F.F.b.b.b.b.F.S.b.b.F.F.n.b.b.n.4.4.3.3.3.3.3.3.3.v.3.4.4.",
"9.q.0.e.k.t.l.x.l.l.x.F.c.F.H.L.K.U.U.E.E.Y.I.Y.Q.E.E.E.~.m.m.m.m.~.R.R.H.H.H.b.H.!.H.R.H.H.H.R.R.~.T.n.v.v.4.4.n.n.b.v.v.v.n.n.",
"y.e.l.l.x.D.D.S.K.F.K.F.L.U.E.E.E.].E.]././.}./.^././.^.^.!.R.^.R.H.E.W.H.W.^._.^._._.^.!.^.^.^.).`.R.R.m.b.b.n.n.n.n.n.m.m.m.m.",
"x.x.D.J.J.K.K.J.G.U.U.'.U.E.E.].Y.}.|.OX|.|.OX+X+X+XoX|./.^./.^.!./.(.(._.XXXX#X>X@X@X_./._.XX/.#X(.!.!.W.m.R.m.m.R.R.~.*X=X~.~.",
"L.x.D.L.U.U.U.'.E.Y.]. X}. X X|.}. XOX&X&X8X6X$X+XoXXX+X+X+X#X#XoXXXXXXXXXXX_.:X:X>X>X>XXXXXoXXXXX@X@X)._.).).).`.~.).`.`.).=X*X",
"D.L.L.L.L.L.'.'.}. X.X%X%X%X%X%XOXOX$X&X$X$X$XoX4X4X4X,X4X+X4X6X6X;X6X<X<X<X2X2X<X2X2X2X,X>X>X+X#X#X@X@XyX`.).`.`.).`.-X=XyXyXiX",
"T.L.J.L.U.}.'.'. X X.X$X.X%X&X&X&X8X8X6X&X4X4X6X8X0XqXqX7X:X:X+X<X<XaX<X2XuXgXaXgXgXsX,X3XeX,X:X+XXXXX`.`.`.).`.`.-X>XiXiXfXyX*X",
"x.L.L.L.'.'.'.|. X[.}. X%X&X%X&X6X6XpX&X&XqXaXsXgXsXaXrXgXgXqX7X7XgXgXgXhXgXgXgXeX2X,XqX0X,X,X7X;X+X:X_.@X`.-X-X`.>XyXyXfXdXiXfX",
"x.x.l.L.L.L.L.L.'.}.}. X%X&X&X&X&X6X4XrXrXqXaXaXeXaXaXjXgX2XsXsXeX2XsXsXsX2X,XeXqX0X7X1X5X5X,X:X5X,X,X,X:X-X>XuXdXaXyXuXfXdXiXpX",
"c.l.L.L.L.L.'.'.U.I.E.}.|.OX+X6X6X&XaX6X6X8XqXaXsXgXeXgXjXeX2XrX0X0X3XsXqX0X9X0X5X5X5X:X0X0X3X2X2XXX@X:X@X_.`.yXyX>X<XqXdXdXpX=X",
"'.L.L.'.L.U.'.Y.].|.#X.X.XOX&XpXpX8X&X6X8X8X8X8XaXaXaXhXhXhXhXgXqX0XeXhXhXsXeXsXeX7X7X0X0X<X2XiXkX-X(.^._.^._.`.@X>X7XpXyXiXiXfX"
};
