/* XPM */
static char *_630661531976[] = {
/* columns rows colors chars-per-pixel */
"64 64 252 2 ",
"   c #020202",
".  c #0B0B0B",
"X  c #0D1112",
"o  c #151718",
"O  c #211C1D",
"+  c #041C2A",
"@  c #082536",
"#  c #242729",
"$  c #33393B",
"%  c #4D2D2E",
"&  c #082D46",
"*  c #092E48",
"=  c #07344B",
"-  c #09334B",
";  c #0B3B53",
":  c #073C58",
">  c #113D57",
",  c #103E68",
"<  c #083876",
"1  c #01347C",
"2  c #023B7D",
"3  c #493F42",
"4  c #0B425C",
"5  c #12425D",
"6  c #3C4447",
"7  c #084665",
"8  c #034A6D",
"9  c #144867",
"0  c #014D73",
"q  c #04407F",
"w  c #07557A",
"e  c #165776",
"r  c #185271",
"t  c #225D7A",
"y  c #18617C",
"u  c #2A657D",
"i  c #4C4C4F",
"p  c #585759",
"a  c #645457",
"s  c #565C64",
"d  c #655A64",
"f  c #59676D",
"g  c #6E6E73",
"h  c #82777B",
"j  c #033786",
"k  c #023D84",
"l  c #013C8B",
"z  c #023E92",
"x  c #043F98",
"c  c #084787",
"v  c #03428C",
"b  c #0C5B85",
"n  c #155A89",
"m  c #024493",
"M  c #054996",
"N  c #02449B",
"B  c #024B9C",
"V  c #0A5796",
"C  c #0E6185",
"Z  c #136385",
"A  c #116589",
"S  c #16688B",
"D  c #0E6496",
"F  c #136A97",
"G  c #197198",
"H  c #2B6F8C",
"J  c #0146A3",
"K  c #014AA5",
"L  c #084CA5",
"P  c #014DAB",
"I  c #0354A3",
"U  c #035AA7",
"Y  c #0252AE",
"T  c #025CAA",
"R  c #145FAB",
"E  c #0255B3",
"W  c #0358B7",
"Q  c #035CBC",
"!  c #0A5EBB",
"~  c #0261AE",
"^  c #0A63AE",
"/  c #1373A4",
"(  c #1978A7",
")  c #0264B2",
"_  c #0469B5",
"`  c #0263BC",
"'  c #0C64BC",
"]  c #026CBB",
"[  c #0A6AB8",
"{  c #126BBB",
"}  c #1568BB",
"|  c #0273BD",
" . c #0A76BB",
".. c #1871BD",
"X. c #2A7BA9",
"o. c #2275BB",
"O. c #547A8B",
"+. c #727A84",
"@. c #055BC1",
"#. c #0164C1",
"$. c #026BC3",
"%. c #0B6BC2",
"&. c #1A6CC2",
"*. c #0274C4",
"=. c #027CC4",
"-. c #097AC7",
";. c #1579C6",
":. c #2378C2",
">. c #827D83",
",. c #1D85B5",
"<. c #198BB2",
"1. c #2888A8",
"2. c #368AA9",
"3. c #3A92AE",
"4. c #238AB8",
"5. c #2395B4",
"6. c #2797B9",
"7. c #379BBA",
"8. c #38A1BD",
"9. c #79898F",
"0. c #4A91B0",
"q. c #5E9CB0",
"w. c #0283C5",
"e. c #0383CA",
"r. c #0A87C8",
"t. c #058BCA",
"y. c #1787CB",
"u. c #1484CD",
"i. c #0A93CA",
"p. c #1799C9",
"a. c #0D83D1",
"s. c #1689D5",
"d. c #0C98D3",
"f. c #1796D8",
"g. c #1C9ADD",
"h. c #2A8ACC",
"j. c #2799C5",
"k. c #389BC4",
"l. c #2599D9",
"z. c #1AA2CC",
"x. c #19A5D9",
"c. c #27A3CA",
"v. c #33A4CA",
"b. c #38A4C9",
"n. c #23ACDC",
"m. c #28AAD8",
"M. c #39A7D3",
"N. c #3BA9D2",
"B. c #2BB2DA",
"V. c #39B6DB",
"C. c #1C99E2",
"Z. c #2B9EE0",
"A. c #1BA9E3",
"S. c #1FB1E4",
"D. c #22A3E4",
"F. c #28AAE9",
"G. c #30ABEC",
"H. c #2CBBE4",
"J. c #28B7EA",
"K. c #35BAE7",
"L. c #2CB8F2",
"P. c #36B6F3",
"I. c #33BCF4",
"U. c #4998C4",
"Y. c #48A9C8",
"T. c #55AAC9",
"R. c #50ADCF",
"E. c #5AABCB",
"W. c #47AAD3",
"Q. c #44AED3",
"!. c #41B1D6",
"~. c #4FB4D4",
"^. c #41B1DA",
"/. c #51B4D4",
"(. c #5AB8D6",
"). c #63ADCE",
"_. c #77B6CD",
"`. c #65B8D6",
"'. c #63BDDB",
"]. c #75BAD6",
"[. c #43B9E5",
"{. c #3CC4DF",
"}. c #2DC4EB",
"|. c #39C7E9",
" X c #34CCED",
".X c #2AD1ED",
"XX c #3AD5EE",
"oX c #2DC7F3",
"OX c #33C4F5",
"+X c #33CCF4",
"@X c #39C9F7",
"#X c #2ED5F5",
"$X c #35D4F4",
"%X c #3CD5F5",
"&X c #34DAF4",
"*X c #3CDCF4",
"=X c #3AD6FA",
"-X c #3BE2F6",
";X c #4CC5DF",
":X c #64C2DD",
">X c #6CC6DE",
",X c #6CC8DF",
"<X c #76C6DD",
"1X c #45C9EA",
"2X c #47D7ED",
"3X c #55D5ED",
"4X c #4DCAF0",
"5X c #45D8F6",
"6X c #43DCF4",
"7X c #56D7F2",
"8X c #64C1E0",
"9X c #6AC5E0",
"0X c #78C9E1",
"qX c #74DAEC",
"wX c #48E5F7",
"eX c #56E8F8",
"rX c #51F2FD",
"tX c #6DE7F4",
"yX c #8B9095",
"uX c #8B9CA5",
"iX c #9AA5A7",
"pX c #95ACB3",
"aX c #A7B1B2",
"sX c #8AB7C6",
"dX c #A6BDC5",
"fX c #84C8DB",
"gX c #9DD1DB",
"hX c #ADCBD4",
"jX c #86CDE2",
"kX c #8AD4E6",
"lX c #95D2E3",
"zX c #9BD5E3",
"xX c #A4D8E5",
"cX c #ADDCE4",
"vX c #B1DFE7",
"bX c #91E2EA",
"nX c #A5E0EE",
"mX c #BFE0E4",
"MX c #B4E3EC",
"NX c #B8E5EF",
"BX c #B7E6F1",
"VX c #B9E5F1",
"CX c #B7E8F1",
"ZX c #B4EAF7",
"AX c #BBEAF5",
"SX c #BBECF9",
"DX c #C9D6D6",
"FX c #C1DEE0",
"GX c #C6E2E4",
"HX c #D7E6E5",
"JX c #C0EFF9",
"KX c #C1F1FA",
/* pixels */
"V.B.F.M.n.n.m.g.l.n.B.2X2X2X.XXX&X#X-X-X#X#X$X+X+X$X=X$X2X5XeXeX1X5X@X5XP.I.K.P.P.P.P.G.G.Z.Z.:.:.:.:.:.o.o.o.o.&.o.&.&.&.&.&.o.",
"m.n.B.|.H.S.x.n.B.x.F.B.}.$X.X&X#X#X#X&X&X-X-X*X*X-X6X=X=X%X5XK.@X@XH.L.J.G.P.G.C.C.C.s.s.;.s.;.;.&.&.&.} ..} } } ! } ' ' ! ! ! ",
"V.V.1X1XB.B.x.p.p.x.n.}.}..XwX-X#X&X-X-X-X&X*XwXrXeXwX6X=X+X@X6.m.@X@X@XL.F.D.g.C.C.C.s.s.;.;.;.;.{ &...{ [ ' } } ! } ! ! ! E ! ",
"3XeX2XXX|.}.B.n.A.n.H.wX%X&X&X.X.X&X&XXX-X*X&X*X*XwXrXwXwXwX6X( j.@XOXI.I.L.F.A.C.C.s.s.s.;.;.;.{  .{ { } ' } } ! } @.} ! ! ! ! ",
"3X2XwX6X X2X X|. X+X$X&X$X$X#X#X&X-X&X-XwXwX*X-XwXwXwXwXwX6X6XA ( @X@X@XI.I.F.F.F.D.C.C.;.s.;.;.{ { { { [ ' ' ' ! ! ! ! ! ! ! @.",
"3XeXtXwX5X5X2X|. X$XOXoX&X&X*X*X-XwXrXrXrXwX*X+X+X*XwX=X=X+XL.w A OXI.OXI.P.P.P.D.C.C.C.C.C.;.%. .&.&.%.%.' ! ! ! ! ! @.! W ! @.",
"7X7XeX7X2X|.|.|. X|.OX=X=X6X-XwXwXwXwX*X*X=X=X@X+XoX+XOXoXoXm.0 w F.L.F.G.G.F.D.C.C.C.C.s.s.;.;.%.[ ' ' ' ' ! ! W ! @.Q @.! @.@.",
"3X3X7X7X|.1X1X@X5X=X=X=X#X#X&X-X&X*X&X+X$X@XOX}.+X}.oXoXoX+X,.w w j.A.F.F.g.g.C.C.f.a.s.;.-.-.%.[ ' [ #.' ' @.Q W @.Q @.Q @.! @.",
"^.1X1XXX{.{.H.{.K.|.OX=X$X+X+X=X=X=X=XoXL.L.J.S.J.J.L.L.J.L.G w w ( A.C.g.g.f.r.y.s.a.e.-.-.$.%.$.%.' %.#.Q Q Q Q @.@.W @.@.@.@.",
"V.V.{.{.B.B.c.B.H.K.5X%XoXoXoX+XoXoXS.S.S.J.H.J.J.J.J.J.S.J.w w w b g.f.s.y.u.;.a.-.-.e.-.-.-.#.` [ ` #.@.@.Q Q Q @.@.@.@.@.@.@.",
"v.c.c.z.z.B.z.B.m.B. X}.oXoXJ.S.S.A.A.A.S.n.n.D.A.x.n.x.A.p.0 w w 0 y.a.-.e.-.-.-.-.;.-.-.-.-.$.$.` ` ` ! Q Q Q Q @.@.@.@.@.@.@.",
"j.p.c.c.z.z.z.z.x.n.n.S.S.J.L.S.A.A.A.A.x.x.g.z.x.x.x.d.f. .0 w w 0 ,.e.e.-.-.*.$.-.$.$.$.$.$.$.$.$.` #.Q Q Q Q Q Q Q @.W @.@.@.",
"j.p.f.p.z.z.z.z.x.z.x.x.A.A.x.x.A.A.A.x.x.f.d.p.d.d.r.r.t.F 0 b b 0 / e.-.=.*.*.$.$.$.$.#.$.#.#.#.$.#.#.#.Q Q Q Q Q Q Q @.W @.@.",
"y.<.y.p.i.z.z.z.z.d.x.d.d.x.A.d.d.d.d.d.d.i.i.i.i.i.i.t.t.e 0 b w 0 D e.=.*.*.*.$.$.$.#.#.#.#.#.#.` #.%.#.#.#.` Q Q Q Q W @.W W ",
",.r.<.w.i.<.i.i.i.i.d.d.i.d.d.d.d.d.d.i.i.i.t.t.i.t.e.e.r.0 0 w C 0 w -.*.*.*.$.$.$.#.$.#.#.#.#.#.#.` #.#.#.` ` Q ` Q Q Q Q W @.",
"y.u.r.r.i.<.i.i.i.i.i.i.i.d.d.t.t.t.t.r.i.r.t.w.e.t.e.e._ 0 y 0.2.e 0 -.=.*.*.*.$.$.#.#.#.#.@.#.@.Q @.Q Q Q #.` ` ` Q Q Q W W ! ",
"a.t.r.t.i.i.t.i.t.t.t.t.t.t.e.e.e.e.a.e.a.a.e.e.w.e.w.j.U.].lXlXlXlX_.U.;.*.*.] $.] ] ` #.#.#.@.Q ` Q Q @.W @.@.@.@.#.` ` Q Q W ",
"-.e.w.r.e.t.t.e.t.t.t.t.t.w.=.e.e.e.e.-.e.e.e.e.h.M.(.0X0X0X>X).).`.0X0X0X'.W.h.%.` ] ` ` ` Q Q Q Q Q Q W @.W W Q Q ` ` Q ` ` _ ",
"-.=.e.e.w.w.w.w.w.w.w.w.w.w.=.=.e.=.=.-.-.-.l.'.9X9X>X:X'.E.E.E.E.E.E.`.9X9X>X>X:Xh.` ` ` Q Q Q Q Q Q E @.W W @.Q Q E W ' ` ) ' ",
"e.=.=.w.w.=.w.=.=.w.w.=.=.=.=.*.=.=.=.=.l.'.9X9X>X`.(.R.W.W.W.R.W.W.W.Y.R.(.'.>X>X>X`.h.) Q Q W W W W W E W W W W Q Q W E W W ` ",
"-.w.w.w.=.w.=.=.=.w.=.w.=.*.*.*.*.-.y.(.0X>X'.R.Q.b.N.M.M.~././././.^.W.M.M.M.Q.R.:X>X0X`.o.W E W W E W W W E E E W W E E E E ! ",
"=.| | | | =.| | =.| *.| | $.*.*.;.).fX<X/.b.5.v.M.M.N.~.~.~././././.~.~.Q.N.M.M.v.5.8.~.<XjX).} E E E E W E E E E E Y E E E E E ",
" .| | | | | | | | | | ] ] $.] ;.fX<XY.5.5.5.v.M.M.Q.~.~.~.~./.'.(./.~.~./.~.Q.N.M.v.5.5.3.b.<XfX..E E E E E E E Y P P Y Y E E Y ",
" .| | | | | | | | ] | ] ] ] %.].fX6.5.5.5.v.M.Q.~.~.~.~.~.~./.>X9X/.~././././.~.Q.N.v.5.5.5.6.<XfXE P E Y P P Y E P P P P Y P R ",
"| | _ ] | _ ] | _ ] _ _ ` ` E.jXR.5.5.5.v.Q.~.~.~.~.~././.~.:X>X9X(././././.~.~./.~.Q.v.5.5.5.Y.jX).U Y E P P K P P P P P P J P ",
"[ _ _ _ _ _ _ _ ) _ ) ) ) 4.0X'.5.5.5.b.~./.~././././././.(.>X>X9X9X/.~./.~./././.~./.~.Y.5.5.5.(.<XU.P P P P P P P P P P P P P ",
"_ ) ) ) ) ) ) ) ~ ) ) T ..<X,XY.5.5.y u Y./././././.~././.'.,X,X9X,X:X~.~.~./.~./.~.~.Y.H w 5.5.k.>X>Xo.P K K P P P J P J P J L ",
"_ ~ ~ ~ ~ ~ ~ ~ ~ ~ T [ (.,X(.5.<.e = 8 > 2.~.~.~./.~./.(.,X,X,X0X,X>X~.~./././././.3.; 0 * 9 <.5./.>X>XR K K K J J J J J J P L ",
"^ ~ T T T ~ T T T T I 3.9X9X3.Z 4 = & 8 & @ t T.~././././.(.,X>X,X,X(.~.~.~.~./.R.H @ & 7 & @ 4 e 1.,X,XU.K J J J J J J J J J L ",
"U U V U T T U U T U } k.9Xq.; ; ; 4 = 4 7 + + > 2.~././././.>X9X>X:X~.~./././.3.5 @ + : 4 = 4 4 ; > 2.,XU.R J J N J N N x x x L ",
"U U I U U U B U U Y T.k.9Xr ; ; ; ; ; = 8 + 9 @ ; t Y./././.(.9X>X/.~.~./.Y.H - @ > @ 7 4 = 4 = - 4 5 _.k.U.B B B N N x x N x J ",
"V I B U B U V I K X.U.j.0.> 7 e e 7 4 ; 8 : @ - ; - > 2./././.:X:X/.~.~.0.> - ; ; @ = 8 ; 4 7 e e 4 4 H k.U.0.N B N N x x x x N ",
"U B B V I B B B J U.<.5.G y Z A A C 0 0 7 7 ; ; ; - - & t Y.~.(./.~.Y.t - * ; ; ; > 7 8 8 0 b A A y C C 4.4.q.M N m m z z x z m ",
"B B B B B B B B N 7.<.G 6.5.<.S A A A 0 0 8 4 4 ; ; - * & > 2././.3.> * * - ; ; ; : 0 0 0 b A A S <.5.c.( ( U.B M m M z z z z m ",
"B B M M M M M B M X.A S V.z.p.u C A A C 0 0 0 7 ; ; - * & & - e t - * * * ; ; ; 7 0 0 0 Z A A A u z.z.b.G S X.V M m m z z z z z ",
"M M M M v M M m V S A S N.8.p.9.; A A A C w 0 0 8 4 > & & & = w C - * * * ; ; 8 0 0 w Z A A A 4 f 6.v.N.G A S D m m v l l l l l ",
"V m m v v m m z M ( Z S M.M.c.9.X 0.1.H G Z w 0 0 8 : @ * ; w ( / b ; & @ 4 8 0 0 w A G X.2.0.o yXc.M.N.G C G c v v v l l l l l ",
"m m m v l v v l x H D S M.M.b.uX# 9._.).`.:XT.3.1.S C 7 7 e S <.5.A A r 9 C G 1.7.T.`.`.E._.9.O uXb.M.N.G A G q v v v v v k k v ",
"v m v l v l x j l A ( S M.M.5.q.3 O uXq.R.E.E.E.(.(.Y.(.`.T.T.<X<XT.T.:X:XY.(.(.E.T.T.R._.yXo $ q.5.v.N.G ( S c 2 v v v k k k v ",
"c v l j l l j j j r ,.G b.5.5.5.s   6 g pX_.).E.E.`.,X,X>X>X).<X].).>X,X,X>X).T.T.E._.pX9.6   p 5.5.5.b.( <.r 2 j 2 k k k k k c ",
"m l l j l k l j j 9 o.4.8.5.5.5.O.O   $ p uXgXgXfX_.(.>X>X>X,X).(.>X,X,X,X).<XfXgXhXpXi i   o g 5.5.5.7.4.4.> 1 1 1 j k k c 1 v ",
"v l j j j l j j j , G 4.<XY.5.5.O.a   . . p f DXGXcXxXgXzXnXnXnXnXnXnXzXgXcXhXFXDXf f   .   i O.5.5.Y.<Xh.G 9 j j 1 1 2 2 k 2 k ",
"l j j j l j j j j , e ,.<XlX`.5.1.a O     o # yXaXaXmXxXcXMXCXKXKXSXMXxXhXGXhXaXiXo o     o d 1.5.`.lX0X4.Z > 1 1 1 1 1 1 2 k c ",
"c l l l l j j j j c 7 h.:XjXlX<X8.2.i .       p g 9.aXpXHXpXGXGXGXGXaXGXaXiXiXf f       . i H 7.<XlXjX>X4.9 < 1 1 1 1 1 j 2 k c ",
"v l l l z l j l j j , ( (.>XlXlXjXT.f p       o # s $ g aX$ HXiXuXHX6 aXyX# f # #       p d T.lXlXlX,X>X4.> 1 1 1 < 1 2 2 2 k c ",
"m l m m l z l l z z c S (.>XjXlXlXlX].+.p   .     X   i i   DXp i DX. 6 p   o     .   i g _.lXlXgXjX>X:XG , 1 1 < 2 2 2 2 k k c ",
"M m m m m z m z z m M n (.9X,XzXzXlXgXxXaXd s o       X     yXo o 9.    o       o s p iXgXzXlXzXlX9X8X(.Z 1 2 < 2 2 q q 2 v v c ",
"B N B N m M B N N N N n /.9X,XjXzXxXcXxXMXdX>.g p $   6     #     #     6   $ 6 g >.aXMXvXcXxXzXjX9X9X(.e q 2 2 2 q q q c c v V ",
"L B B I B J B B B J K B T.:X~.fXcXcXcXcXcXNXhXyXh d g aXs . iX$ # aX. i hXd g h yXhXVXcXcXcXcXcXjX(.:XR.c c c v q q c v c v M V ",
"U I I I K I I I I I Y R k.v.Q.nXcXvXcXcXcXvXVXJXdXh g f >.p iX>.h iXa yXh d h dXGXAXvXcXcXcXcXcXcX!.b.b.n c c b c c c c M b V V ",
"R T T U U U U U U U ^ k.!.5.8.MXvXvXcXvXcXvXvXJXJXJXdXiXg a % % % % a g iXaXJXJXSXvXcXcXcXcXvXvXNX8.5.N.k.V n V D D V n V V V V ",
"^ ) ^ ) T ^ ^ ~ T ^ k.^.!.v.6.MXNXNXNXNXvXvXcXvXKXKXKXKXJXSXhXdXaXDXJXKXKXKXKXJXBXvXvXvXNXNXNXNXNX8.v.!.N.U.F D F V D D D / D G ",
"[ _ _ _ [ [ _ _ [ k.V.Q.!.V.6.xXNXNXNXVXVXVXCXAXJXVXVXVXVXVXVXVXJXNXVXVXVXVXAXSXVXVXBXNXVXVXVXVXMX5.V.!.!.!.k.( / F / / / ( ( o.",
"^ _ [ [ _  .[  .k.!.Q.V.!.2.y gXNXNXNXVXAXJXKXKXJXJXSXVXVXVXVXVXNXNXVXVXBXAXSXJXKXKXJXAXAXVXVXVXxXS 2.!.V.!.^.7.( / / ( ( ( ( ( ",
"{ [  . . . . .j.^.!.V.Y.t - = sXJXAXKXKXKXKXKXKXKXKXJXSXZXVXVXVXVXBXVXAXSXJXKXKXKXKXKXKXKXKXJXVXfX& & u Y.V.!.!.7.o.,.,.( ,.,.4.",
"..%.%.-.u.u.y.Q.Q.V.2.> * 5 ( l.G.kXCXSXKXKXKXKXKXKXKXKXSXSXZXVXZXBXSXSXKXKXKXKXKXKXKXKXSXBXjXV.N.1.5 & > 2.Q.V.Q.4.4.,.5.k.4.4.",
";.;.s.;.y.y.v.!.Q.n - 9 X.l.C.D.l.D.P.jXcXMXVXAXJXKXKXJXKXSXZXSXSXZXSXJXJXJXJXJXAXCXMXcX<XK.H.n.H.V.c.X.5 = u Q.!.b.j.v.N.^.M.M.",
"y.;.s.s.f.l.!.Q.t > o.G.F.F.G.F.A.F.P.I.4XkXcXcXcXvXMXNXJXJXSXSXSXSXJXJXVXBXvXcXcXcX0X2X}.B.H.J.H.H.V.B.M.2.4 r N.~.!.V.^.V.^.!.",
"y.s.s.s.s.^.b.r t F.G.P.P.G.P.I.G.H.L.I.L.L.I.kXcXcXcXcXcXvXMXMXMXMXcXcXcXcXcXcXkX3X2XXXXX}.|.H.J.K.K.V.1XV.b.e r b.!.;X^.1X[.3X",
";.h.u.s.Z.b.r o.F.F.G.G.P.P.I.I.I.@X@XOXL.OXOXOX3XkXcXcXcXcXcXvXcXcXcXcXcXvXbX7XwX6X5X XXX2X X}.L.H.H.|.V.B.B.V.1.r b.;X7XqX1X[.",
"s.s.s.s.7.n l.D.F.D.D.F.P.P.P.I.OXOX5XOXOX@X=X5XwX6X7XtXqXqXbXqXqXbXqXtXtXtXwXwX%XXX X=X$X+X+X X}.H.}.H.H.V.{.{.{.N.H b.3X3X3X3X",
";.;.;.k...s.s.f.C.D.D.G.G.@XI.I.P.OXI.@X=X5X5X6X6X%X6XwX6XXXwX=X*XXX6X6X5XXX.X&X*X+X+X.X}.}. X X+X X X|.|.}.|.2X2X2X1X7.R.tX7X4X",
";.;.s.s.s.C.C.C.f.f.g.A.F.L.H.OX@XOX@XOXOX@X5X5X6XwX6XwXrX*XXX%X&X$XXX6X%X$X$X$X+X.XoXoX&X&X*XXXXXB.H.}.H.V.V.|.1X|.@X1X;X3X4X1X",
"C.h.s.C.s.g.C.l.C.F.K.G.G.G.I.4X@X4XOXOX@X@X@X@X5X5X5XeXeXeXeXwX%X$X%XeXeX6X*X6X=X$X+X%X X XXX2XtX1Xm.m.m.B.B.V.V.|.|.2X4X4X3XqX"
};
