/* XPM */
static char *b73eb110576641aad64aeccc83a505d3YbWjXOK5VOGEFNBq[] = {
/* columns rows colors chars-per-pixel */
"64 64 255 2 ",
"   c #000E23",
".  c #011226",
"X  c #01132C",
"o  c #041A2C",
"O  c #0B192B",
"+  c #001533",
"@  c #011A34",
"#  c #041938",
"$  c #011C3C",
"%  c #032335",
"&  c #01233C",
"*  c #0B273A",
"=  c #042A3C",
"-  c #14263A",
";  c #0E303D",
":  c #011D43",
">  c #011E4A",
",  c #011F50",
"<  c #012244",
"1  c #022B44",
"2  c #0C2945",
"3  c #01234B",
"4  c #022B4C",
"5  c #172D45",
"6  c #04344D",
"7  c #0B3649",
"8  c #163749",
"9  c #012353",
"0  c #012B54",
"q  c #0B2A57",
"w  c #01255B",
"e  c #012C5C",
"r  c #172F56",
"t  c #023354",
"y  c #093B57",
"u  c #02345B",
"i  c #033A5C",
"p  c #173856",
"a  c #23364B",
"s  c #29374C",
"d  c #2A3D53",
"f  c #022763",
"g  c #012C63",
"h  c #012C6B",
"j  c #013364",
"k  c #023B64",
"l  c #01346C",
"z  c #0B3669",
"x  c #023B6C",
"c  c #163964",
"v  c #012D73",
"b  c #012F7C",
"n  c #013473",
"m  c #013B74",
"M  c #0B3C70",
"N  c #01347B",
"B  c #013B7B",
"V  c #103E74",
"C  c #203E64",
"Z  c #15414D",
"A  c #0A4357",
"S  c #0C425C",
"D  c #154757",
"F  c #17515A",
"G  c #294658",
"H  c #2E4C59",
"J  c #36465B",
"K  c #0B4363",
"L  c #094769",
"P  c #154969",
"I  c #0B546D",
"U  c #175665",
"Y  c #14546C",
"T  c #1A5C6C",
"R  c #034475",
"E  c #0B4C74",
"W  c #074778",
"Q  c #01427D",
"!  c #154877",
"~  c #085579",
"^  c #175676",
"/  c #155B73",
"(  c #145C7B",
")  c #284967",
"_  c #374C64",
"`  c #295766",
"'  c #395669",
"]  c #294C77",
"[  c #324D72",
"{  c #275978",
"}  c #385875",
"|  c #176171",
" . c #19647A",
".. c #2F6972",
"X. c #24697A",
"o. c #3A6677",
"O. c #45576A",
"+. c #4A5C75",
"@. c #486777",
"#. c #586374",
"$. c #556779",
"%. c #437279",
"&. c #013484",
"*. c #013B83",
"=. c #073A85",
"-. c #013D8C",
";. c #013E92",
":. c #014483",
">. c #024A84",
",. c #01448D",
"<. c #014B8C",
"1. c #0B4888",
"2. c #164C83",
"3. c #075588",
"4. c #165A86",
"5. c #014494",
"6. c #014B94",
"7. c #0B4D96",
"8. c #02459B",
"9. c #024C9C",
"0. c #065896",
"q. c #02529C",
"w. c #175996",
"e. c #265789",
"r. c #335B88",
"t. c #0E6587",
"y. c #176887",
"u. c #1B7389",
"i. c #09659A",
"p. c #156A95",
"a. c #1A7797",
"s. c #276A88",
"d. c #396789",
"f. c #376F8E",
"g. c #267788",
"h. c #257B94",
"j. c #387896",
"k. c #014CA3",
"l. c #024BA5",
"z. c #0254A4",
"x. c #0C57A4",
"c. c #025AA5",
"v. c #0253AC",
"b. c #015CAB",
"n. c #125CA6",
"m. c #0356B4",
"M. c #015BB4",
"N. c #0459B9",
"B. c #0767A6",
"V. c #0262AD",
"C. c #1569A6",
"Z. c #0777A9",
"A. c #1778A7",
"S. c #0163B3",
"D. c #0769B6",
"F. c #136AB8",
"G. c #0676B7",
"H. c #1579B7",
"J. c #2871AF",
"K. c #466A82",
"L. c #497689",
"P. c #597688",
"I. c #507290",
"U. c #667687",
"Y. c #687B91",
"T. c #4B7DA2",
"R. c #1077C4",
"E. c #1D859C",
"W. c #268798",
"Q. c #348993",
"!. c #37899A",
"~. c #1B84AA",
"^. c #158EB4",
"/. c #1A89B7",
"(. c #2589A6",
"). c #2796A8",
"_. c #3595A8",
"`. c #2488B6",
"'. c #2797B6",
"]. c #3690B1",
"[. c #29A3B9",
"{. c #37A9BC",
"}. c #3DB5BD",
"|. c #528896",
" X c #6A8796",
".X c #768898",
"XX c #6E9199",
"oX c #5889A7",
"OX c #4D94A9",
"+X c #6787A6",
"@X c #728AA6",
"#X c #6B95A6",
"$X c #7A95A5",
"%X c #7396B4",
"&X c #50A8BA",
"*X c #78A6B7",
"=X c #1786C6",
"-X c #138CCF",
";X c #1E9FD6",
":X c #2699C7",
">X c #2A9DD6",
",X c #2BA7C7",
"<X c #34AAC6",
"1X c #2DB6CF",
"2X c #38B5CA",
"3X c #2BA7D6",
"4X c #36BBD8",
"5X c #33ADE6",
"6X c #36B6E7",
"7X c #4AB6CD",
"8X c #51ACD2",
"9X c #6CAEC8",
"0X c #3FC3CF",
"qX c #38C3DB",
"wX c #39C8E6",
"eX c #32D0EF",
"rX c #4AC7D7",
"tX c #4CCEE6",
"yX c #55E2F1",
"uX c #83919E",
"iX c #869AA9",
"pX c #8E9CAE",
"aX c #8DA6AD",
"sX c #89A9B6",
"dX c #96A9B8",
"fX c #97B4BD",
"gX c #A3ADB9",
"hX c #97ADC2",
"jX c #87B2C8",
"kX c #9BB9C4",
"lX c #A6B8C6",
"zX c #B2BDCA",
"xX c #90BFE1",
"cX c #8EC3D2",
"vX c #A9C4CB",
"bX c #AFC6D2",
"nX c #B8C9D5",
"mX c #BCD4DB",
"MX c #BDD2E1",
"NX c #B1E9F9",
"BX c #C6D0DA",
"VX c #C7D4DC",
"CX c #CADBE6",
"ZX c #D3DCE5",
"AX c #CDE5EE",
"SX c #D7E5EB",
"DX c #D4E5F3",
"FX c #D5EAF5",
"GX c #DBE9F4",
"HX c #DBEBF4",
"JX c #E4E8EC",
"KX c #E5ECF3",
"LX c #EAF4F9",
"PX c #F2F6FB",
"IX c #F4F9FC",
/* pixels */
",X3X`.`.,Xt.^ /./.A.|.g.| X...}.eXeX1X).).[.[.).).W.).[.[.}.rXrX6XtX4XtX5X5X5X5X6X6X5X5X5XR.R.J.r.e.w.J.C.J.w.e.dX@X XI.J.J.J.F.",
"3X:X).2Xa. ././.'.g. .| T g.qXeXeX).E.[.1X).E.).).}.0X1XwXwX2X).(.(.~.(.:X:X3X3X>X;X;X;X5XR.R.R.R.F.V M w.w.x.x.W +XhX+XY.e.w.J.",
"<X).2X_.u./.~.^.g.4.L ` Q.eXyXeXE.).1X}.E.W.).0XyXrX}.u.T D F U Y X.s.g.a.A.H.H.R.R.R.=XR.R.R.R.F.F.R.n.2.! 7.x.n.1.] hXY.@X[ r.",
"&XrX].W.).[.,Xj.y.P U !.wXeX[.E.).[.E.W.).[.qX1Xg.| | F F o.|.fXCXHXHXAXSXSXVXnXhXjXOXJ.F.R.R.R.R.F.F.F.F.x.V V 7.x.7.M %X%XgXI.",
"2X<XW.).{.qXQ.X.U I u.qXeX). .).).W.W.[.0XrX).T F ..%.XXkXvXkXXXXXXX#XoXoX#X*XvXVXPXPXPXCXjXd.1.n.F.F.F.B.F.F.7.I.w.7.x.&.Y.hXhX",
"7X!.&X}.rX&Xg.| U a.qXeX[.E.[.).g.W.}.0X0XX.F F Q.aX*XXX%.g.).^.,X:X/.'.(.`.J.`.H./.OX9XBXIXPXmX X] 7.F.R.N.n.N.l.e.2.5.l.b r.hX",
"OXOX7X2X7X|.X.T u.qXeX).W.1X).W.W.}.}.g.F ` ` fXmXaX}.[.0X[.~.u.y. .( ^ ^ ^ Y ^ ( p.=X=XC.f.sXZXIXKXiXV 1.N.F.v.N.N.1.z B 8.&.r.",
"_._.&XrXsXX.T h.2XwX[.E.[.). .W.).).F Z ..$XbXsXQ.[.[.W. . . .~ ^ I L Y P K K I E L K K W c.B.2.Y.CXIXGXY.v v.N.m.v.N.7.2.b ;.-.",
"_.].2XcXo.| E.).,X'.(.2X'. .u.(.W.F Z F fXvX|.~.A.u.u.y.T D D D S S L K K K y 7 1 1 1 y i u u >.0.2.@XKXIXzXc =.N.N.v.N.l.! h 7.",
"].{.8X$X| u.a.).'.(.4X,X/  .a. .Z 7 ` CXkX!.~.y.y. .A 8 y A S L K S y A S y i i y 0 4 & % & t t t 1.<.2.zXIXJXr.&.N.N.v.m.8.V f ",
"`.:XcXU | u.^.^.a.,X1X .I u./ 7 Z o.mX*X~.a.( / F 8 7 7 7 S A S A y 6 6 y i i k R L K t 4 4 & & e 0 k 6.5.+XLXPXY.&.N.m.v.m.9.! ",
"/.9XoX .( u.^.u.^.:Xt.S / / 7 F ` aXf.~.y.I P ` 7 7 6 y 6 7 = G @.$.P.$.} G % ; % < u m m u 4 4 & < 0 e ,.9.d.SXIX+XN m.m.v.m.7.",
"/.vX/ (  .~.E.Z.^.^.A A I 7 Z F #X( =Xt.I ..o.= 7 6 6 % @.sXfXuX@.; * % 8 7 % @ @ o @ @ 4 j x 0 4 < & 3 0 :.l.{ ZXIX+XN m.v.l.N.",
"].#XI y.~ E.t.~.-X~ A I A Z S XXt.^.i.I H G = = = = H dXFXhXP.o.7 1 4 6 t i j t 4 < @ @ @ @ < j u < 4 & & 0 m 9.V BXPXY.N m.8.x.",
"jX^ E 4.u.p.Z.^.^.A A A % A K.h.-XZ.I Z ; = = % %  XFXAX$.8 p = = 1 1 1 & 1 4 u x m j 0 & $ < $ 0 0 < 3 < $ 0 m 6.c ZXPXd.=.m.7.",
"kXE E j.~ u.E.^.I 7 A = 7 K j.-XZ.~ 6 % % 7 % ; aXHXFXnXkXAXkX$.' 8 1 4 4 1 & & & 4 u x j 4 & < : < 4 : 4 < @ 0 m >.) KXZXP 8.v.",
"|.0.L L.t.].^.G.6 6 6 H A U ^.G.0.6 % % 2 @.8 vXFXFXFXFXAXbXo.0 u L R >.<.0.3.Q j 4 & < 0 j e < & < < 3 $ 3 $ @ 0 Q :.Y.PXlXg v.",
"E ~ L L.j.A.R.~ 1 6 7 ` i i.R.i.L & % % sX@.BXHXFXFXAXsXo.u u i u i u k k R 3.0.q.0.Q t & < u e 3 $ < 3 3 $ 3 @ < e ,.W lXPXY.:.",
"Q R X.j.oXZ.G.t = 1 G 6 L R.B.>.1 % @ P.lXCXHXFXCXhXG 1 i i k k k j k k k R >.<.>.6.c.6.m 3 $ 3 e 3 $ < e 3 : < % 2 g 6.e.LXHX] ",
"3.L I.d.*XG.i.K P.= 2 k i.G.B.L & ' 8 CXFXHXFXAX' % 6 i k k k u u i x k k k x Q 3.<.>.6.q.:.j : & 9 3 + : j : : $ - 3 m 5.pXIXkX",
"3.P $XL.8XG.~ d. X% = ~ G.V.0.4 $ @XiXFXHXFXMX} % 1 t i i t t t u j x x x x x x R :.<.<.:.6.6.l 3 @ 3 3 @ 9 e $ $ X + e :.2.nXPX",
"~ P $XmXJ.G.R #X' 7 4 0.G.i.Q & G AXDXFXHXDX' @ & t i u t t k R ,.q.c.q.<.Q R x m R R :.<.Q ,.6.n 3 $ w < * g 3 $ $ o : n 8.[ KX",
"R t $XKXB.G.i fXS 2 i B.S.q.x & _ DXFXHXDXfX% & 4 u 6 i L 0.V.S.S.M.M.S.M.q.0.q.:.<.>.Q Q :.B 6.6.n < < 9 @ $ e : $ - - 9 ,.V gX",
"x t .XSXB.D.t lXi = R V.q.:.0 < 2 DXDXFXDX$.% & 6 4 u R V.S.D.S.S.M.N.M.M.b.c.b.b.q.,.<.Q m Q m 6.9.m $ 0 3 + 3 3 $ @ _ $ h 5.[ ",
"L u $XCX0.V.t mXc & >.V.<.R < & H HXDXDXDXH < < 4 k 0.V.D.D.S.S.S.M.m.m.z.:.6.c.b.b.Q m B x m m n z.5.e $ 9 : + 3 : # Y._ 9 -.e.",
"u 0 $XVX0.V.o.AXi < >.c.<.m & < O.DXMXCXdX1 1 4 e 6.V.S.S.S.S.S.M.M.b.m.b.k.k n ,.z.b.l j x j Q m ,.q.5.< : 3 + $ > # ' Y.> N =.",
"4 4 iXmX<.V.@.lXy 4 <.c.:.l 8 $ lXDXiX$X- < 1 0 j c.b.V.V.V.M.b.b.b.v.v.v.k.-.9 0 m z.:.3 0 u j :.B 9.6.n $ 3 : + > $ * zX2 g ;.",
"1 q  XnX0.V.K..Xq t >.b.B l .X: lXzXJ # X < u k n c.c.b.c.V.V.b.b.c.l.k.l.l.l.B < < j 6.k : 0 e Q Q :.9.,.$ : : + : : + pX#.9 1.",
"1 4 $XlXw.M.] dXp u B z.B x O.G iXY.8 X @ < m >.l c.c.z.c.b.b.c.b.z.z.k.l.8.l.8.l 3 4 m 6.0 < 4 x m m 6.6.g + : # : > + $.pX: b ",
"4 3 $XhXT.x.) SX$.0 m 9.B j # ' Y.8 a + @ 3 >.z.l z.k.z.c.c.c.c.z.z.q.k.k.8.8.8.*.l 3 g 6.*.: < 0 m :.B 6.n + $ $ # > # a zX# z ",
"q t @.hX%Xz.x nXiX$ j ,.*.e $ $.a J d $ @ e 6.c.B 9.k.k.k.c.z.c.z.9.9.k.8.8.8.-.n n w 3 B 6.3 @ < l :.m 9.,.: + # $ > # + zXa w ",
"u e ) $XlXk.B .XBX@ 3 B ,.e : $.# J - + @ g 6.c.5.9.9.9.9.9.q.q.q.9.9.8.8.8.8.8.N h e : g 5.e a $ u B B <.5.9 X + # > # + pX#.> ",
"e e e @XhX6.5.Y.BXO.$ h ;.w , 5 d # . X $ < Q q.9.5.8.8.8.9.q.6.6.6.6.9.8.8.;.;.&.> , > , =.h J 2 : l B :.6.e O X $ : $ + .XuX# ",
"u e e ' +Xe.9.} iX.X$ w &.b , # $.X X . + $ 9 ,.5.-.8.5.5.6.6.6.6.6.6.6.5.5.;.-.&., , > > b v r O.# g B m 6.l X X + : : + uXnX# ",
"z 9 g 4 I.+X8.V +.$.# > g *., , X . X . X $ $ n ,.&.-.5.5.5.6.6.6.<.5.5.;.;.-.&.&., - > : v z _ $.@ e n n 6.m @ . @ : : + Y.ZXd ",
"K.9 g , K.@X=.;.q 5 s : 9 N f , : X X + X X + 9 ,.*.*.;.;.-.5.5.<.,.:.5.5.-.;.-.&.: +.: : f h O.$.$ 9 n B -.n $ . X : 3 X P.CXJ ",
"r.3 e e s ] %X-.v 2 O.X , , v w > # + + X X X : g N -.-.-.-.;.5.,.,.l ,.-.,.-.-.&.s O.J 5 f v - O.: , n *.&.l : . . : > + O.BXd ",
"} c 3 f : > dX=.&.f +   + > , f > : + X X + + X # 9 h N N &.&.-.:.n n n *.-.*.v f #.U.U.U.f &.s _ # > h *.B h $ . X : > X O.BXO.",
"z I.< w , > r.Y.&.&.,   + + > , f , > + + + + $ : > > > 9 w h n g 0 n l B *.N w r J J BXgXv b #.O.# : h &.N e # . . : :   U.BX_ ",
"q P.q : , , , pX2.&.b ,   : : , , f w > # # + + $ # : > > 9 9 3 9 g N l B *.g 3 : s O.JXZX&.f U.J # : h *.N 9 #   . : >   uXzXs ",
"f q I.# , f 9 r pXv &.&., X : : , > f f , > : $ $ $ # # : > > 9 g n B N =.N < > + + U.gXY.&.h pXJ + > f N v > +   . : : X lXlXa ",
"l w [ c : w h q iXI.v =.&.w : > > , , , f w > > < 3 > > > > 9 g n *.*.*.N w : >   O U.O.c v r.pX5 + : f b b > #   . : # . zXgX: ",
"c f , +.> , f v +.pXz b &.v f , , w w > > 9 f e 0 9 9 3 9 w f h N &.*.&.f : 2 s   5 # 5 v v Y.pXX X , f h h : #   . : X O gX.X: ",
"C c f c [ : w h v #.@Xq w b &.v h g h b h f f w e g h N &.N &.N *.*.N 0 : # K.J   # + 5 b > gXU.X X , h v w : +   . : X d gX#.q ",
"z [ l f ) c > h v w Y.hXC : g n B n &.*.-.N *.B l n N N *.*.*.N B l 3 @ $ 2 Y.O d > d =.v a ZXs   + , &.h 9 :   . . # X #.gX5 z ",
"=.c c n h [ q w v N z .XVXgXp 9 g *.*.:.-.*.B n k x :.*.*.:.-.B 9 @ @ $ @ $.d a > # } *.q pXgXO   + w v g > : O . + X . uXgX+ M ",
"=.B [ j N l ) q h N *.M +.ZXKX@Xu 0 j B ,.,.B m >.<.<.,.,.:.j & @ $ & @ a U.- < 5 ) =.n J JXs . X + v h e < # O . + O O nX.X# 1.",
"7.*.N p j N n ] z g n N m p .XKXKXdX) 0 j x R :.>.<.:.j 4 $ @ $ < @ @ a pX5 H  Xh W 1.0 zXuXO O   3 N f 9 3 O - X @ X J ZXO.e 1.",
"9.5.6.l 9 k *.*.] ! n B B B i @.kXCXZXVXdX} r t 0 4 < & % < & & - ; U.$.P $.CX{ ~ 3.L  XgX- O $.$ M z j 4 q a - X o o iXvX* M 1.",
"1.z.z.9.l j l ,.,.e.e.l x :.Q W k ' $.$..X.XiXuX XP.p = & % @ O $. X.Xp aXZX} E 0.0.P.VXa O J $.u W z u u % #.O % o - VXY.2 >.W ",
"u 6.c.c.z.m j j <.q.e.oXW k R <.0.0.1.y * % % 8 _ 7 % @ - J U.VXdXd.+.VXJXdX4.B.B.j.ZX' o o G 7 R E L u i 5 O.& % o U.CX8 x 3.r.",
"gX7 <.S.B.c.>.j j <.c.2.d.E k u K 3.3.0.i.3.E S K K ^ { aXkX*Xs.Y uXVXZX#Xp.A.B.d.VX' % o % 2 L E L z K ; uX* = % * BX.X7 ( 3.iX",
"IXdX4 1.D.D.B.<.L k W 0.x.3.W L k y y L E 3.i.i.i.p.i.p.4. .K.iXJXSX$X4.H.H.B.|.ZX' % * ; ; E 4.E E P y U.' = ; O  XnX8 E 4.( ZX",
"KXPXhX7 ( G.G.G.0.E z K 3.C.H.i.y y L L S z D D p o.dXbXBXVXbXiXP.y.A.=X/.p.#XmX` * = = 8 I p.( ( ( ^ H iX* ; % - VX@.y y.p.@XKX",
"iXLXPXlX] ^ H.R.F.Z.0.E E 2.i.H.=XH.p.L S K I 4.( ^ { s.^ y D s.`.:X:XA.g.kXfXD = 7 Z 7 Y p.t. .y.s.8 fX8 7 2 % .XaX7 Y p.y.VXGX",
"1.%XKXIXVX@.K.C.-X=XG.H.4.Y E 4.h.H.=X>X:X/.~.a.~./././.'.:X:X:XH.a.j.sXVXL.S Z D D 7 U a.y.y.a.h.P aX@.Z A ; G fX' D p.h.#XHXvX",
"E 4.+XSXLXGX Xd.j.=X;X=XH.C.y.^ E Y y.h.H.`.:X3X3X3X;X:X'.~.E. .L.fXsX|.` P | W.U A U u.u.u.~.E.U iXXXS U Z ; aXiXD s.(.!.DXGX|.",
"L 3.C.T.CXLXIXbXL.K.h.>X>X:XA.p.t.y.4.y.y.h.a.a.a.a.u.h.h.X.X.o.L.U / Y  .E.a.Y F F u.X.E.^.E.U XXfX8 U F ; .XbX..| (.].kXLXjXh.",
"q K p.B.A.kXLXIXLXjXd.} j.:X5X:Xa.^ (  .y.p.a.p.u.u. .g.y./ | |  .u.(.<X[.X.U F F X.X.).,X).U $XvXZ U T Z @.SXL.X.W.'.OXLXCX!.8X",
"2 7 u w.C.R.oXBXLXPXLXhXL.} I.].5X6X4X,X`.h.a.h.a.a.W.).(.(.).[.1X4X,Xh.X.` %.P.%.W.{.}.W.o.kXmXZ I U Z ' AX$XU s.).].AXAX*X].6X",
"d 8 8 y 4.C./.H.#XFXPXIXIXMX|.{ U F g./.1XqXqXrXtXqX0XqX0X0X[.[.Q.g.F ..aXaXXXg.).1X,Xg.%.SXfXD U / Z G CXsXT u.).[.kXLXcXQ.tXrX",
"5 $.H ) t K 3.Z.=X~.#XnXLXLXIXLXbX*X|.{ | X.g.g.u.g.W.X.....| %...XXmXmXaX..W.2XqX).T |.CX|.Z | | Z Z mXvXT X._.7X9XLXmXOXrXtX&X",
"lX) @.U.$.) y E i.A.=XH.j.+XfXZXLXIXIXLXCXvXvXfXkXkXvXvXvXmXAXHXBXaX|.Q.[.qXqX[. .F XXvX..Z X.T 7 Z vXvXT | g.[.OXHXSX|.&XyX7X{.",
"I.xXs.f.9XoXT.4.s.A.:X>X3X3X'.!.!.OX9XcXNXNXNXNXNXNXNX9XOXQ.OXOX_.[.rXyXyXeX[.).W.&X*XX.Q.).W...Q.cXcXu.h.a.'.'.cXNX&X<XtX8X8XyX"
};
