/* XPM */
static char *_467a26327c54e68d63dea4715dda36bjAlUrJKLI1YN5mGM[] = {
/* columns rows colors chars-per-pixel */
"64 64 255 2 ",
"   c #000D21",
".  c #01142B",
"X  c #041729",
"o  c #011633",
"O  c #021C33",
"+  c #011C3B",
"@  c #162129",
"#  c #032335",
"$  c #02243C",
"%  c #08293B",
"&  c #172738",
"*  c #4D381D",
"=  c #6B5522",
"-  c #011D43",
";  c #031F46",
":  c #012344",
">  c #022B43",
",  c #0B2A43",
"<  c #01244B",
"1  c #022B4B",
"2  c #132C4E",
"3  c #09364A",
"4  c #163848",
"5  c #032A57",
"6  c #023354",
"7  c #01345B",
"8  c #063A58",
"9  c #193656",
"0  c #283C50",
"q  c #022C66",
"w  c #023363",
"e  c #033B64",
"r  c #03356C",
"t  c #023C6B",
"y  c #0C3868",
"u  c #123669",
"i  c #023B72",
"p  c #043978",
"a  c #13414E",
"s  c #0B425A",
"d  c #154757",
"f  c #1A525C",
"g  c #284656",
"h  c #324D5A",
"j  c #0A4668",
"k  c #154B66",
"l  c #0C526E",
"z  c #17576A",
"x  c #064877",
"c  c #134877",
"v  c #095577",
"b  c #155A76",
"n  c #275667",
"m  c #385768",
"M  c #2D4F70",
"N  c #156171",
"B  c #19657B",
"V  c #2B6973",
"C  c #276A7B",
"Z  c #3A6676",
"A  c #4F5650",
"S  c #5E605B",
"D  c #6F6C51",
"F  c #445B70",
"G  c #496777",
"H  c #556A79",
"J  c #4F7075",
"K  c #6B736E",
"L  c #8F6813",
"P  c #AF7911",
"I  c #906D31",
"U  c #A97E25",
"Y  c #8D7E5A",
"T  c #738876",
"R  c #BD8111",
"E  c #B58B34",
"W  c #CB9730",
"Q  c #D79E30",
"!  c #B4944C",
"~  c #B4AA5B",
"^  c #8E8974",
"/  c #AD986A",
"(  c #B3AB72",
")  c #C79D43",
"_  c #CBA74B",
"`  c #D3A645",
"'  c #D6A946",
"]  c #DAAA45",
"[  c #D2A649",
"{  c #D5A94C",
"}  c #DAAC4C",
"|  c #CBAB57",
" . c #D5AC54",
".. c #DCAE52",
"X. c #DDB154",
"o. c #DEB25B",
"O. c #E4B04B",
"+. c #E4B455",
"@. c #E2B55A",
"#. c #E5B95D",
"$. c #EABA5D",
"%. c #C7B26D",
"&. c #DCB565",
"*. c #DBBA79",
"=. c #EBBD63",
"-. c #E4B968",
";. c #F1BE63",
":. c #E3BD75",
">. c #EAC15D",
",. c #DBC471",
"<. c #EEC066",
"1. c #E4C369",
"2. c #EEC169",
"3. c #F4C165",
"4. c #FAC264",
"5. c #F2C36C",
"6. c #FAC66B",
"7. c #EAC275",
"8. c #F3C572",
"9. c #F9C975",
"0. c #F5C979",
"q. c #F9CB7C",
"w. c #033D84",
"e. c #054989",
"r. c #075487",
"t. c #15558C",
"y. c #044A98",
"u. c #065699",
"i. c #295788",
"p. c #345B87",
"a. c #0E6486",
"s. c #186888",
"d. c #1C748A",
"f. c #08659A",
"g. c #176897",
"h. c #1A7797",
"j. c #396587",
"k. c #277687",
"l. c #316992",
"z. c #257A94",
"x. c #397997",
"c. c #0254A3",
"v. c #0854A6",
"b. c #0356A8",
"n. c #015BAB",
"m. c #035AB6",
"M. c #0464AA",
"N. c #1268A8",
"B. c #0677A6",
"V. c #1878A7",
"C. c #0466B4",
"Z. c #1269B8",
"A. c #0576B6",
"S. c #1578B7",
"D. c #2871AE",
"F. c #476884",
"G. c #497789",
"H. c #5A7889",
"J. c #4E7391",
"K. c #69798C",
"L. c #497DA3",
"P. c #687FA4",
"I. c #0E78C4",
"U. c #1E879A",
"Y. c #268697",
"T. c #2B8E9A",
"R. c #348799",
"E. c #1B84A9",
"W. c #158FB5",
"Q. c #1A88B7",
"!. c #268AA7",
"~. c #2795A8",
"^. c #3592AC",
"/. c #248AB5",
"(. c #2797B6",
"). c #2AA3B9",
"_. c #36A9BB",
"`. c #38ADBA",
"'. c #4E8896",
"]. c #698596",
"[. c #798B9A",
"{. c #6F9096",
"}. c #4F92AB",
"|. c #6A88A7",
" X c #7896A5",
".X c #7094AD",
"XX c #4AA7BA",
"oX c #72A5B5",
"OX c #1786C6",
"+X c #138CD1",
"@X c #1F9FD9",
"#X c #2699C6",
"$X c #2B9CD4",
"%X c #2AA7C8",
"&X c #30B1CD",
"*X c #38B5CA",
"=X c #2BA7D6",
"-X c #36BBD7",
";X c #35B0E7",
":X c #4AB7CE",
">X c #65A5CB",
",X c #73B0C8",
"<X c #39C4D9",
"1X c #35CBEB",
"2X c #4BC8DA",
"3X c #4CCFE7",
"4X c #55E2F2",
"5X c #8A938E",
"6X c #999F8C",
"7X c #ADA88C",
"8X c #8A9CAE",
"9X c #87A4AD",
"0X c #87A8B6",
"qX c #92A7B2",
"wX c #97A9B8",
"eX c #98B4BD",
"rX c #A6B1B2",
"tX c #D0B786",
"yX c #C8BEA0",
"uX c #DAC48E",
"iX c #EACA8B",
"pX c #F5CD84",
"aX c #FACE82",
"sX c #FBD185",
"dX c #F4D08C",
"fX c #FBD38B",
"gX c #F8D494",
"hX c #D0C7AE",
"jX c #E8D5AD",
"kX c #F3DBAC",
"lX c #F4DEB3",
"zX c #F5E1BA",
"xX c #8FB0C5",
"cX c #99B7C4",
"vX c #A5B9C4",
"bX c #AFBECD",
"nX c #90BFE1",
"mX c #9DCDDD",
"MX c #ABC8D4",
"NX c #B3CBD2",
"BX c #B7C9D5",
"VX c #B0E9F9",
"CX c #C2CCD4",
"ZX c #C7D3DD",
"AX c #E2D8C1",
"SX c #F0E3C7",
"DX c #C8DBE6",
"FX c #CFDBE6",
"GX c #CFE6EE",
"HX c #D6E4EB",
"JX c #D7EAF4",
"KX c #E3E9EF",
"LX c #E6EEF4",
"PX c #E9F4F9",
"IX c #F3F8FC",
/* pixels */
"Z.Z.D.D.P.P.P.xXp.i.D.D.D.g.t.i.D.D.$X;X$X;X;X;X;X;X;X;X3X;X1X<X2X2X`.).(.~.R.R.~.).).~.~.<X1X1X&XN U.N k.'.E.Q.V.l s.#X(./.=X%X",
"D.D.i.K.P.8X8Xp v.v.t.v.p c g.Z.I.I.+X$X@XI.@X@X;X$X$XI.E.E.!.!.(.*X1X1X-X<X&X).U.U.~.&X).U.~.1X1X1XT.f l N z.(.W.Q.B h.&X(.#X=X",
"p.w.K.P.xXp.w.v.v.t.t.c N.Z.Z.Z.I.I.+XI.I.I.@XI.S.V.D.D.k.C C N z d d z k.`.2X3X&X).T.T.).&XU.U.<X4X<XT.V f v U.Q.Q.W.d.^.*X~.&X",
"F.wX.X8Xu i.v.y.c u u.Z.Z.Z.Z.I.I.I.I.N.D.L.nXxXNXZXHXHXGXJXPXDXeX{.Z f f n f Y.<X<X`.T.U.~.).~.U.*X1X<XT.f l N R.%X(.~.Y.^.2XXX",
"xX8XP.u v.v.t.J.e.Z.m.Z.Z.Z.Z.N.r.p.oXDXPXIXIXFXMX0X|.|.}.{.{.|.{.eXvXeX{.T N f f T.2X<X).T.U.~.~.d.).1X<XU.f z B Y.*X).^.T.`.:X",
">XP.u v.w.i.p.v.m.v.Z.I.Z.y.c K.BXIXIXFXxX}.!.S./././././.W.#X#X~.~.Y.x.{.oXoX{.f f V *X<X`.T.Y.U.~.d.).1X<XU.N N k.oX2X*XXXR.:X",
"D.w.y.w.p w.m.m.v.Z.m.u.u [.HXIXLX0Xx.N.I.OXN.a.j c z b b b s.s.d.V.(.=X).XXoXNXeXV m f k.`.`.T.U.T.`.U.W.1X<Xd.N V '.2XXX:XR.XX",
"w.y.q w.w.m.m.m.m.m.p F.FXIXHX.Xc N.v.v e j j l l j k k l k l z b B B d.U.W.).}.0XNX XV a f U.~.U.d.~.&XU.).<X&Xz.N C 0X2XXX^.R.",
"v.q c y.m.m.m.m.w.u wXIXPX8Xt.y.e.7 7 8 7 3 > , 3 8 j s s k j d a a d z B d.s.E.E.'.cXMXf a f Y.U.d.B (.&XT.(.&X^.z.B C cX:X_.R.",
"r u y.b.b.m.m.e.i.FXIXZXp.w.e.w 5 7 > # $ 1 6 7 8 8 8 s 8 8 s j l j s 4 a a B a.s.E.!.0XHXZ 4 a B h.B N %X<XE.W.(.z.d.N .X:X#X/.",
"t.H.H.{.D.m.e.F.KXIX8Xw.y.i 5 7 $ + > 1 6 t j j t e 8 7 8 3 3 8 s s s 8 3 3 a d b b h.V.oXBXZ 3 3 N d.l N &X%XU.W.W.s.N l mX#X^.",
"l./ / / tXJ.G.PXLXJ.w.y.w 1 1 + 1 1 7 i t 7 < $ % % 4 G G H.J H g > 3 3 s 3 3 3 n f l s.E.j.9XV f 3 v B s s.@XW.d.).d.v N {.>X/.",
"m.( ~ ~ ~ ,.SXHXj.y.e.5 < O < 1 1 r w 1 + O O # O O & 4 # % 4 m  XeXxXH $ 3 3 3 % m G j a.W.v oXf a 3 l s s W.W.E.h.E.a.b b MXQ.",
"v.[.( ~ %.~ uX{.y.e.5 $ + 1 < 5 w 1 + + O O $ 1 6 7 7 7 6 1 > 3 m H.0XJXeXm % % % > f n j f.W.B {.j a 3 j a N W.E.a.h.b a.l .X^.",
"u.D.( ~ ~ | ! iX7X^ K K H h 8 5 + $ $ + 1 w i t 7 6 > > > % > $ $ 4 4 G DXJX[.# # # % % a j B.+Xz.G.s % s s s E.W.f.a.k.r.l b xX",
"v.b.( ,.| ~ ~ | iX0.q.q.q.aXtX^ 9 - < 7 r w < : $ $ > 1 1 1 3 m G xXGXvXMXJXJXeX3 # % % # a v B.+Xx.d 4 # s 3 v W.B.z.a.G.x r.cX",
"m.i 5X*.| | _ ! :.aXdXgXdXaXaXaXiXH y 5 < : > w x e.u.r.e.x j e 6 Z vXGXJXJXJXJXBX4 m 4 $ # 6 r.A.I.l 8 h 6 3 8 E.W.^.r.J.j u.'.",
"e.j.PXtX%._ ' ~ ! pXpXgXgXgXgXfXaXpX^ ; 5 i u.u.u.r.x e 7 7 7 7 7 7 7 Z 9XVXJXJXJXDXG cX# # # j f.A.f.8 h 3 3 > v A.S.J.'.j r.l ",
"c DXIXyX,.| _ _ ) ) pXpXgXgXgXgXaXaXaX7Xt.b.u.x e.e.x t e e e 7 w t 7 7 1 g wXDXJXJXDXvX].# # 1 r.M.A.v 6 g > 3 6 A.B.}.x.C x x ",
"oXIXbXH.,.X.{ _  .! ) aXpX:.;.;.pXaXq.fXrXr.e.y.x i e e e t w 7 7 e j 8 7 1 $ g GXJXJXJXDX4 m + e M.A.f.s 3 % H j f.A.oXj.G.x x ",
"FXFXi.l.,.&.| _ [ [ ) I [ ;.) ;.` -.aXq.fXrXv x t i t t t t e 5 6 6 6 7 8 7 3 # m BXJXJXJX8XP.% 1 r.M.A.r.$ % H.l.x A.XXG. Xk e.",
"FXF.y.p.,.o. .` ) [ .. .) ! I o.* I ;.aXsXgX5Xi t i x y.u.b.c.y.x w 8 7 8 8 6 $ O h JXJXJXJXDXM $ x M.C.u.1 2 m  Xx A.D.BX Xb x ",
"vXu y.u ,.&.o._ [ [ [ ..o.-.-.! I * @.aXaXfXgXl.y.u.u.n.m.m.C.C.C.M.u.j 7 7 7 1 + O 0XJXJXJXJXm $ i u.C.M.e > s cXe A.N.KX X6 x ",
"p.w.p 0 tX&.&. .[ [ [ [ ....@.} &.| =.q.fXfXdXhXN.c.n.m.m.m.m.m.C.C.C.M.x 7 1 1 : + F JXJXJXJXK 6XhXAXcXoXv $ 7 vX6 C.M.HX[.6 j ",
"p.y.q 0 iX-.o. .[ ) [ [ ......+.+.} =.;.pXfXfXgX9Xy.e.c.b.m.m.n.M.C.C.C.C.u.t 1 < $ 0 HXSXSXzXlXlXlXzXzXSXhXh 9 ZX5X0X}.DX{.7 t ",
"w.w.; K.tX;.&...[ [ [ [ [ } } ..o.$.;.:.8.fXgXfXgXj.y.b.m.m.b.m.n.C.C.C.M.M.u.5 1 > K iXdXgXgXlXzXzXzXzXzXlXjXyXkXkXjXlXSXrX6 7 ",
"y.q ; vXtXtXo.o.[ [ [ [ [ } } } ..$.;.:.5.8.fXgXfXhXv.m.b.b.b.b.n.C.M.C.M.n.n.r 5 > ~ &.*.uXjXdXlXzXzXdXdXdXgXkXkXlXlXlXkXzX[.3 ",
"w.q 0 bXY :.&.o...[ [ [ [ [ [ ..} X.;.8.2.8.0.fXfXgX8Xv.c.c.b.b.n.M.n.n.n.b.n.i t 7 h D A 0 bXNX/ gX5.Q Q Q O.;.gXkXzXzXzXlXzXF ",
"w.; K.P.A :.-.o.o.[ [ [ [ [ } [ } ..=.=.2.8.8.q.fXfXgXP.c.c.c.b.b.n.b.b.b.c.c.r e.x < O X & K.wXD #.W P R R R Q +.iXkXSXzXzXzXhX",
"w.; wXF & tX:.o.o.o.[ [ [ [ [ } ....@.;.7.;.2.5.aXfXfXjXD.c.b.b.b.b.b.c.c.c.c.r y.e.< O o 0 0 hXq.;.W P P R R Q ..7XuXkXzXSXSXAX",
"u - ZX& ; ^ pXo.o.o.[ [ [ } [ ] ..X.+.=.5.5.2.2.8.gXfXfXhXl.y.v.c.c.c.c.c.c.c.p b.u.q + & ^ :.aX9.8.+.W P P R ] +.7Xg.tXkXSXzXAX",
"5 0 bX. o A tX-.o.o.O.[ Q [ [ ] ..+.@.-.=.2.2.8.;.0.gXfXfXjXL.v.c.y.c.c.w.y.y.y.b.y.u S %.0.9.9.9.q.6.O.Q P W ..-.7Xy.cX7XiXjX].",
"; K.wXo ; ; ( :.-.o...[ ` [ [ ] } #.o.>.#.<.2.5.8.2.pXgXfXfXgXhX.Xl.u.y.y.w.v.i.J.5X*.3.5.5.6.9.fXfXaX5.O.) ..o.*.7Xw.vXP.g M q ",
"; 8XvXo - ; A iX&.@.....` [ } } } o.o.#.#.<.2.2.5.8.5.dXfXsXsXfXgXgXtXtXtX7XtX:.5.3.3.4.;.6.q.sXaXfXfXq.;.;.:.:.iX7Xl.|.p.q 5 5 ",
"2 ZXwXo - ; O / :...X...] ] { } ....+.#.#.#.$.<.5.8.8.8.aXsXq.q.pXq.q.0.6.8.;.;.4.4.4.4.6.9.q.sXsXsXaXq.:.:.&.:.iXK.P.p.2 q 5 q ",
"2 ZX5Xo - - X 0 tX-.+...} ] ] ] } } ..o.o.=.#.<.2.2.2.8.8.0.0.9.0.9.6.6.4.4.4.4.4.4.4.6.6.6.9.q.q.q.q.0.;.:.:.:.*.i..XF.: q 5 p.",
"u bXK.o - ; o   Y :.@...} ] ] ] ] ] } X.X.o.>.1.<.2.2.2.5.8.5.0.9.9.6.6.4.4.;.4.4.4.4.6.6.9.6.9.0.9.9.8.7.1.:.:.6X|.i.9 5 5 5 F ",
"0 BXK.o - ; . . , 7X-.X.} ] ] [ ] } } } X.X.#.=.=.<.2.2.5.5.5.5.6.9.6.6.6.4.4.4.4.4.4.4.6.6.6.6.5.6.8.2.8.7.:.*.p.wX; - q < u M ",
"u CX5Xo - - .   o M *.&.} } ] ] ' ] } } ..X.o.#.=.2.2.2.2.5.5.5.;.;.;.4.4.4.4.;.4.4.4.4.6.6.6.;.5.6.0.0.8.7.7.K.P.p.- < 5 - H.u ",
"9 wXrX. - ; .   o 2 | &.o.} } } ] ' ] } ..X.@.#.#.=.2.2.=.5.=.=.;.;.$.;.6.;.4.4.4.;.4.;.;.;.;.8.8.8.0.0.7.7.6Xi.8X; < 5 - 2 J.q ",
"2 8XZXo o ; .   o 2 | } ..} } ] ] ] ' } X.X.#.>.=.=.2.5.<.2.2.<.=.=.$.$.;.=.;.;.;.;.;.;.;.;.5.;.;.pX;.:.:.7Xw.8X9 5 q ; ; F.2 u ",
"2 5XCX& o ; .   o ; / [ ) [ [ ` ] } ] O.>.>.<.$.>.<.<.2.8.5.3.=.=.=.$.;.;.;.;.;.;.;.;.;.;.;.5.5.;.;.;.pX/ w.K.P.5 q 5 - u M q q ",
"5 H bX0   ; o   o ; / ) ) ! ) ) ' ` ] O.$.<.<.<.5.2.2.5.5.8.<.=.$.$.$.$.=.=.=.;.5.=.;.2.=.=.=.=.-.;.:.^ w.u 8XF q q ; ; p.; q u ",
"q 0 rXH . - .     ; ! W W E E W W ` ' O.>.<.<.5.5.5.8.5.8.q.$.+.+.@.$.$.=.=.-.=.=.=.=.=.=.=.=.=.-.&.^ u 2 P.K.q q q ; i.u q u 9 ",
"u o 8X[.. o o   . - Y ! E E U E R E W ] $.<.2.5.5.8.5.8.8.0.;.] O.+.$.$.=.=.=.=.=.=.=.=.=.=.=.-./ M ; u wX[.q q q ; 2 M u q M u ",
"w.o 5XqX  o o   @ + 4 E E E U U U L P E +.<.5.5.8.5.5.6.9.9.9.=.O.+.+.=.$.=.=.=.=.=.;.=.=.=.&.S 2 2 rXFXP.u q w.q 2 M q q u u w.",
"w.2 H ZX2 . o X X o ; A I E U P L P L L K #.3.5.5.5.6.9.9.q.q.0.;.:.:.=.=.$.=.=.=.=.$.$.@.! 9 w P.KXZXH u w.q q q M q w.q F w.w.",
"e.p 0 ZXK X o . & o < < q c D L L = L / 6 ^ >.5.5.8.9.0.sXfXsXsX7.0.pXiX:.$.$.+.+.} ) ! S m qXKXLX[.9 q p w.q q i.q w.q 2 w.w.w.",
"t.w., qXrXX O O X g 2 5 7 w p & K & & 8X8Xk %.;.8.0.q.q.q.fXsXfX0.o.o. .| W _ E D S K wXCXHXDXvXF.2 u w.p i p M w.w.r 5 r y.y.y.",
"w.e.2 F FX0 X O o K O 7 7 y c j F A @ & CXP.k.&.8.q.q.aXsXq.q.sXdX%.E * 0 A K [.5X8X].[.H H m j w.w.w.p r t.i.e.e.r w r y.c.c.e.",
"p.r.c , NX8XX # % 0 h 6 w j j x 6 g X X 0 FXJ.x.%.8.q.aXsXsXfXsXq.8.,.A @ # , m & # # % 6 c u.u.r.x u p |.i.u.y.r 7 i c.b.b.e.7 ",
"0Xv t.6 H HX0 X % + 5X2 j 8 c x v % % # O g ZXG.N.7X;.9.q.pXpX0.0.1.>.X.| T f j y l r.N.f.r.x j 7 t c j.r.u.e.e w e.c.M.C.r.5 wX",
"DXp.g.v , eX9X# % > 0 [.3 j x l r.b 3 % % % f ZX.Xz.6X%.7.q.0.0.0.8.1.1.1.o.{.a.g.a.r.v j 8 8 j e x r.v.u.x e e e.M.C.C.e., wXIX",
"DX9Xs.s.8 h HX0 # % % {.F z b t.b g.v 0 % % % d BXoXg.Q._.6X%.1.,.,.,.,.iX,.T f d j s y j x 8 8 f.S.N.r.j j x u.Z.A.A.r.3 cXIXLX",
"DXJXk.g.b 3 [.9X% % 3 , eXg s.s.a.b h.l & a a # 9 9XMXz.V.#X}.].T K D K J Z b b b l j 8 k t.S.OXS.g.v c c u.N.A.I.A.M M vXIXLX8X",
",XLXwXg.h.k g vXF % a 9 m rXd z.h.s.s.h.N a s f 4 s G BXeXx.g.Q.#X#X#XW.Q.Q./.Q.V.V./.#X@X#XS.h.t.l c s.B.S.OX+XV.F.Z DXIXLX.Xe.",
"!.GXPX}.!.d.d ].rX4 a z a J eXz h.~.h.s.d.z d f !.B k z '.9XeX'.N U.E.W.#X#X=X=X=X#XQ./.V.s.c j c s.V.S.OX+XOXx.G '.KXPXJX|.t.x ",
"R.oXJXBX^.!.C k vX9X% a N a  XqXd U.W.h.B d.z d z d.Y.B z N l Z G.C j.k.z.h.h.h.h.h.d.s.B t.s.a.g.V./.@X=Xx.G.J.BXIXPXGXL.N.r.j ",
":XR.NXPX.X(.!.C Z DX{.4 z z a 9XeXf U.).~.d.V f d f C ).&X!.d.B N b b B k.d.d.s.d.h.h.s.B b b l.#X;X$Xx.Z j.oXPXIXIXcXD.N.t.j 3 ",
";X:X}.FXJXXX(.Y.N ].HXJ 4 z z a cXmXZ U.*X*XT.Z '.J n N k.).<X<X).W.~.E.!.Y.h.U.z.h.h./.#X-X1X;X^.G.Z F.xXPXIXPXBX}.I.N.u.w 3 & ",
"2X3X}.0XJXNX_.~.k.N {.GXm 3 z N a  XJXT B `.&X).V {.9XqXT f N T.~.).*X<X-X*X2X<X<X2X<X=X(.z.f z M '.BXIXIXPXHX.X/.OXN.t.8 3 4 g ",
"XX3X3X}.MXPXcX*X^.k.N 0XGXg a N B a T VX Xz U.<X&X~.V oXZXNX{.V V V V V k.Y.C k.Y.C B N b G.oXMXPXIXIXPXNX.X/.OXN.t.8 5 h h H 4 ",
"*X%X3X:XR.ZXPXoX).k.N z eXVXa a f C f f cXoXs B ).<X<X).T.'.9XNXGXGXZXNXMXMXcXeXcXcXMXZXIXIXIXIXGXcX.Xx.E.+XS.s.l 6 M H H.G 0 vX",
"4X:X2X3X&X^.VXmX^.(.Y.U.d.,X,XT k.Y.T.U.Y.oXoXY.U.`.<X4X4X<X`.`.'.XXT.'.,XVXVXVXVXVXVXVXnX,X}.x.R./.=X=X$X/.D.s.a.L.}.,Xl.p.nXL."
};
