/* XPM */
static char *_630661696716[] = {
/* columns rows colors chars-per-pixel */
"64 64 246 2 ",
"   c #002E7B",
".  c #013377",
"X  c #01337D",
"o  c #023B7D",
"O  c #04407F",
"+  c #002F81",
"@  c #023584",
"#  c #013C84",
"$  c #023689",
"%  c #013C8B",
"&  c #013D93",
"*  c #043F98",
"=  c #034384",
"-  c #084784",
";  c #064B87",
":  c #02438C",
">  c #08428B",
",  c #044B8C",
"<  c #0A4D8C",
"1  c #08548D",
"2  c #024493",
"3  c #014B95",
"4  c #094B97",
"5  c #02449A",
"6  c #014B9C",
"7  c #055393",
"8  c #0B5694",
"9  c #0C5993",
"0  c #01529D",
"q  c #045A9C",
"w  c #0A5D9B",
"e  c #0E6296",
"r  c #0D639B",
"t  c #11679C",
"y  c #0246A3",
"u  c #014CA3",
"i  c #084CA5",
"p  c #014DAA",
"a  c #0253A4",
"s  c #025BA5",
"d  c #0154AC",
"f  c #015BAB",
"g  c #095DA9",
"h  c #0155B3",
"j  c #015CB3",
"k  c #095AB4",
"l  c #0156B8",
"z  c #035CBC",
"x  c #0A5EBB",
"c  c #0A66A3",
"v  c #0B6AA5",
"b  c #0665AA",
"n  c #0362AD",
"m  c #0A6BAC",
"M  c #166EA2",
"N  c #0D72AD",
"B  c #1572A4",
"V  c #1676AA",
"C  c #1A7CAC",
"Z  c #0163B4",
"A  c #0966B4",
"S  c #0369B6",
"D  c #096AB5",
"F  c #0263BB",
"G  c #0C64BC",
"H  c #026BBC",
"J  c #0B6BBB",
"K  c #1165BB",
"L  c #126BBB",
"P  c #1A6CBE",
"I  c #0B74B5",
"U  c #0173BC",
"Y  c #0B73BC",
"T  c #0A79B9",
"R  c #137CB5",
"E  c #1775BC",
"W  c #2177AB",
"Q  c #2275BE",
"!  c #035AC1",
"~  c #095EC2",
"^  c #0164C1",
"/  c #026CC2",
"(  c #0B6BC2",
")  c #1A6CC2",
"_  c #0273C4",
"`  c #0975C6",
"'  c #027BC4",
"]  c #0B7BC4",
"[  c #027CC9",
"{  c #0B7CCA",
"}  c #1374C4",
"|  c #127DC2",
" . c #1978C4",
".. c #147DCB",
"X. c #247AC3",
"o. c #1682B3",
"O. c #1383BA",
"+. c #1984BB",
"@. c #1A88B9",
"#. c #2288B6",
"$. c #2691BD",
"%. c #0282C5",
"&. c #0988C4",
"*. c #0383CA",
"=. c #0C83CA",
"-. c #058BCA",
";. c #098CCC",
":. c #1383C3",
">. c #1B8BC2",
",. c #1384CD",
"<. c #1983CD",
"1. c #148ACD",
"2. c #188BCA",
"3. c #0A92C4",
"4. c #0996CB",
"5. c #0B91CC",
"6. c #1A96C7",
"7. c #1D93CB",
"8. c #139CCC",
"9. c #0E82D2",
"0. c #1484D3",
"q. c #1B87D2",
"w. c #138AD3",
"e. c #198AD3",
"r. c #148ADB",
"t. c #1B8EDD",
"y. c #0C94D1",
"u. c #0D9BD5",
"i. c #1493D4",
"p. c #139AD5",
"a. c #1A98D7",
"s. c #1595DB",
"d. c #1B94DB",
"f. c #1D9ADD",
"g. c #2797C6",
"h. c #229BCE",
"j. c #278DD1",
"k. c #2696D4",
"l. c #239DD3",
"z. c #229CDD",
"x. c #1AA2CC",
"c. c #19A2D5",
"v. c #18A7D4",
"b. c #14A4DC",
"n. c #1AA4DC",
"m. c #1CABDD",
"M. c #26A4CD",
"N. c #33A3CD",
"B. c #24A5D3",
"V. c #28ABD5",
"C. c #23A5DA",
"Z. c #23ABDC",
"A. c #2BACDC",
"S. c #36ABD5",
"D. c #2CB1DB",
"F. c #29B5DB",
"G. c #34B3DA",
"H. c #3CB4DC",
"J. c #34B8DB",
"K. c #3BBDDE",
"L. c #1A94E2",
"P. c #1E9CE3",
"I. c #229DE3",
"U. c #329DE0",
"Y. c #1CA5E2",
"T. c #1DABE4",
"R. c #1FB1E4",
"E. c #23A3E4",
"W. c #24ACE4",
"Q. c #28A6E8",
"!. c #26ABEA",
"~. c #2BABEB",
"^. c #32A8E8",
"/. c #24B2E4",
"(. c #2AB6E3",
"). c #2DBBE4",
"_. c #24B4EB",
"`. c #2CB4ED",
"'. c #25BAEC",
"]. c #2BBBEC",
"[. c #37B8E7",
"{. c #32BCE4",
"}. c #33BCEC",
"|. c #2EAEF0",
" X c #2BB5F1",
".X c #2BBBF3",
"XX c #33B2F2",
"oX c #33BCF4",
"OX c #39BAF4",
"+X c #43B2DD",
"@X c #44BDE2",
"#X c #3CC4DF",
"$X c #2DC2EB",
"%X c #2EC7E9",
"&X c #32C3E6",
"*X c #3CC3E5",
"=X c #34C5EB",
"-X c #3BC7E9",
";X c #34CCED",
":X c #3BCBEC",
">X c #2AD1ED",
",X c #3BD2EC",
"<X c #38D7EE",
"1X c #2DC3F3",
"2X c #2ECBF3",
"3X c #33C4F4",
"4X c #3AC6F5",
"5X c #34CCF4",
"6X c #3BCCF3",
"7X c #36C3FA",
"8X c #34CBFA",
"9X c #3BCEFA",
"0X c #2ED5F5",
"qX c #35D4F4",
"wX c #3CD4F5",
"eX c #34DAF4",
"rX c #3CDCF4",
"tX c #36D3FA",
"yX c #3CD4FB",
"uX c #35DAF9",
"iX c #3DD9FA",
"pX c #3CE2F4",
"aX c #3AE1F9",
"sX c #48C7E8",
"dX c #42CDEC",
"fX c #59CAEB",
"gX c #46D6ED",
"hX c #55D6EE",
"jX c #43CCF5",
"kX c #43D4F4",
"lX c #4BD6F2",
"zX c #43DCF4",
"xX c #4BDEF4",
"cX c #43DDFA",
"vX c #55D8F2",
"bX c #66DCF1",
"nX c #44E3F5",
"mX c #4BE2F5",
"MX c #4CE8F6",
"NX c #45E3FA",
"BX c #4BE4F9",
"VX c #49EAF8",
"CX c #59E5F7",
"ZX c #52EBFA",
"AX c #51F2FD",
"SX c #64EDFA",
/* pixels */
"G.A.A.A.Z.Z.C.l.n.E.{.dXgXzX;X<X0X0XaXaXuX0XqX;X2XqXtXtXwXmXSXCX6XkXjXjX}.OX[.XXOXOXXX^.^.U.k.X.X.X.X.X.Q Q Q Q P Q P P ) ) P P ",
"A.A.D.*X(.Z.Z.C.F.C.W.R.%X;X>XeXeX0X0XeXeXpXaXuXrXnXNXiXiXyXkX5X5X6X].].].`.XX|.E.P.d.t.q.q... ...) E P P L K K K K K x K x k K ",
"J.G.sXdX).F.v.8.8.c.Z.&X].>XnXpX0XeXaXaXpX<XeXBXZXZXBXrXwX5X8X8X1X7X7X4X`.!.E.P.L.L.L.r.0.......E E L P L L K L K K K x k x k x ",
"hXCXgXwX;X).F.Z.Z.m.&XmXrXeXeX>X>XeXeXrXpXrXrXrXgXmXZXnXBXcXyX9X9X9X1XoX3X X~.Y.P.L.r.r.r...{ } L L L L K L K K K K K x ~ x k x ",
"hXhXxXgX,X,X:X&X=X5XqXqXwXqX0X0XeXpXeXpXmXVXrXrXVXnXVXcXBXcXiXtX5X9X7X7XoXoX~.!.!.E.P.L.t.....` L L L L J G G x x x x x x z x ~ ",
"gXCXSXmXzXlXkX:X;XqX5X2XeXeXuXrXpXnXAXVXVXBXcX5XqXuXiXiXyX9X2X1X8X7X3X7XOXoXXXXXE.P.L.d.r.t...) ( Y L J ( K x x x x x ~ ~ x z ~ ",
"hXhXSXvXkX-X-X*X:X;X8XtXtXNXnXpXVXVXnXrXpXiXyXtXqX2X8X8X2X1X1X1X7X X!. X`.~.~.E.I.f.d.r.t.q...` } J G G G ( x x z z ! z ! z z ~ ",
"hXhXvXlX-XdXdX:XlXkXyXtX0XqXeXaX<XrXeX5X9X5X3X.X5X].$X2X8X8X1X.X.X X!.!.Q.I.f.d.d.s.w.r...{ ` ` G G H G G x ~ l z z x ! z z ~ ~ ",
"@XsXdX:X#X#XJ.#X{.5X6XiXtXtX2XeX0XuXtX1X1X'.(./.].].1X'.'. X.X X_.!.Y.P.f.s.d.1.1.w.=.{ { ` ^ / ( ( G ( ( z z z z z ! z ! ! ! ~ ",
"S.G.sXJ.V.F.V.F.D.{.jXqX2X1X1X8X2X1X_.R./.'.]./././.'._._._.T.T.Y.P.s.i.1.1.,.=.{ { { [ { ` ` ^ H F F ^ x ! z z ! ! ! ! ! ! ! ~ ",
"N.M.M.M.M.V.x.F.Z.{.=X%X1X'.R.'.R.T.T.T.W.Z.Z.Z.T.n.T.n.Y.P.L.u.a.i.w.;.=.{ { ` ` { { ` { { ` / / F F F z ! z z z ! ! ! ! ! ! ~ ",
"g.6.M.M.M.x.v.x.v.Z.Z.R.R.'.'.R.R.T.Y.n.n.n.p.c.a.n.s.u.s.u.y.y.5.;.&.%.' ] [ _ _ ` / / / / / / / ^ F ^ z z z z z z z ! ! ! l ~ ",
"g.8.h.8.x.x.v.x.v.v.v.v.T.m.b.b.Y.Y.b.n.c.p.u.8.8.i.5.-.;.;.;.;.-.;.&.[ [ [ _ _ / / / / ^ ^ ^ / / / ^ ^ ^ z z z z z z z z ! z ! ",
"O.O.>.6.3.x.x.x.8.v.u.b.b.b.b.u.u.u.u.u.p.5.5.3.5.5.-.;.;.*.*.*.*.*.{ [ [ _ [ / / / / ^ ^ ^ ^ / ^ F ^ / ^ ^ ^ z z z z z z l z z ",
":.O.&.&.3.3.3.4.4.4.4.u.u.y.4.u.u.y.y.5.5.5.3.-.-.-.-.*.*.[ *.[ [ [ [ [ [ _ _ _ / / ^ ^ ^ ^ ^ ^ ^ ^ ! ^ ^ ^ ^ z F z j z z l l x ",
"1.1.=.&.O.3.3.4.O.4.-.4.4.4.4.-.-.5.-.-.-.&.%.%.-.-.*.*.[ ' ' [ [ [ [ [ _ _ _ / / / / ^ ^ ^ ^ ! ! F ! z z ^ ^ F F F x z z z l x ",
";.=.&.;.;.5.-.5.-.5.-.-.-.-.*.*.*.*.*.*.*.*.*.*.%.*.%.*.' [ _ [ [ [ [ _ _ _ _ / / / H F F ^ ^ z z z z z ! z z z ! ^ F F F z z x ",
"=.*.*.&.-.*.-.-.-.&.-.-.-.%.*.[ %.*.*.[ *.*.*.[ %.%.%.%.' ' _ _ / _ _ _ _ _ _ _ H H F F F ^ z ^ z z z z l z z l z x ^ F z F F S ",
"[ ' %.%.%.%.%.%.%.%.%.%.%.' ' [ ' [ [ [ [ *.[ [ %.%.%.%.' _ _ / / / _ / _ / / / H H H F z z z z z z z h l z l z l z l j F x z S ",
"{ ' ' %.%.' %.' %.' %.%.' ' [ ' ' ' ' [ [ [ [ _ U ' U ' ' _ U H H / / H / / H H H ^ F F j F j l h l z l l l l l z l l l h h z G ",
"[ ' O.%.' %.%.' ' ' ' ' U _ _ _ U _ _ _ _ [ ' U U U U O.U U H H H F F H H H F H F F F Z Z j z z l l h z l l l h h h l h h h h x ",
"] U ' U U U U U ' ' U ' _ _ _ _ _ _ _ / _ U _ H U U U U U U H S F F F F F F F F F F F F Z j h h h h h h h h h h h h h h h h h k ",
"U U U U U U U ' U U U H H H H / U H H H H U U H S H U U U U H S F j z z F Z Z Z F Z Z Z Z h f h h h d h h h h h p d p p h h h d ",
"Y U U U U U U U H U U H H H F H H H S H H H U H S S S S U S S Z Z Z j h j j j j j Z j j Z j j h f h d h h p p p h p p p p p p k ",
"U H H U U H H U S H H S F F F F Z F F F F S H Z Z Z S S H S Z Z Z h h h f j f h f f j f j f f d d d d h p p p p p p h p p p y p ",
"D S S S S S S S n S Z n Z Z Z Z Z Z n Z Z S S Z n j n Z Z Z Z n Z f h d h d f f d f f d f f f f d d d d p p p p p p p p p p p p ",
"S Z n S Z Z Z Z Z Z n n j j j j f j f f h n Z n f f f f n n n f f f d d d p d d a d s d d f s f d a d a p p p y p y p y y p y i ",
"A n n n n n n n n n f f d h f f f f f f f f n n a f s f s n n f a d a a p y i a u a a a a a a f f a a a u u p y y y y y y y p i ",
"b f f f f n f f f f f d a d d d d f d d a f f f a d a a s f s f a a a u y y y u u u u a a a a s a a a a u u y y y y y y y y y i ",
"g s s s s f s s f s a u u a p a a a d a a a s f a a a a a s s s a a a u u 6 y 5 u 5 6 6 6 a u 6 a a a 0 u 6 6 6 5 y 5 y * y * y ",
"g a a a s s a a a a a u u u u a u u a u u a a s u u u 0 a a a a a 0 6 6 6 5 5 5 6 y 6 5 6 u 6 6 6 0 0 0 6 u 6 6 6 5 5 * * * * 4 ",
"a 0 0 q a 0 0 0 a u 6 6 6 u 6 6 u u u u u u a a 6 u 6 6 6 0 0 0 0 0 6 6 5 5 5 5 * 5 6 5 5 6 6 5 3 6 0 6 6 6 6 6 5 5 5 * * * * 5 ",
"a 6 0 0 0 0 6 0 y 6 5 6 5 6 6 5 5 6 5 6 5 6 6 0 6 2 5 5 5 6 6 7 3 3 3 3 2 5 & & & * * 5 * 2 5 3 3 5 3 3 0 3 3 3 3 2 2 * & 2 & 2 ",
"6 6 3 6 6 6 6 6 6 5 5 * 5 5 5 5 5 6 5 5 5 5 6 6 6 2 5 5 2 3 3 3 7 3 3 3 2 2 & & & & * * 2 & : 5 2 , 2 2 3 3 3 2 2 2 2 2 & & % * ",
"6 4 3 3 5 3 3 5 * * * & * * 5 5 2 5 5 2 5 5 5 3 3 & 2 2 2 2 3 3 3 3 , 5 2 & & & & & & * & : % 2 2 2 , % 2 3 3 2 2 2 2 & & & % > ",
"4 4 3 3 2 2 3 5 * & & & * & & * & 2 & & & : 2 3 3 % % 2 & % 2 2 2 3 2 2 : 2 & % $ & $ $ & % % % % 2 2 % % : , 3 3 & : & % % % * ",
"4 2 2 > : 2 2 & & & & & & & & & % & & & & % 2 2 3 % % & % % 2 2 2 2 2 2 2 : % & $ $ $ $ % % % % $ % % = % % = 2 2 , % 2 > % % : ",
"3 2 2 : % : : % $ $ $ $ $ $ $ $ $ % $ $ $ # % = 2 $ $ $ $ % % % = = = = % # # $ $ + $ $ @ $ $ $ $ $ # $ = % $ = % = : % = % % % ",
"4 : : % % % $ $ $ $ $ $ $ $ $ $ $ $ $ $ $ $ $ = > $ $ % @ @ % = % = = % = # # @ @ + + $ + $ $ $ @ @ @ # $ $ o # # # = = = # = # ",
": : % $ % & $ $ $ $ $ $ $ @ $ @ # # $ $ @ @ % # = # $ @ @ @ @ @ = % = # # # # @ @ @ @ + + + + @ @ @ X # # o @ X # # # = # # # > ",
"> % $ $ # % % @ $ @ @ @ $ $ $ $ @ @ $ @ @ $ # # = % @ @ @ X @ # $ # # # # @ @ @ @ X X +     +   + X X X @ X X @ X X $ o = = o > ",
": $ % % # # @ $ @ @ @ $ $ $ @ $ @ $ $ $ $ @ @ # = # @ @ @ X X # # # # # # o X X X X X             @ X X X X @ X @ X X o # o # # ",
"> $ @ # % % $ @ $ @ # $ + $ @ @ @ $ $ @ @ @ @ # # # @ X @ X X X # X # @ # @ X @ X X X               X X     X X X X X o o o o > ",
"2 % @ % % $ @ % $ @ @ $ $ $ $ % @ $ $ # % $ @ # # # # @ o # @ @ # # # # # # # # @ @ X @             X X   . . o . X X X @ o = > ",
": % % % % % % % $ $ % % % % % % $ % % % % % # # = : # # # $ # # # # # # = # # o # X X X X X X       X X . . . . X . o o o o = > ",
"4 % 2 2 % % % % & & & : = : 2 = 2 , 2 = 2 % , > : , : = = = # = = # = = = = # = # # # o X @ @ X X X X . o . . . . o o o o # = > ",
"4 & 5 2 2 & 4 * 2 & 2 2 2 2 3 3 3 3 3 3 2 3 2 , , , , = , , : = : : : , : ; ; = = = # # # # # o o X X o . o o . o O O O O = = < ",
"4 5 4 5 2 5 4 2 5 5 5 6 3 3 3 3 6 7 0 3 7 3 7 3 3 7 3 3 , 3 3 , , , , , , , , ; ; ; = , : = = = O o o o o O O o O O O O = > , 4 ",
"a 6 a 6 6 6 5 6 6 u u 6 6 0 0 0 q q s 0 0 q q q q 7 q 7 0 7 7 7 7 7 7 7 1 7 7 1 7 7 1 , 3 < ; , < - - # O - O O - O = - ; , , 8 ",
"a a a a u a i a a a a a g a q s q b s b s c q b q b q q w w g w w q q q r r e w w w w w w 9 8 8 8 < < < ; - 9 < < < - < < 1 7 8 ",
"g s s s g a s f s s g g f n b b b b b m b b b m m N m b c c v v c c v v c v v v v v v c r r r w 9 e 9 9 9 < 1 9 9 e 1 9 8 8 8 w ",
"A Z A A n Z n f g Z j A n n n b D m I I I I I I I I T I E N N N N m m N N N N N N N N I N m v v M t e t e t t t e e e t t M t M ",
"A A D S D D S m A A A A D J S I I T | | :.O.T :.O.O.| | R O.R R R R R R R R I O.o.O.O.O.+.+.o.R V N M M M r t B B M M M M M V W ",
"A A S J S Y J I Y Y Y Y Y | | | :.:.:.1.e.e.1.7.7.7.7.7.7.7.>.>.@.>.>.>.>.>.>.O.O.O.@.@.>.@.>.>.+.#.#.C V B B t B B B B C C V C ",
"J J J Y T ] ] ] | ] ] ,.q.<.2.2.2.d.k.z.f.a.a.a.f.l.l.C.k.h.2.g.g.k.k.g.6.6.@.6.6.h.x.6.7.6.7.h.g.N.j.#.C C C C #.#.#.C C #.C #.",
"E } Y ` =.,.,.,.1.1.1.1.j.e.z.z.z.z.z.E.E.E.A.Z.Z.W.C.C.A.l.l.h.6.l.h.l.6.x.Z.D.V.D.D.Z.B.B.B.B.S.S.g.g.g.@.@.#.#.#.#.#.$.g.$.$.",
"| ..<.q.,.,.e.w.w.s.s.z.z.k.z.E.z.Q.!.`.Q.W.`.'.oX]././.W.C.A.C.c.V.A.A.D.F.).}.&X&X{.F.D.D.).Z.(.G.M.M.M.g.$.$.$.$.g.N.H.+XN.N.",
"....q.0.s.d.d.d.z.z.I.^.Q.Q.~.Q.Y.!. XoX7X7X7X.X]._.].].'.{.}.).(.[.{.).).).).&X&X&X&X;X)./.(.'.[.).H.G.S.S.S.H.S.S.S.H.+XS.+X+X",
"<.<.0.r.r.d.L.L.E.~.|.|.XX~.OXoX`.`.}.oX X X'._.1X1X3X%X=X'.$X3X3X=X=X6X:X;X:X,X,X:X,X,X,X&X=X).).}.{.[.sXJ.S.S.K.G.J.K.@XsXsXfX",
"q.e.9.r.t.I.P.P.~.~.|.|.XXOXOXoXOX4X5X3X.X3X1X3X5X5XwXwX5X=X%X].;X6XwX:X,XgXxXBXxXBXzX;X<XwX;X=X].).).J.J.G.G.J.G.K.sXlXbXbX@X@X",
"..0.0.r.t.L.L.Q.Q.E.E.~.OXOX XoX7X7X6X1X3X9XwXzXNXzXcXzXBXBXwX5X9XBXmXZXMXMXmXMXrX,X;XrXwX;X;X5X$X).%X).J.J.&X#X#X*X-XdXhXbXhXfX",
"....0.r.w.r.s.s.s.E.E.~.`.OXoXoX}.3X7XjXjXkXcXxXcXzXcXMXnX<XzXcXwX<X<XzXzX,X>XwXwXqX5X2X2X2X;X%X5X5X;X&X&X&X-XdXlXgXdXlXSXvXvXfX",
"....0.r.r.r.L.I.s.f.f.E.Q.`.}.3X4X3X9X3X8X5XwXcXcXNXgXVXAXzX,XwXeXtX<XzXwXqXqXqX2X2X2X%XqXqX<X,X;X&X{.$X&XJ.J.sXsX&X:XjXlXvXdXsX",
"j.t.t.t.t.d.I.d.C.~.XX~.[.`.OXjXjX4X3X7X4X4X4X4XkXxXxXmXCXZXCXmXqXqXrXMXCXzXrXcXrX5X5XqXqX;X,XhXSX*XV.V.V.V.D.J.[.-XdXjXdXhXhXbX"
};
