/* XPM */
static char *_273b4331d4d451df061dbe855c89813jxXsucfOXuKewgQa[] = {
/* columns rows colors chars-per-pixel */
"64 64 256 2 ",
"   c #7B6226",
".  c #17365B",
"X  c #15376A",
"o  c #03337B",
"O  c #023A7D",
"+  c #063676",
"@  c #09346D",
"#  c #25364F",
"$  c #375257",
"%  c #194569",
"&  c #06437B",
"*  c #174A7B",
"=  c #18547F",
"-  c #2D5270",
";  c #306877",
":  c #1C627C",
">  c #6D6F4E",
",  c #526E6E",
"<  c #68766D",
"1  c #4E5C5E",
"2  c #4E2900",
"3  c #AD770E",
"4  c #93752F",
"5  c #AD7D24",
"6  c #77907B",
"7  c #78A17F",
"8  c #B48118",
"9  c #B48C36",
"0  c #9F823C",
"q  c #C99838",
"w  c #CB902A",
"e  c #C99328",
"r  c #B49345",
"t  c #B3AD6D",
"y  c #969564",
"u  c #C79C48",
"i  c #CBA64A",
"p  c #D5A544",
"a  c #DBAA45",
"s  c #D5AB4C",
"d  c #DBAB4C",
"f  c #D6A748",
"g  c #CBA853",
"h  c #D8AC55",
"j  c #DCB254",
"k  c #DBB25B",
"l  c #DDB24E",
"z  c #E1AE54",
"x  c #E3B45C",
"c  c #EBBC5D",
"v  c #E4B657",
"b  c #E7B252",
"n  c #DAB669",
"m  c #D7B779",
"M  c #C9AF6C",
"N  c #E6BC64",
"B  c #EBBD64",
"V  c #EDBD6A",
"C  c #E3B765",
"Z  c #F5BD67",
"A  c #E4BB74",
"S  c #EAC15D",
"D  c #F3C25D",
"F  c #D2C477",
"G  c #ECC26B",
"H  c #EAC267",
"J  c #F3C264",
"K  c #F3C36C",
"L  c #FAC36C",
"P  c #F8C767",
"I  c #ECC473",
"U  c #E7C579",
"Y  c #F3C472",
"T  c #F4CA74",
"R  c #F4CC7B",
"E  c #FBCB7C",
"W  c #FAC775",
"Q  c #FBD17E",
"!  c #013C83",
"~  c #033C8B",
"^  c #063687",
"/  c #043D94",
"(  c #113C80",
")  c #034483",
"_  c #074889",
"`  c #0A538D",
"'  c #175789",
"]  c #024493",
"[  c #014C9C",
"{  c #064898",
"}  c #085698",
"|  c #125A97",
" . c #144A90",
".. c #29588A",
"X. c #0D639B",
"o. c #15669A",
"O. c #18688C",
"+. c #2F6D8A",
"@. c #054BA6",
"#. c #0353A4",
"$. c #0254AC",
"%. c #025BAC",
"&. c #0857A5",
"*. c #0155B3",
"=. c #015BB4",
"-. c #025CBC",
";. c #0A5EBB",
":. c #0457B8",
">. c #094FAD",
",. c #0362AC",
"<. c #0A66AA",
"1. c #166CA3",
"2. c #1876AA",
"3. c #0263B3",
"4. c #0263BD",
"5. c #0C63BC",
"6. c #026BBC",
"7. c #0969B7",
"8. c #136CBB",
"9. c #1266BB",
"0. c #0273BC",
"q. c #0878B9",
"w. c #1579B7",
"e. c #0B73A9",
"r. c #297AA9",
"t. c #4E718A",
"y. c #657C8D",
"u. c #497AAC",
"i. c #035CC1",
"p. c #0B5FC1",
"a. c #0264C2",
"s. c #026BC3",
"d. c #0768C3",
"f. c #196CC4",
"g. c #0373C3",
"h. c #0A74C4",
"j. c #037BC4",
"k. c #027CC9",
"l. c #0979C9",
"z. c #177AC5",
"x. c #067DD4",
"c. c #207BC4",
"v. c #358797",
"b. c #1B84B6",
"n. c #1590BB",
"m. c #2289B7",
"M. c #2F92AF",
"N. c #38A4BB",
"B. c #4B8B92",
"V. c #798C8F",
"C. c #4D94AD",
"Z. c #6F92AC",
"A. c #55A5AF",
"S. c #70ABAE",
"D. c #72A691",
"F. c #0383C4",
"G. c #0483CA",
"H. c #0A8BCC",
"J. c #0A86C9",
"K. c #1283CD",
"L. c #1789C8",
"P. c #0A93CC",
"I. c #1996C7",
"U. c #1489D5",
"Y. c #0E95D3",
"T. c #1B9ADB",
"R. c #1797D7",
"E. c #0F84D9",
"W. c #2899C5",
"Q. c #239AD9",
"!. c #258CD3",
"~. c #18A6DA",
"^. c #16A8D4",
"/. c #29A6CD",
"(. c #38A7C8",
"). c #27AAD9",
"_. c #36ACD5",
"`. c #2AB4DA",
"'. c #38B6DA",
"]. c #37B0CF",
"[. c #1D9AE2",
"{. c #198DE2",
"}. c #249EE5",
"|. c #1CA9E2",
" X c #1DB5E4",
".X c #25A8E6",
"XX c #2DBCE3",
"oX c #2CBBEC",
"OX c #27B5E7",
"+X c #34BDE4",
"@X c #35BBE6",
"#X c #2BADF1",
"$X c #2CB9F2",
"%X c #34B8F6",
"&X c #32A9EF",
"*X c #42B9DB",
"=X c #6C94C5",
"-X c #2CC6EB",
";X c #34C4EB",
":X c #34CCEC",
">X c #3AC7E9",
",X c #37D3EC",
"<X c #2CC7F2",
"1X c #32C3F4",
"2X c #35CBF4",
"3X c #38C9F9",
"4X c #3CD5F2",
"5X c #3CDBF4",
"6X c #38D6F9",
"7X c #2DD6F1",
"8X c #3DE1F8",
"9X c #2FC0DD",
"0X c #45C9E9",
"qX c #46D5ED",
"wX c #43CBF2",
"eX c #43DBF4",
"rX c #45D9F8",
"tX c #55D8F6",
"yX c #53CFEE",
"uX c #44E3FB",
"iX c #4BE4FE",
"pX c #4AE9FD",
"aX c #57E7FD",
"sX c #52CFEB",
"dX c #8E9590",
"fX c #8EAB92",
"gX c #B0AF8F",
"hX c #8FB2AB",
"jX c #ABB5AC",
"kX c #839DB7",
"lX c #CDBB8D",
"zX c #C8B8A5",
"xX c #AFC497",
"cX c #8EC7B7",
"vX c #AFC8AC",
"bX c #D5C697",
"nX c #CFC88E",
"mX c #E9C885",
"MX c #FDCE84",
"NX c #F4CC87",
"BX c #F9D488",
"VX c #FAD494",
"CX c #E8CD93",
"ZX c #CFCCAF",
"AX c #E9D6A7",
"SX c #F3DCA7",
"DX c #E6DABA",
"FX c #F5DCBE",
"GX c #F3E4B4",
"HX c #98B3CE",
"JX c #B5CACE",
"KX c #D0D8CF",
"LX c #E7DDC8",
"PX c #DCE2D5",
"IX c #EDE3CC",
"UX c #D7E1E9",
/* pixels */
"'._.).).).).Q.R.~.|.oX2XrXrX-X7X7X7X8X8X7X7X,X:X-X,X,X,X,XiXaXiX4XrX3XrX%X%X%X%X%X%X&X&X&X}.!.!.c.c.c.c.c.f.f.f.c.f.f.f.f.f.f.f.",
"/.).'.+X@XOX)..X|.|.`.`.;X:X6X6X8X7X7X8X6X6X8XuX8X8XuX5XrXeX4X:X2X1XXX+XOX$XOX.X~.}.}.!.!.c.x.z.z.8.w.8.8.8.8.9.9.9.;.9.9.;.;.;.",
"'.9X>XwX;X).^.^.^.^.^.9X9X,X8X8X7X7X8X8X8X5X5X5XpXpXpX5X6X:X2X2XXX3X3X3X%XOX.XQ.T.[.R.U.U.x.z.z.8.w.8.8.8.8.8.9.9.9.9.;.;.;.>.9.",
"aXtXeXqX;X@X`.^.^. X9XuX5X,X5X7X7X7X7X7X8X5X6X8XrXpXpXuXiXrX6XrX6X3X%X$XOX#X.X.X[.[.U.U.U.z.z.z.8.8.8.8.8.9.9.5.9.9.9.9.;.;.;.;.",
"sXtXiXqX>XqX0X>X>X>X:X5X5X:X7X7X7X8X8X8XuXuX5X5XuXpXiXrXpXrX6X3X3X3X%X3X1X%X$X.X#X}.[.{.!.U.x.z.8.8.8.7.9.5.5.;.;.;.;.p.;.:.;.;.",
"qXaXaXiXqXqXqX>X>X4X:X<X,X6X8X7X8XpXpXpXaXiX5X:X,X6XrX6X6X3X3X<X3X3X1X1X%X%X%X#X.X[.[.{.U.U.K.l.8.h.7.f.8.5.5.;.;.;.p.p.;.p.i.p.",
"tXaXaXtXqX0X>X>X>X,X6X3X6XrX8XpXuXpXuX5X5XeX4X4X:X1X2X<X1X$X1X1X1X$X.X$X#X#X#X}.}.[.[.[.U.U.z.l.6.5.7.7.5.4.;.;.:.:.i.:.i.:.i.i.",
"yXtXtXqX0X>XwXwXrX4X6X6X3X6X7X5X5X6X4X,X:X,X-X-X2X-X-X2X6X3X1X$X$X$X.XOX.X[.T.[.Q.U.U.U.x.l.l.h.8.6.d.5.5.d.;.-.;.;.:.i.i.i.p.p.",
"0X*X0XqX*X9X9X9X+X2X6X6X6X3X7X6X7X7X<X<X<XOX`. XOXoXoX$X<X$X X$X#X.X|.[.Q.T.U.U.H.U.K.J.l.l.d.6.d.d.d.d.d.4.:.-.p.i.i.i.i.i.i.i.",
"].*X*X].].'.`.^.`.;XwX6X1X<X<X<X<X<X$X XOXOXOXOX XOXOX X X#X|.|.|.T.R.Y.Y.L.K.K.J.l.l.l.l.l.h.6.6.6.5.5.;.4.-.-.i.:.:.i.i.i.i.i.",
"M.N.N.N.N.`.^.^.).'.>X-X-XoX X<X X X|.|.~..XOX|.|.~.|.|.|.R.[.R.R.Y.H.K.J.l.j.l.l.h.l.l.l.h.h.s.5.d.a.4.-.-.-.-.i.:.i.i.i.i.i.i.",
"A.A.A.A.N.N.].^.^.^.).).OX X X X X|.~.|.|.~.R.^.~.~.~.Y.Y.Y.Y.Y.Y.H.J.J.j.j.h.l.g.g.s.h.d.h.d.d.d.6.a.4.-.4.-.-.i.i.i.:.i.:.:.i.",
"fXfXD.fXcXM.N.^.^.^.^.~.~.~.~.~.~.|.~.|.~.^.R.P.Y.Y.P.H.H.P.H.H.J.J.J.k.j.l.g.g.s.6.s.s.a.a.a.d.d.d.a.4.-.4.-.-.-.4.-.-.:.:.:.i.",
"y fXt t t cXv.N.n.^.^.~.~.~.Y.~.~.Y.Y.Y.R.P.P.P.P.P.H.G.G.G.G.G.G.G.G.k.j.g.g.g.g.s.s.s.a.a.a.a.a.d.d.4.a.a.i.4.:.-.:.-.i.:.:.i.",
"7 xXxXt t xXcXB.v.M.I.I.Y.P.Y.P.P.P.P.P.H.H.F.P.H.H.J.G.F.G.x.k.G.k.k.k.k.g.g.s.s.s.s.a.a.a.a.a.4.a.a.4.a.a.a.a.4.-.-.=.4.:.:.-.",
"v.D.t t g t xXvXS.A.A.A.C.M.b.n.n.n.H.P.F.H.H.F.F.H.F.F.j.j.k.x.k.k.k.k.k.g.g.g.s.s.s.a.a.a.a.i.-.-.4.-.4.i.a.4.4.a.-.-.-.:.=.-.",
"v.A.xXg t M r nXnXZXAXDXZXZXcXB.v.n.n.j.F.F.j.F.G.G.F.F.n.g.k.s.x.l.s.k.j.g.g.6.6.s.s.a.a.a.a.a.i.i.-.-.i.i.i.=.4.;.4.a.i.i.-.3.",
"b.v.vXt g g i i BXVXVXVXVXCXAXKXS.b.b.q.J.F.J.j.G.F.F.F.F.g.h.h.d.x.s.k.g.g.g.6.6.6.a.a.4.a.-.i.i.-.-.:.i.i.-.=.=.;.;.4.a.i.-.5.",
"0.1.hXbXt g g r H mXVXVXBXVXCXAXZXvXv.2.j.G.l.l.F.j.0.n.j.j.0.0.6.s.g.s.g.g.g.6.6.4.4.4.4.-.i.-.i.:.:.:.i.:.-.:.*.=.=.-.;.-.;.9.",
"G.e.B.xXF g i i 9 R BXBXBXBXBXBXBXAXJXv.w.g.l.l.j.0.0.n.j.0.6.7.6.6.g.s.s.s.6.6.s.4.3.3.;.=.:.:.:.:.:.*.:.*.:.*.*.=.=.*.:.:.;.p.",
"G.w.v.xXt k i g u r A U R NXI Y NXBXAXZXC.2.8.k.g.j.0.q.0.0.6.6.3.6.6.a.a.s.s.6.s.a.4.3.3.=.;.>.*.%.=.*.*.:.*.*.:.:.:.>.=.*.=.=.",
"k.e.+.hXF k i i h u 9 u n g V z n NXmXAXJXr.8.s.0.0.0.q.0.0.0.6.3.4.4.a.a.4.4.4.a.4.6.,.,.=.:.:.%.$.*.:.*.*.*.*.>.>.>.:.*.*.=.=.",
"g.e.+.cXF k g i u h h u u 5 9 4   k Q NXAXJXr.7.6.6.0.0.0.0.0.3.3.3.-.-.3.3.3.3.3.3.,.,.,.%.=.-.%.%.*.>.*.*.*.$.@.@.:.>.*.$.$.%.",
"g.e.: hXxXS g i f u k h x n u r 2 4 Q Q NXDXkXo.<.6.3.6.6.0.6.3.,.,.=.=.=.=.=.3.=.3.,.} X.<.} | ` `  .&.#.@.$.$.#.@.@.>.@.$.$.%.",
"g.e.O.hXlXx h h u f h z b z C n g h W MXBXCXPXB.| ;.7.3.7.,.<.<.,.,.=.=.*.>.=.=.:.;.&.} ` ' ..Z.HXJXHXkX.. .@./ { { >.>.>.>.@.>.",
"6.<.O.S.lXx z g u f f f d z z k x x Z Y BXBXSXvX+.&.%.=.,.7.%.,.,.%.$.*.>.$.>.*.;.>.' Z.HXJXPXPXIXIXLXUXUXy.* ..C.=Xu... ./ @.@.",
"4.<.| kXlXx C h g f f f a d j j C C I I T BXBXIXkX' | ,.=.,.7.%.=.*.$.$.@.>.$.&.{ +.vXZXDXLXDXIXIXIXFXFXLXPXjXKXPXPXPXJXZ.( / >.",
"7.,.| Z.zXC z h g i u f f d d s j V I I T Q BXCXPXt.' #.,.,.%.%.*.$.$.#.@.$.#.[ } Z.jXlXzXzXDXLXIXFXSXNXVXVXSXAXSXFXFXLXUXHX.. .",
",.&.| t.ZXM n h g i i p f f d h k C H U U I MXVXSXZX' } #.,.%.=.&.$.#.#.@.@.] ]  .O.Z.Z...- +.dXVXMXf p a a Z VXSXSXSXGXLXUXkX% ",
"<.} } : jXm C z h h i f f f s s h x G H I I E MXNXDXhX' ` #.=.$.&.} [ #.@.@.[ ] [ _ _ *  . .% , lXq w 3 w w w C CXGXGXSXLXIXUX- ",
"&.#.&.' dXbXA x h s s p a a f h d b V V Y A Y NXNXAXZXD.=  .&.#.@.#.[ } @.{ { { @.@.) _  .% < bXA p 3 3 3 3 w g lXgXDXLXIXIXUXy.",
"&.} [  .y.vXm x k h f p a p s s j b x Y Y V W Z NXVXSXDXB.* ` { [ [ [ ] / { ] / /  .+ X t.jXAXmXR V q 3 3 8 q k lX1 gXPXIXIXUXt.",
"[ [ [ } ..jXlXC z j f p p f h f j j v S K K K G K MXVXAXKXV.- = } [ @.] ] _ ~ ~ ( X 1 dXbXVXmXE E T j q 5 w a A zX$ % Z.KXUXHX* ",
"} [ [ } ( y.bXC k d a f d f f h j j c S H G G G K E BXVXCXDXKXZ...* X X % . % - y.fXZXNXA V R E MXQ T v q p z m zX$  .+ - t.X ( ",
"@.] _ _ ] ..gXlXk v d a a p f h k k c n N H G U T V MXVXVXVXAXDXDXZXgXgXgXgXlXCXbXmXU I W T MXBXMXBXBXK x C A CXJX- ( ^ ( o ^ ( ",
"[ [ _ ) ( * y.ZXn j z a p a d z k v k c S k H U A W Z Z MXMXR NXMXNXmXmXU U V V J J J L W R R E MXMXMXT V A m bXjXX ^ / / /  .( ",
"@.] _ _ ) O % jXnXn k s a a d d s z b b v H H H T Y V L L E W W E W W L Z W Z Z L L L P P W E W MXE W T I n m bXy.% ) ~ / / ^ ! ",
"{ ] _ _ ! ) + t.xXm n k d a p p d d d b v c n H I I Y K Z L P W L P P P Z Z Z Z P P P T W L L E W T W W G m mXgX- + _ ] / ^ ! ) ",
"{ ] ^ ^ ! _ ^ X y.lXM h d a a a a a a b b x x H H I N G T K V T T P P D P Z Z W P P J J L W L Z Y Y T V G A zXV.X O _ ! ~ ) ) & ",
"] ] ~ ~ ^ ~ / ( # jXm h d a a a a a d d d v x N H H G H G I G G H J P D D L L Z D D P P W L L L Y W Y R Y CXjX. @ ) ! ! ) O O ) ",
"] ~ ^ ^ ~ ! ^ ^ X V.m z f d p d a s s j l x v B B H G H G G B K H B c J J K Z L J D D D G G J K Z MXMXmXmXzX- @ + ! ! ! ! ! ! ! ",
"] ~ ^ ^ ~ ! ^ ^ . V.M p b p z f s s l j z v c c c H G G G J Z Z J B c c B J Z Z Z Z D c c H T H V V m bXzX1 X o o o o ^ ! ! ! ! ",
") ! ^ ~ ! ! ^ ^ X y.M q p p f f f s j l b D D c Z B V Y K K D c V B c S S S c Z Z c c D K K G G V mXCXzX1 . @ o o o o o ! ! ! _ ",
"_ ~ ^ / ! o ^ ^ @ < t u w u u f s p s S S c Z J K V Y Y Y J b Z B N c S S S Z Z Z L Z B G N C G A lXgX# . @ o + o o o o ! ~ ^ _ ",
"_ ~ ^ / ~ ! ~ O + y.t 9 q 9 9 e q a d v S J D P Y K W I W L z v b B B B N B B B Z Z V V Z B v G lXt 1 X @ + o o + O o o ^ ! ~ ] ",
"] ) / { ~ ~ ~ ! ( - y r r 9 9 8 8 q s C H K H K Z K W Y R Y d z z z C C N B B B V x V V k A U lX< # @ @ + O o o O O O O O ! ~ _ ",
"{ ] / / { / ] ] / * < y r 5 5 5 3 5 9 i I A V W P K K T R R C z x x c c B H N H B B c V U lXdX$ . @ @ o O o ! + ! O & & & & ) _ ",
"{ { { @./ / { [ / ( 1 6 6 4 0 4 4 4 4 > t mXR V K P K T Q R MXV V K K B B B H N B C C F gX< . X O O + O + ) O O ! ) & & ) & _ ` ",
"[ [ @.{ { { [ [ @.[  .= - , > > > > , $ > xXU Z W W Z MXQ MXMXE I R U T N k S S m M y 6 ; % & ` _ ) ) ) ) _ _ & & & & & _ ` _ } ",
"&.&.#.>.>.@.#.[ %.%.%.[ ` = ; $ 1 - : : : y bXA W W W MXBXBXBXBXI M m t t t t y > , , ; : ` ` } | ` ` ` _ _ ` _ _ ` ` ` ` ` ` } ",
",.&.&.%.&.&.#.} #.%.%.%.&.| ' O.O.X.<.X.O.; fXCXNXMXMXMXBXmXBXBXG 0 > > , t.; : +.O.O.` O.o.X.} | | } ` ' ` ' | } ` ` ` | } } | ",
",.7.,.7.3.,.<.<.,.} <.3.9.%.7.<.,.q.0.w.e.1.+.hXbXNXmXR BXBXBXR R U y , ; O.O.X.e.e.w.e.e.1.1.<.<.X.X.o.X.| X.o.o.X.X.o.o.X.1.1.",
"7.7.7.4.6.6.7.7.e.<.<.7.3.6.g.s.h.q.w.w.z.w.2.v.hXxXNXT R R R R I U F xX7 6 b.e.w.q.b.b.b.w.b.q.e.2.2.1.1.o.o.2.1.o.o.1.2.2.1.w.",
"e.3.7.6.d.h.q.8.8.8.8.w.q.z.J.G.E.z.!.L.L.I.Y.n.v.D.xXbXbXCXNXT U mXF F vXcXv.n.n.L.n.n.L.L.I.L.b.b.m.2.2.2.o.2.r.2.2.2.2.2.2.2.",
"7.7.7.q.h.l.l.l.q.z.L.w.L.L.H.L.!.!.L.Q.Q.R.R.Q.(.N.C.C.cXxXbXnXnXF F xXvXcXM.n.I.I.I.I.I.n.W.I.W.Q.W.n.w.m.2.2.b.b.m.2.b.w.m.r.",
"8.z.z.h.z.J.U.K.L.K.L.L.L.I.R.Q.}.Q.).Q.)..X)..X}..XQ._.N.B.D.6 D.7 7 D.B.A.N.). X X`.).)./././.`.'.W.m.m.m.m.m.M.m.m.b.M.W.W.W.",
"z.z.c.L.L.L.H.U.U.T.{.Q.!.Q.Q.).T.).OXOXOX.XOXOXoXoX#X`./.N.N.N.N.N.*X*XN.(.'.'.;XoX+XXX).`.`.).@X`.).W./.W.W.m.W.m.W.(.*X_.(.(.",
"c.c.K.U.Y.R.T.R.Q.}..X.X&X&X&X.X.X).OX$X<X1X<X$X<XoXOXOXoX-X-XXX].9X@XoXOX`.>X9X;X-X;X;XXX`.OXoXXX+X_.)._._._.'._.]._.'.*X*X_._.",
"U.U.K.K.U.R.[.{..X#X#X#X%X&X%X%XOX%X<X$X$XoX$X$X$XoX;X2X<XOX-X<X0X0X@X2X:X:X>XqXqXwXrX,X:X;X-XXXXX@X@X0X>X'._._.'.'.].'.*XyX0XyX",
"U.U.U.E.T.[.}.|.#X.X#X#X%X%X%X%X%X3X3X3X%X$X1X1X3X4X2X,X6X<X-X9X:X,X3X6X4XeXuXeXrXeXeX,X4XqX>X;X+X`.`.`.@X'.'.'.'.'.0XtXtXtX0X*X",
"U.K.E.{.{.[.}.[..X.X|.#X%X%X%X%X%X1X1X1X3X3XwXrXrXiXqX5XeXpXeX,X,XeXiXaXiXiXpXpX5X5X,X,X7X-X:X:XXX+X+X;X'.>X'.>X>X'.0X0XtXtXtXtX",
"z.J.E.E.x.{.{.{.[.[.}.#X&X%X@X;X1X%X3X3X3X3XiXrXeXuXuXpXpXqXqX5X5X,X4XpXrX:X,X,X,X:X,X:X-X:X:X:X2X>X>X>X>X9X0XwXtX0XqXyXtXtXtXyX",
"z.z.x.{.{.U.R.T.R.T.{..X.X$X@X;X>XwX3X3X2X4XqXrXrXeXeXiXaXqXqXeX,X4X5X5X,X4X:X,X,X-X-X<X6X6XeX>X:XXX`.>X9X9X'.>X>X>X0X0XtXtXyX*X",
"!.!.!.{.{.R.T.T.)..X%X%X&X&X>XwX0X3X@X2X2X>X0X3XrXiXrXiXpXaXpXeX,X,X7XpXpXrXrXrX6X2X7X6X3X2XeXrXaX:X/.`.`.^.`.'.9X>X0XsXyXtXtXtX"
};
