/* XPM */
static char *_51ebbc306bb46fa9380cf70e9195427AhMhPoXOAzjkeUlt[] = {
/* columns rows colors chars-per-pixel */
"64 64 256 2 ",
"   c #625A37",
".  c #06356A",
"X  c #043679",
"o  c #14396D",
"O  c #1A3555",
"+  c #2F4A58",
"@  c #06437D",
"#  c #174878",
"$  c #184D70",
"%  c #315370",
"&  c #346573",
"*  c #465A6A",
"=  c #556670",
"-  c #6B7367",
";  c #60644C",
":  c #473F1B",
">  c #AD7B15",
",  c #94732B",
"<  c #966E1F",
"1  c #977D46",
"2  c #5F897B",
"3  c #B3892E",
"4  c #A8892D",
"5  c #C59434",
"6  c #D5AA3D",
"7  c #C3811D",
"8  c #B3924B",
"9  c #BBA95A",
"0  c #8C8F72",
"q  c #A89C6A",
"w  c #B2A970",
"e  c #988A5C",
"r  c #CA9B47",
"t  c #CDA747",
"y  c #D3AA4B",
"u  c #DBAB4C",
"i  c #D6A747",
"p  c #DAB24B",
"a  c #C8AB55",
"s  c #D9AC55",
"d  c #DCB254",
"f  c #DBB45B",
"g  c #CBB25A",
"h  c #E3AD55",
"j  c #E2B45B",
"k  c #E5BB5D",
"l  c #EBBC5C",
"z  c #E7B556",
"x  c #ECB657",
"c  c #DCB667",
"v  c #D9B877",
"b  c #CBB36E",
"n  c #EBBC64",
"m  c #E7BA66",
"M  c #F2BD63",
"N  c #F4BD69",
"B  c #E6BC72",
"V  c #ECB76D",
"C  c #F5C25C",
"Z  c #EDC059",
"A  c #DBC575",
"S  c #EDC164",
"D  c #ECC26C",
"F  c #E6C567",
"G  c #F4C364",
"H  c #F3C36B",
"J  c #FBC56B",
"K  c #F8C667",
"L  c #EDC473",
"P  c #E9C57A",
"I  c #F4C473",
"U  c #FBCB7C",
"Y  c #F7C877",
"T  c #FCD17E",
"R  c #023C84",
"E  c #023C8B",
"W  c #053787",
"Q  c #053D94",
"!  c #0C3686",
"~  c #024384",
"^  c #02438C",
"/  c #034B8A",
"(  c #0A4887",
")  c #144A84",
"_  c #0A558C",
"`  c #014494",
"'  c #03449B",
"]  c #024B9C",
"[  c #054994",
"{  c #085697",
"}  c #135996",
"|  c #195586",
" . c #285C89",
".. c #0A649D",
"X. c #17659B",
"o. c #156C97",
"O. c #316D91",
"+. c #054BA4",
"@. c #0254A3",
"#. c #025AA5",
"$. c #035CAB",
"%. c #0958A8",
"&. c #035CBC",
"*. c #065CB7",
"=. c #135EB9",
"-. c #0F55AD",
";. c #0463AC",
":. c #0967A7",
">. c #166AA4",
",. c #1776A9",
"<. c #0264B4",
"1. c #036BB4",
"2. c #0A6BB4",
"3. c #0363BB",
"4. c #026BBC",
"5. c #0B66B8",
"6. c #1469B9",
"7. c #0274BB",
"8. c #0B72BC",
"9. c #027BBB",
"0. c #0875B6",
"q. c #1977B9",
"w. c #0873AB",
"e. c #2278B1",
"r. c #4E7493",
"t. c #687B8B",
"y. c #4F7CA5",
"u. c #045AC3",
"i. c #0B5EC7",
"p. c #1B5FC0",
"a. c #0265C2",
"s. c #036CC2",
"d. c #0966C7",
"f. c #186CC3",
"g. c #0474C4",
"h. c #027BC5",
"j. c #0B7BC3",
"k. c #037BC9",
"l. c #0877C9",
"z. c #147AC7",
"x. c #0D7ED1",
"c. c #2379C6",
"v. c #1A86B7",
"b. c #1085BC",
"n. c #2389B8",
"m. c #2D93BA",
"M. c #498899",
"N. c #6E8A93",
"B. c #4B93AA",
"V. c #779AA7",
"C. c #6FA2A4",
"Z. c #0383C4",
"A. c #0383CA",
"S. c #058BCB",
"D. c #098BCB",
"F. c #0988C7",
"G. c #1688C9",
"H. c #0994C9",
"J. c #1797C9",
"K. c #0785D2",
"L. c #148BD3",
"P. c #1787D6",
"I. c #0C97D2",
"U. c #1B94DB",
"Y. c #199AD7",
"T. c #279AC8",
"R. c #229AD9",
"E. c #2990D4",
"W. c #19A5D8",
"Q. c #27A4CD",
"!. c #26A9D8",
"~. c #34ADD6",
"^. c #29B4DA",
"/. c #37B6DB",
"(. c #32A6CF",
"). c #1E97E0",
"_. c #229DE3",
"`. c #339DE9",
"'. c #1DA9E2",
"]. c #24A3E4",
"[. c #29AAE9",
"{. c #2CB3EC",
"}. c #2BBCEC",
"|. c #28B7E7",
" X c #33BDE4",
".X c #33B9E7",
"XX c #2ABBF2",
"oX c #35B9F4",
"OX c #32ACEB",
"+X c #42BDDE",
"@X c #2DC4EA",
"#X c #33C4EB",
"$X c #34CCEC",
"%X c #3BCCEC",
"&X c #39C4E6",
"*X c #37D6EC",
"=X c #2DC4F3",
"-X c #33C3F4",
";X c #34CBF4",
":X c #3ACCF4",
">X c #38C8FA",
",X c #3BD5F3",
"<X c #3CDBF4",
"1X c #38D6F8",
"2X c #2ED5F1",
"3X c #3CE1F4",
"4X c #46C9E9",
"5X c #45D6EC",
"6X c #43DBFB",
"7X c #45D8F5",
"8X c #55D8F5",
"9X c #49CDF2",
"0X c #43E2FC",
"qX c #4AE5FD",
"wX c #4AE7F9",
"eX c #57E6FD",
"rX c #52CFEB",
"tX c #8A948F",
"yX c #98A78E",
"uX c #ADB48E",
"iX c #8D9EA5",
"pX c #92AFB0",
"aX c #ADB7AD",
"sX c #A09D8E",
"dX c #CABC88",
"fX c #D6BC86",
"gX c #C9BD9C",
"hX c #CBB694",
"jX c #C7BEA6",
"kX c #B6C292",
"lX c #B0C6B1",
"zX c #9FC59C",
"xX c #D5C692",
"cX c #E9C987",
"vX c #F7CD86",
"bX c #FCD285",
"nX c #FDD38C",
"mX c #F5D384",
"MX c #EAD399",
"NX c #F9D495",
"BX c #F0CF8F",
"VX c #D2CCAE",
"CX c #E9D6AB",
"ZX c #EED9B0",
"AX c #F8E2BA",
"SX c #F2E1B3",
"DX c #F7E09D",
"FX c #95B8C9",
"GX c #B7CACD",
"HX c #99C6D7",
"JX c #D4D7CA",
"KX c #E6DDC5",
"LX c #D8E2D8",
"PX c #EDE4CA",
"IX c #D0E7EC",
"UX c #E7F2E1",
/* pixels */
"6.6.f.f.f.f.f.6.q.c.c.q.c.c.c.c.E.E.`.`.`.oXoXoXoXoX{.oX9X>X6X:XqXeXqX,X*X,X2X$X$X*X$X2X3X3X2X2X2X2X1X6X:X}.!.W.Y.W.!.!.!.!.~./.",
"6.-.5.6.5.*.6.6.6.6.,.6.6.6.q.c.z.z.x.E.P._._.'.OXOX{.{.}.}.>X>X$X,X,X6X<X0X6X3X0X0X<X2X1X2X2X2X3X1X$X#X|.!.'.!.!.[.[.}.&X.X!.!.",
"*.=.&.i.=.p.=.f.6.6.6.6.q.6.f.f.z.x.G.P.P.P.U.Y._.!.[.oX>X;X-X}.$X$X$X,X3XwXwXwX3X*X3X3X3X3X2X2X<X3X$X@X@X^.Y.W.W.W.!. X%X4X+X/.",
"d.&.&.*.p.=.p.p.=.=.6.2.2.2.6.z.z.z.z.P.P.U.U.].].[.{.|.oX-X:X1X,X,X6XqX0XwXwX0X0X*X<X0X<X2X3X2X2X1X,X<X0X@XW.!.W.^.&X&X9X7X8XeX",
"i.&.&.3.5.5.*.=.=.=.5.6.2.2.6.f.z.P.P.P.U._.].[.].{.oXoX>X>X>X>X1X6X6XqX0XqXqXwX*X5XwXwX3X3X3X2X2X*X$X1X<X;X:X#X@X9X%X4X9X8X8X8X",
"i.u.&.<.3.*.&.*.=.=.5.5.6.8.s.f.f.x.P.P.P._._.].OXoXoXoX>XoX>X>XXX;X>X1X1X0X,X2X$X<XwXwXwXwXwX3X3X2X1X,X$X$X,X$X%X7X7X5XqXeXeX5X",
"i.u.*.&.u.u.u.u.*.*.5.5.4.5.6.6.l.x.P.P.U.).).].].[.{.{.{.'.XXoX>X-XXX=X;X;X;X$X,X,X6X<X3XwX0X0X0X3X0X1X*X:X:X%X#X&X%X5XeXeX8X8X",
"i.&.&.*.u.u.u.u.&.=.i.a.d.d.3.s.d.l.x.x.P.P.P.).).)._.].{.[.XXoXXX>X>X>X>X=X}.>X=X@X>X;X1X1X1X1X3X2X1X2X,X,X%X6X%X%X4X&X5X8X8XrX",
"i.&.3.<.&.u.&.&.u.&.i.i.d.5.a.s.s.4.l.x.x.G.P.K.L.U.U.U.).'.'.{.{.XXXXXXXX=XXX}.|.|.|.XX2X2X2X1X1X2X2X1X3X*X2X@X&X X@X^.5X5X+X+X",
"-.6.} _ :.$.$.&.u.u.u.&.<.<.d.s.s.s.l.x.l.l.K.k.x.D.L.L.I.Y.).'.'.'.[.[.|.}.|.'.|.|.|.|.'.|.XX=X=X=X=X=X*X*X^.^.!.!.^.^./.+X/./.",
"r.V.pXpXM. .:.i.&.&.&.&.<.4.4.3.s.l.l.l.l.l.l.l.k.k.A.F.K.D.I.U.).W.'.'.W.'.'.!.W.'.'.'.'.'.'.|.|.XXXX}.@X#X2XQ.W.Q.^.Q.Q.Q.Q.Q.",
"r.iX0 w aXV.| %.-.u.&.&.<.1.s.d.s.d.d.s.l.s.s.k.g.k.k.k.S.K.I.L.I.K.I.I.I.I.W.Y.W.W.W.W.W.'.'.'.'.XX|.|.^.'.W.Q.Q.W.W.Q.Q.Q.J.Q.",
"& pXw w q kXC. .%.u.i.d.<.;.a.d.a.a.a.4.s.s.s.s.g.g.l.j.k.F.K.D.K.S.S.S.H.H.I.I.I.Y.Y.W.W.W.'.W.I.'.W.W.W.W.W.^.W.^.W.W.J.T.J.R.",
" .V.uX9 b 9 lXpXO. .} } o.X.:.=.&.a.d.4.4.s.s.s.s.g.g.k.k.k.A.A.A.A.S.A.Z.S.H.H.H.H.J.I.Y.I.W.I.W.W.I.W.W.W.H.H.J.J.J.H.J.G.b.b.",
"X.M.uXw 9 b q xXVXgXjXaXaXtXr.O.6.*.3.3.3.a.s.s.d.g.g.l.k.k.k.k.A.k.A.A.A.S.S.S.F.F.D.H.H.I.I.I.I.I.I.I.H.J.H.H.H.H.b.b.b.G.F.F.",
"$.o.pXdXg 9 9 9 cXvXBXMXMXVXJXGXy.>.%.6.a.4.s.s.g.g.g.l.k.k.k.k.k.k.k.h.A.S.S.Z.A.S.D.D.S.S.S.S.H.I.I.I.H.H.H.H.H.H.H.F.H.F.F.G.",
"&.} N.kX9 a a 8 V vXnXNXNXBXMXZXVXiXO.%.2.s.s.s.s.4.g.g.k.g.k.k.s.g.k.k.A.A.Z.A.K.K.A.h.K.A.A.Z.S.S.Z.H.H.F.H.S.b.H.H.D.S.F.A.S.",
"a.%.r.aXb g a 9 8 cXvXNXvXnXnXBXNXZXFXr.{ 1.s.s.g.s.g.g.g.g.g.l.g.g.k.k.A.A.Z.j.k.k.A.A.K.K.h.Z.A.A.Z.b.Z.S.S.S.b.S.S.S.Z.Z.A.K.",
"a.:.% pXb a a a r r cXvXbXnXbXvXnXBXCXaXO.>.;.4.g.s.g.s.g.s.d.s.g.g.k.k.k.k.j.9.K.A.b.Z.k.k.j.k.A.k.k.K.A.k.k.k.Z.Z.S.A.F.9.j.j.",
"3.-.| V.xXa g a s r 3 B I B L c cXnXcXCXGXO.X.2.4.s.s.s.4.4.8.4.4.g.g.l.k.h.j.8.7.9.7.9.k.k.l.h.k.k.h.g.k.A.K.A.b.Z.9.Z.j.h.j.j.",
"*.-.} N.xXb g a t r s > r 8 4 c , v vXBXZXGXO.:.<.4.a.a.s.4.<.1.7.w.7.7.9.9.7.7.7.9.9.9.g.k.g.g.g.g.7.9.Z.Z.9.h.b.9.9.j.h.h.h.j.",
"*.-.+.r.gXc a t y i s s c c 4 a : < B nXvXCXpX| :.5.a.a.a.1.;.1.1.1.0.0.9.7.7.4.1.9.9.1.g.g.7.1.w.>.>.>.w.7.9.Z.9.9.8.8.h.h.h.h.",
"*.+.+.y.xXc g t r i y s s j m t < < L T nXBXJXN.X.;.&.3.&.&.*.<.<.4.2.7.7.7.1.1.4.g.7.4.8.:...,.O.B.y.O.o.,.7.g.7.9.7.g.g.7.7.g.",
"&.+.+.r.jXc f y t r y s s s h f c s D Y T BXCXGX .%.$.<.*.*.*.&.3.5.4.4.7.4.1.1.1.2.2.>.,.M.B.HXIXIXIXIXHXB.X.>.X.o.>.,.>.:.8.g.",
"*.+.+.y.gXc j s r y r s u s u h h j V H U nXNXZXFX) -.*.@.&.*.*.<.5.3.3.s.3.<.1.<.>.O.pXJXKXPXKXPXPXPXPXPXLXV.N.GXGXGXHXr.X.;.8.",
"+.+.+. .jXB h h s r t y y i u h h x n H I bXnXZXJXt.( @.@.$.@.*.$.$.<.3.3.*.$.<.2.X.GXlXVXKXVXSXPXAXAXSXMXCXJXKXZXAXKXLXIXFXX.:.",
"+.+.+.! jXfXc h s r t i i i u u h m H D D P nXNXZXJX .[ #.#.$.#.;.;.;.;.<.$.$.$.#.X.pXaXFXN.iXGXZXAXmXD L A cXNXDXSXAXPXLXLXHX .",
"-.+.+.# sXfXv c s t t 6 i i u h u m n N L L vXnXNXZXpX .{ ] @.@.;.#.#.;.$.$.$.$.2.}  .&  .# % + 0 cXd 5 3 5 i l BXMXSXAXSXPXIXN.",
"+.+.+.! N.gXB s c s i i r i u u u s m D L L I Y vXCXZXN._ @.%.%.#.#.%.$.#.#.@.@.-.%._ _ ] _ $ - v g 7 > > 7 7 5 g cXAXAXSXPXUXlX",
"+.' Q ! % jXfXc c s i i t i y i u s j n H D D I vXNXMXKXr.) %.] #.$.@.@.#.@.@.@.@.%.%.{ _  .tXVXcXG 5 > > > 7 6 v e hXVXPXPXJXLX",
"' ' ' Q o iXfXc s h u i t t i y d d z l S S D D V vXNXCXKXt.@ ] { @.@.@.@.+.' [ #.{ ( $ N.jXCXBXY J x 5 7 > 5 f v 0 * iXJXKXLXaX",
"' Q ' Q ! t.gXv c s u i t t p y d j k l l S H I N Y nXNXMXZXpXr.# ) ) ( ( ) # # # % N.aXVXcXP U bXU J Z 5 3 u c hXtX$ | N.FXFX= ",
"Q Q ^ ` Q o jXfXc d s y t i 6 u p d f Z k n D H H L P nXNXMXCXKXaXtX= * * * - 1 uXhXxXcXB P I U bXnXbXH h u f v xXiX) ) ) | ( | ",
"' ` E ` Q o t.jXb f d t t i i u p d f m Z n n H H H Y vXmXmXBXBXMXMXCXVXVXVXxXVXP L G G I U U bXnXvXbXY n n B fXVXt.) ] { [ ` +.",
"' Q Q E Q ! o iXxXd j h y 6 u u p d j j m k n N H H I P U U T Y P mXBXcXcXY N Y J J G H U J Y U T bXT J Y m m xXGX* ) ^ [ [ ' +.",
"Q Q ^ R ( ! . r.VXb m h p t u u u u s j f k m n S G I I I I Y Y T Y J H N M K J C K J Y U J J U T T Y J B B B hXiX# ( E / ( ' +.",
"E W E ~ ~ ~ ( $ N.fXV s p p i u u u s u d z m m S n N I I N I Y H H J J K C C C C K K H J U J J I I P I P P P xXt.! ( ^ ~ / / ] ",
"E E R R X / ^ X + sXv s p i 6 u u u u u u j k m D n V N H H H V H J J J M K C C C K K H J J J G H I I L vXv xXsXo ! Q ` ~ / ^ [ ",
"! E W ^ R ^ R X O = fXh i p 6 6 6 i u u p d j f Z F H D G D H n N n N N H J J K C G K G K G G G J Y U vXP xXaX+ o ! E E ^ ^ ^ / ",
"^ R E E E E R W X % w s p u u 6 6 i u u d d k F f F S S k S G n I n m n N M G M C M C G M G H S S H U cXxXgX* . ! ! W E R ~ R / ",
"R R W E R R W X W % w r s a i u i u u h h M z n k F F L F n G l n n n k k l M M M M M M N n F H J N V fXjX* . W ! ! E W W W W Q ",
"~ R R E R W W W W + dXr r r u u u u u h x N M M D D F L D H M M n n l l Z C G G M M N N D D L F n N xXhX* . W W Q Q W E E W ! Q ",
"@ @ R X X X X X X O w r 3 5 8 r i r u z C C G M I N L L Y Y m M x k l l l l n n H N N M n k k B B fXaX* o . W W W W W W E E W ! ",
"@ @ R R X X X X X + q 3 r 3 3 3 5 6 6 p z K G M I I I L Y Y m h z x x l l l n m m n n z m D c B hXsX% o . X W W W W W W ^ E ! ! ",
"^ ~ R R X X X . . O - q 8 1 4 4 > 4 3 t F F S K N J J J H Y N h z h z l n n n n n z l S F v v uX= O o ! R ( W ! R R R R E E R ^ ",
"[ R R R X W X X . . + 0 e 1 4 , < < 4 8 9 A L K M J J H Y Y U j x x n n n V V n l l F c xXdX0 + o ) E Q E E Q W E E ~ ~ ` ` ^ ^ ",
"( ^ @ @ W X W X X X . + - 1 1 , < ,       dXcXF J J I Y vXBXT Y D I L L B c F n M n c b q = $ @ / ~ [ ` ' ' Q Q Q Q ` ` [ ` ' ] ",
"_ ( @ @ ~ R W W R R X X O O ;       - + + N.xXcXH J J U nXnXU T D P cXA v b b fXw q 0 - % $ / { [ #.[ [ +.+.Q +.' +.' [ ] ] ' +.",
"} [ ( ( @ @ @ @ / / ( @ @ # o $ $ $ # ) $ % yXxXL T Y T vXnXbXbXA 9 e e q 0 N.= & % $ $ _ _ { @.#.{ { @.{ +.+.' +.] +.] ] +.@.@.",
"} [ { / / / / / ( ( ( ( _ _ / _ _ _ { { } $ & uXxXmXU U U U vXbXT A 8   + + & $ X.;.w.......;.$.#.#.@.@.@.@.@.@.@.@.@.@.#.@.@.@.",
"} { } { _ { _ } _ _ _ _ { } _ ..........>.o._ & yXVXBXU T T bXbXL P A q ; & | ..2.1.;.:.w.:.:.:.;.;.#.$.%.$.%.@.%.$.@.$.$.%.%.%.",
">...X.X.X...X.X.o.X.} X.X.....X.:.o.:.w.0.w.v.o.& V.kXMXcXmXmXP T L A g zXzXM.w.w.7.0.2.0.w.2.2.;.;.2.;.;.$.<.$.$.;.<.;.*.;.;.2.",
"e.,.,.>.>.o.o.X.>.X.o.X.>.>.,.w.v.,.G.G.b.0.b.b.v.v.M.C.kXxXMXA A A A A xXlX(.m.q.b.j.F.z.q.9.0.0.2.2.2.2.1.2.2.2.2.2.2.2.2.5.2.",
"q.,.,.,.,.,.,.o.,.>.,.,.,.v.n.v.n.G.b.G.b.J.v.b.v.v.n.m.M.2 yXuXkXkXkXkXzXpXB.m.J.L.G.L.G.G.G.0.b.8.z.q.8.8.8.8.4.8.4.8.2.2.;.5.",
"n.,.v.v.v.v.n.n.,.,.v.v.v.T.Q.T.T.G.J.Q.J.m.Q.m.v.v.n.v.m.m.B.M.M.M.M.B.B.m.T.R.R.R.U.R.R.T.J.U.G.P.P.G.G.j.j.j.j.j.j.g.8.2.2.6.",
"m.T.T.n.n.n.n.n.n.n.v.m.G.Q.~.~.!.Q.(.Q.^.^.~.Q.^.~.W.J.!.T.T.T.Q.m.Q.^.R.!.~.].`.[.].].].R.R.R.R.R.R.G.G.L.G.L.F.G.G.z.j.8.z.8.",
"(.(.~.+X(.Q.m.m.m.T.T.Q.Q.Q./..X!./.[.~..X.X#X#X}.|.^.|.OX!.W.Q.Q.^.!.W.|.|.|. XoX{.[.{.{.[.]._.`._.).U.).).).L.L.L.L.K.P.P.z.z.",
"+X(.+X+X~.~.~.~.~.~.~.~.~.^..X^..X|.|..X#X@X@X@X@X#X X/. X X X^.^.&X-XXX|.|.}.}.oX=XXX-XXXXX[.[.].[.[.OX].[.)._.U.U.).L.P.z.G.z.",
"rX+XrX+X/.~./././.~./.&X&X&X X X|.#X$X$X*X*X,X,X5X4X+X*X&X#X-X>X*X@X|.XX>X-X#X}.|.XXXXXXXX=X{.[.oXoX[.OX{.oX[._.U.).U.L.G.P.P.P.",
"+X+X8X8X8X4X/.^./.~./. X.X^.^. X}.,X<X*X*X<X7X7X8X5X5X5X%X5X>X-X@X@X=X1X1X>X1X:X@X@X}.=X=X>X>X-X>XoXoXoX[.[.[.[.'._.).U.P.P.c.P.",
"8XrX8X8X4X4X+X+X&X X X/. X&X X}.:X%X$X$X*X,X,X<XqXwXwXwXwXwX7X,X#X6XwXwX6X6X6X6X<X5X:X#X-X;X=X=X{.oXoXoXOX].].[.].).).).L.P.x.P.",
"rX8XeXeXrX5X5X8X9X&X&X&X&X&X%X%X#X$X$X&X$X2X;X1X,X$X*X5XwX5X5X,X7X5X5XwXqXwX6X6XqX8X7X:X>X>X>XoX-XoXoXOX{.]._.).).P.x.P.P.x.x.x.",
"+XrX8X8X4X&X&X%X&X/.^.&X&X^. X%X,X5X5X$X$X=X=X;X$X*X*X*X<X<X1X1X6X*X3XwXwX5X5X0X6X>X>X>X>X>X>XoX#XoX{.[.).).).).).).P.P.x.x.x.x.",
"8XrX8XrX5X4X&X X/.^.!.^.^.^.#XeX7X,X;X;X1X;X1X1X0X3X5XeX0X1X;X1X0XeXeXeXwX5XwX5X:X>X>X>XoX>X>X9X9XoX{..XOXoX]._.).).).P.`.).P.E."
};
