/* XPM */
static char *d58366caf2bd40b6fa978c0a20248f841kPvW9x6XUna9bMG[] = {
/* columns rows colors chars-per-pixel */
"64 64 254 2 ",
"   c #041F3B",
".  c #0A233D",
"X  c #2E2F36",
"o  c #743319",
"O  c #4A3837",
"+  c #6B3927",
"@  c #743C26",
"#  c #7F411D",
"$  c #554337",
"%  c #7A4428",
"&  c #6E4A32",
"*  c #072D50",
"=  c #022A58",
"-  c #182D52",
";  c #303C4D",
":  c #012D67",
">  c #033469",
",  c #043878",
"<  c #4B3E44",
"1  c #324952",
"2  c #0B456A",
"3  c #0A4877",
"4  c #154C72",
"5  c #145677",
"6  c #2F556E",
"7  c #1B6377",
"8  c #37686D",
"9  c #4D4A4F",
"0  c #70574C",
"q  c #796955",
"w  c #545768",
"e  c #4D6B6F",
"r  c #70736D",
"t  c #873A19",
"y  c #843C27",
"u  c #87451C",
"i  c #974C1D",
"p  c #AB571C",
"a  c #854926",
"s  c #974A26",
"d  c #8B532B",
"f  c #995629",
"g  c #8D4C34",
"h  c #885534",
"j  c #975936",
"k  c #A9552E",
"l  c #A65A29",
"z  c #84613B",
"x  c #986539",
"c  c #AB642B",
"v  c #B5672B",
"b  c #A76839",
"n  c #B56934",
"m  c #A9723B",
"M  c #B8753A",
"N  c #C7722A",
"B  c #C67938",
"V  c #905949",
"C  c #A95B49",
"Z  c #996947",
"A  c #916D4F",
"S  c #9A7757",
"D  c #A76945",
"F  c #B1684C",
"G  c #A77648",
"H  c #B67944",
"J  c #A77956",
"K  c #B87957",
"L  c #8E736C",
"P  c #A97966",
"I  c #A97A6B",
"U  c #C47B49",
"Y  c #72837D",
"T  c #D0833A",
"R  c #9F855C",
"E  c #BA844B",
"W  c #A98459",
"Q  c #B88757",
"!  c #B78D57",
"~  c #978A71",
"^  c #A78868",
"/  c #B68867",
"(  c #BA9669",
")  c #A68877",
"_  c #B28D74",
"`  c #AA9778",
"'  c #B79876",
"]  c #BBA278",
"[  c #C78748",
"{  c #D48A45",
"}  c #D28F4F",
"|  c #C58957",
" . c #C99559",
".. c #D59859",
"X. c #E49A52",
"o. c #DCA35C",
"O. c #C58A67",
"+. c #CA8D69",
"@. c #C69967",
"#. c #D79A66",
"$. c #C69876",
"%. c #D49B74",
"&. c #E59C65",
"*. c #CBA26C",
"=. c #D9A66A",
"-. c #C9A579",
";. c #D7A977",
":. c #CEB07D",
">. c #DAB27A",
",. c #E3A869",
"<. c #E6AC77",
"1. c #E7B57A",
"2. c #F0B772",
"3. c #033985",
"4. c #023C8A",
"5. c #05458B",
"6. c #105788",
"7. c #024493",
"8. c #064899",
"9. c #014B9C",
"0. c #075398",
"q. c #196888",
"w. c #196F93",
"e. c #1C7A99",
"r. c #2E738B",
"t. c #217996",
"y. c #0750A4",
"u. c #0356A8",
"i. c #065AB7",
"p. c #045BBC",
"a. c #0562AC",
"s. c #1567A6",
"d. c #1C7AA5",
"f. c #0866B6",
"g. c #1468BA",
"h. c #0675BB",
"j. c #1776B7",
"k. c #616F8C",
"l. c #075DC1",
"z. c #057BC3",
"x. c #147CC7",
"c. c #107FD0",
"v. c #1E839E",
"b. c #25879C",
"n. c #348B9C",
"m. c #1D85A8",
"M. c #1685B8",
"N. c #2689A6",
"B. c #2A96AB",
"V. c #2D94B1",
"C. c #2997B7",
"Z. c #31A1B6",
"A. c #34A6B8",
"S. c #518693",
"D. c #5C969F",
"F. c #0787C7",
"G. c #1586CB",
"H. c #0B93C5",
"J. c #169AC9",
"K. c #1488D6",
"L. c #1996DB",
"P. c #299ACD",
"I. c #1BA5CF",
"U. c #19A5D5",
"Y. c #28A4CB",
"T. c #35A7C9",
"R. c #28A9D8",
"E. c #36ABD6",
"W. c #29B3DE",
"Q. c #35B5D9",
"!. c #1C98E3",
"~. c #21A1E3",
"^. c #28A8E6",
"/. c #32AAE4",
"(. c #2CB8E5",
"). c #35BAE7",
"_. c #43BAD7",
"`. c #46BBE0",
"'. c #3EC1DC",
"]. c #2BCAEF",
"[. c #37C7E9",
"{. c #38D4EE",
"}. c #35CDF2",
"|. c #2CD5F4",
" X c #37D7F5",
".X c #3DE2F6",
"XX c #45CBEA",
"oX c #47D4EB",
"OX c #54D3ED",
"+X c #44D7F4",
"@X c #47E4F4",
"#X c #58E7F6",
"$X c #959188",
"%X c #A89B84",
"&X c #AC918A",
"*X c #B89884",
"=X c #B9A586",
"-X c #B2AA94",
";X c #B5AA95",
":X c #9BA4A2",
">X c #B6B4A8",
",X c #C59A83",
"<X c #D29C81",
"1X c #C6A988",
"2X c #D6AA86",
"3X c #C9B28B",
"4X c #D8B688",
"5X c #C9AB93",
"6X c #CAB697",
"7X c #D7BA96",
"8X c #EAB484",
"9X c #E7B987",
"0X c #E7BD95",
"qX c #C8BBA8",
"wX c #D6BCA7",
"eX c #E2BEA0",
"rX c #DBC299",
"tX c #EBC28B",
"yX c #F3C68A",
"uX c #E9C797",
"iX c #F4CA97",
"pX c #F7D29B",
"aX c #CBC2AB",
"sX c #D9C6A9",
"dX c #CAC6B8",
"fX c #D5CBB8",
"gX c #DDD3BB",
"hX c #E7CBA6",
"jX c #ECCDA9",
"kX c #EAD3AA",
"lX c #F5D5A8",
"zX c #E8D6B7",
"xX c #F4DBB3",
"cX c #F6DBB6",
"vX c #EFE1BE",
"bX c #F7E2BA",
"nX c #CCD1CF",
"mX c #D9D5C6",
"MX c #D7DBD5",
"NX c #E6DBC5",
"BX c #F3DDC1",
"VX c #DBE2DB",
"CX c #EAE2C9",
"ZX c #F4E3C3",
"AX c #F8E8C8",
"SX c #E8E7D8",
"DX c #F5ECD6",
"FX c #FAF3DD",
"GX c #D1DDE3",
"HX c #D8E5E9",
"JX c #E7ECE5",
"KX c #EAF2EF",
"LX c #F6F4E5",
"PX c #F5FBF9",
/* pixels */
"R.^.R.W.U.U.U.J.~.^.].[.{.].].].|.|..X|.|.|.|.].].].|.{. X#X#X+X[.[.[.[.R././.R.R./.P.!.!.L.G.j.j.j.g.j.g.g.g.g.g.g.g.g.g.g.l.g.",
"R.R.[.Q.W.W.^.U.U.U.U.(.].{.{..X|.|.|.|..X.X.X.X.X@X+X X{.}.[.(.}.).(.S.Z D.P.~.L.0 P k.x.x.x.l.j.g.g.g.g.g.g.g.g.g.g.i.l.l.i.g.",
"'.Q.+X[.(.W.I.J.U.U.(.[.].{..X.X|..X.X.X.X|..X.X#X@X@X{.{.T.Y D.W.).).0 N %.k.r.9 s +.,Xr.s.r.g L s.g.j.g.i.g.g.g.g.g.g.g.i.i.i.",
"#X#XoX{.[.(.W.^.(.W.].@X{.|.|.|.|.{.|..X.X{.{..XoX@X@XoXoXq { =.$Xr.w u { 8XK k t H 8X0XI j t p K r s.g.g.g.i.g.g.g.l.l.l.i.i.l.",
"XX#X#X+X{.+X}.).}.}. X}.{.|.|.|..X.X{.@X@X@X{.{.Y D.'.{.D.d T 2.;.k o i <.BX8XC a U 1.lX%.C i N 8XI k.i.i.i.g.i.i.g.i.l.i.i.l.l.",
"OX#X#X+X+X+X+X[.}.}.}.|. X.X.X.X@X@X@X@X@X+X{.D.v ,.` q + f o.yXiXU s H NXKXLXiX2X<X7XzX8X} H [ 0X8X,Xw 9 w s.i.i.i.i.p.l.l.i.l.",
"OX#X#X+XXX[.[.[.}.}.}. X X@X.X.X@X.XoX_.oX{.[.e M X.2.T u p >.vXDXcX4XwX$.n wXPXKX5Xk I jX0X;.7XlXjX<XU k B k.y.i.i.l.p.i.l.l.l.",
"OXOXOXXX[.XXXXXX+X+X X X X|. X{.|.{.r v ` S.w y M 2.pX2.B v >.=.2XFXKXfXk X.<X5X1XD B 8X2XeX-.b F jXjXK v U I 4.i.i.i.p.l.i.l.l.",
"`.XXoX[.Q.[.W.[.).}.}. X X}.}. X].[.x T X.#.c u n uXZXlX,. .E N 1.%.Q g k { 2XK k D B 2X2XqXy l #.%.cX8X} &.8Xk.y.i.p.p.p.p.p.l.",
"Q.Q.Q.Q.W.Q.Y.Q.(.).+X].].(.(.].].Y.d N 2.2.{ n M 2XB 8XuXQ c } 0X0X| k v hXBX<.+.M ..iX8X+.n v %.%.wXNXjXjX0X8Xk.y.p.p.p.p.p.l.",
"Y.Y.Y.Y.I.I.I.I.R.).[.].].k.S.P.r.& i [ yXbX2...@.M N 2.| l n #.cXcX4X$.1XJXPXLXSXmXsXZXjX%.n [ 8X9X,XP C J eXeX<XL i.l.p.p.p.l.",
"P.J.Y.I.I.Y.I.I.U.U.U.W.t.p } ..M l p { tX4XjXhXE c X.yX9XU m >.LXLXFXJXSXKXPXPXPXJX%.%.8X8X..=.lXlX0XU B +.5XcX8XU k.y.p.p.p.l.",
"J.J.P.J.I.I.I.I.U.U.U.U.r.N B X.X.[ [ | M N ,. .i v =.bXZX&.T >.uXxXLXKXMX5X$.mXNX1XK K %.<X+.H +.uX0X+.U ..<XCXeX%.L 9.p.p.p.p.",
"h.M.H.H.H.J.J.J.I.H.U.U.r.k X.yXpX2.=.-.v { yXyX} l 4XAXAXpX=.{ [ %.hX2XQ s C / / Z f F K / V P $.2XbX9X9X8X%.5XBXeXL 7.9.p.p.p.",
"F.F.G.M.H.H.H.H.H.M.J.M.9 p ..pXhXzX7Xm c o.lXDX>.T =.=.<.9X[ k p U K Z @ b tX4XV o x 8X%.L @ t P I zXlXjXBX8X%.,XfXL 7.y.p.p.p.",
"G.G.F.F.M.H.H.M.8 q q % i f  .| p { E v M *.DXLXbX9X} n C %.F t n uXzXC @ 3XAXDX%.D 3XxXZXI y H <.O.wX/ I <XjX0XK &XI 4.y.y.p.y.",
"F.F.F.F.K.H.H.F.s B T N p M @.c T 2.tX} [ >.>.o.uX .l s B <.V o @.AXFXxX7XhX2.pXxXjX4X2.pX0X .0XAX2X) V S _ AXeX%.$.+.q.y.u.i.i.",
"z.z.z.F.F.F.F.h.d M X.yX,.*.3Xm { yXDXkX>.4XH k | K @ s jXFX4XB ..yXAXpX1.4XZXFXbXiX;.lXAX8X&.=.iX0XI t D I wXzX2X$.9XL 8.i.i.g.",
"z.z.F.F.z.F.F.h.& c 9XCXCXaXG c *.vXDXDXhX[ f k ..@.a b hXZXpX..B hXLXFXCXCXxXbXFXPXNX9XlXiX#.8XcXpX0X&.8X+.,XwXjX2XjX+.w y.u.f.",
"z.z.z.F.z.F.M.h.& c 7XH v T c H 1X7X .;. .l o #.bXAX;.T ,.DXbX#.T 1.bXAXKXJXDXLXPXPXNX0XbXyX<.2XuXlX9XiXjXeXP 5X%.$.fX%.w 9.u.i.",
"z.z.z.z.z.M.s.9 f c ] p X.yX4X@.7X/ f l n y u 2XpXbX1.M #.cXAXyXT =.bXDXLXKXzX8XAXPXSX#.8X8X&.#.tXiXiX2XiXiXK &X&X<XgXeXw 4.i.i.",
"z.z.h.z.s.& c c p ! 1XM ..vXJXzXsXD s T uX*.[ ..kXLXbXo.} iXDXiX{ o.2.lXxXuX#.X.9XuX%.U 8X<X<XU %.8X0XuXxXlX8X' ) 2X,XwX6 4.y.u.",
"h.h.h.h.8 M T T { *.1Xm >.CXNX7XE a x kXAXbX=.T tXbXAX,.T 1.iXlX} n { yX2XF B %.0XK f K 8XK F n %.%.iX2X9XiXpXpX2XsX,XI 4 4.9.i.",
"h.h.h.h.6 c T 2.sXaXG m 3X-.U H s o m uXpXAX1...1.bXDXpX[ T #.0XK s  .7X7XD F g *X2Xb D I ,XA J 2XK <X;.0XxXxXjX0XzX<X<Xw 4.9.y.",
"f.h.f.h.a.%  .rX( v H ! 3X! a k H x | >.vXFXxXo.o.2.yXuXM k %.hX,Xj s C ' V @ k O.I + u O.I P Z &XK K F I eXNXjX$.NX7X5XL 3.4.y.",
"f.f.f.f.a.& m ' l } >.4XaX! s o.AXsX=.o.kXDXFX9X[ [ ..hXF j j C _ & t #.2XS h 8XlX2Xj  .lX_ 0 h P I ^ I K 5XjX0XI 5XfXmX&X, 4.y.",
"f.a.a.f.0.j b ^ c :.CXMX6Xm m uXlXvX=.=.rXuXcX9Xn l / $.1X@ t } $.g m tXAX9X..hXZXcX,.8XcXiX$.4XjXA V V O.$.eXeX/ ) *XwX,X: 4.y.",
"a.a.a.0.$ f E 3XE rXgX:.m % d >.kXLXkX .=...#.2Xf s y C Z + b tXxX=.} hXAX9X{ ;.lXpX..#.iXiX8X1.BX<XL I I K &X,XeXI qXqX) , 4.y.",
"u.a.0.g p p ! 6XG =X( j t u H :.kXAXSXrX .M Q 5XK + a ,.uX[ | jXcX<.B ,.lX8XN =.yXyXU { 8X8X#.o.lXiXiXlXI I &X,XBX2XmX,XV : 4.8.",
"u.u.4 b v [ 1X' G -.^ t E 7X:.*.rXkXkX>.v f g C Z + m uXbX,.B >.lX,.v ,.lXpXB 2XlXcX&.#.pXpX} ,.0X<.,.9XO.&X;XwXBX0XgX&X9 , 3.8.",
"u.u.6.h M 1X_ l ( rX-Xx tXvXrX:.:.:.} :.x x y | hXE [ 7XcX<.n ..iXiX{ 2XcXAX&.4XzXAX0X8XlXcX<.9XlX&.X.2.8X2XI 5XBX<XfX,XL : 3.4.",
"u.0.0.< c ( f E 6XfX] x 4XkXCXrX:.! M ( Z + a 1.cX1.v  .iXlXU #.lXZX,.=.jXZX,.;.tXcXlX8X0XiX%.8XAX8X<.2.&.jX2X,XNX,X,X5XL : 3.4.",
"y.y.0., u G f -.nXaXG # ! gXCXmX3Xm V y j # f 7XcXtXv [ uXAX1...hXcX%.U yXAXuX4XNXAXZXuXzXcX;.1.iX<.8XpX&.9X9X/ ,X5XI =XL : 3.3.",
"9.8.8.4 d G Z 1XdXm o x *.4XfX7X .f a f o.} n | uXxX=.[ uXCX0XM >.lX0X .zXDXbX>.hXDXlX9XzXAX9XkXcX<.,.lX8XiX2X&X;X7X;X,Xw : , 3.",
"9.7.0.1 b ( =X' ` % i =X:.:.-.E Q x + x 9X4Xv k 9XcXzXU @.uXkX .7XAXcX;.4XSXiX} >.ZX0X#.uXcX8X1.DXiXhXyX8XcX$.$XqX0X6XK ; : , 3.",
"7.8.5.% p H ` M ` % ] aXrXrX6Xb V o @ b 4XkX[ c -.zXzX[ | zXAXrX;.NXlX@...kXpX} 9XcXlX=.hXcX2X&.cX0XxXbX8XiX0X$.wX2X5Xj . : , 3.",
"7.7.3 b c W ^ ( aX^ aXmXgXfX3Xx + v m c | 4XhX .H rXcXrX .sXDXtX| 4XlX|  .zXbX=.7XNXcX>.kXZX<.uXlX<.9XcXlXlX8X;.' _ _ A - : , 3.",
"7.7., V K ' f E aX` *XmXMXdX( d %  .} l l *.kX;.M 7XZXvX=.*.zXtXB 4XZX>. .jXZX>.7XkXBX9XsXxX8X4XAX<.uXyXlXbX8X+.) S G L = : : , ",
"7.7.5.; f W f ] aXS d ;XqX( m & + @.4X[ c O.rXzX*.@.mXCX .E uXvX .-.zX9X| rXvXkXmXNXLXNXNXZX9X9XcX9XjXyXuXxX1.J 5X^ / 0 = : , , ",
"7.4.3.3.O x f =X=X# G 3X3XZ h o u G ;.>.| m 4XkX4X| 3XxXrXE rXCX#.[ hXkX[ sXDXSXmXSXJXNXgXDXiXkXBXiXlXiXjXiX>.$.2X' P < = : : 3.",
"3.4.3.3.; g G ` ^ @ _ aX7X` + i n l E :.:.E @.zXrXm  .gXzXE ( kXrX[ gXSX*.rXCXSXmXgXDXNXsXZX,.4XvXtXzXlXZXxX1.%./ Q g . = > > , ",
"4.3.3.3.; g J S ~ % 6XaXaX=Xa E H c c -.7X:.! 6XkX*.E rXvX*. .gXSX*.sXCX=.3XSXJXMXVXKXHXMXSXuX7XZX1.kXbXCXlX,.G J G +   : : > , ",
"4.3.3.3.9 b b G ' ~ 1XaXaX/ h Z *.M M H >.rX| Q rXrXE ] gXgX@.gXCX>.4XSXrX:.JXKXHXVXKXKXmXSX7XsXSXkXzXkXCXtX..S Z x O   = > > 3.",
"4.3.4.4.; J W Z G -XS ] ] x & d ] *.E H ' fX@.M ] kX] *.NXCX*.:.SXsX:.VXgX*.gXSXGXVXJXHXmXzX;.7XkXsXCXCXZXtX| ^ Z j X = : : , , ",
"4.4.4.4.3.< j Z W -X% ^ ` & + i m ( *.*.E 3X3X@.! sXgX .6XCXrX:.VXmX! gXgX! sXVXGXGXKXHXnXCX4XrXrXsXsXSXCXuX| W Z +   = : : > 3.",
"4.4.7.4.4., O % x %X& / =X~ % c p m ] :.E M 6X3X! 3XgX] ] MXgX( fXmX( aXCX( fXKXGXHXKXHXmXgX*.sXkXmXzXgXCX=.b x x X * = = > , 3 ",
"9.7.7.7.4.4.> @ S S & / =X;Xx ! H c E ;X( E @.rX3X! gXgX( gXnX] aXVX3XrXJX! rXVXGXGXKXGXdXrX-.fX7XmXgXgXmX( z j $ * * > > > , 5.",
"9.9.8.8.8.8.5.& x S ` ~ -X` h h W M E ( 3X*.! 3X6X] aXnX=X3XVXaX-.VXaX( VX( ] gXdXnXVXnX-.[ G @./ 5XaXfXsXD d O   * = = > , , 3 ",
"9.9.9.9.9.9.7.9 Z S Z %Xq %X0 % z ! ! E ! 3X] ! aXaX] gXdX] VXMX! dX6Xm :.E m :.nXGXHXnXqX%.' 3X=X1X' dXW & X . * * > > > > 3 0.",
"y.y.u.u.y.y.9.5.; % d ` 0 ` :XV m p ! ( m ] 6X] 3XaX-XaXGX=X-XmXG ! :.l ] ( m rX;XqXsX^ H s f d k / _ 1X& X . * * 2 > > 2 3 3 5.",
"u.u.u.u.u.u.u.0.0.- h A q A ` ` x m m (  .! 3XaX] aXdX-XaX] m :.` m >Xf G m o v f H [ f n f J G J V S 0 . * * > 2 2 2 3 3 3 6.0.",
"a.a.a.i.a.a.a.u.0.0.9 x A ~ ~ ~ q & G ! ! ] ] >XdX>XdX] ! >XR ` W # c u u m d ( ( ` sX/ qX/ 6X( 3X;X& . * 2 2 2 2 2 2 3 5.6.6.w.",
"f.f.f.f.h.a.a.a.a.u.6.9 d d S q %XY m R ! ] >X-XnX-X` >XG R # # x a W ^ G qXx ] ' W 3XJ -.G :.] 6X~ * - 2 2 2 5 5 3 5 6.6.q.s.e.",
"f.f.f.f.h.h.h.f.g.s.a.6.2 & h q z A z z R ] -XaX-X%XR G # # c q ] W W ] f ] f ( ] ' fX=XfX3XfXaXmX8 2 4 5 5 3 3 5 5 6.6.w.w.w.s.",
"f.f.h.f.h.h.h.z.h.j.j.j.e.6.1 z & m & Y q R -X>X:X! # d R m R m R W x ` G >X` >XdX;XMX;XgX;XdXfX:X1 5 5 5 5 5 5 5 q.q.w.w.s.d.d.",
"h.z.x.x.x.G.G.G.G.F.F.h.j.j.w.6 1 $ # + & # & ~ :XY x R m R m ` m =XR >X` ;X;X] qX;XdX-XaX=X;X;X6 7 q.q.7 5 7 q.q.w.w.e.d.V.m.M.",
"x.x.c.K.G.K.K.F.J.G.L.G.G.j.M.d.w.q.4 1 1 X ; X 1 1 z m R ] ` ] ` -X` -X] ` -X` >XR >XR ( R ] Y 5 r.q.q.q.q.q.w.e.e.d.V.T.T.P.T.",
"x.c.G.K.K.L.L.!.~.L.!.~.P.P.G.C.j.m.d.t.t.t.w.q.7 b.7 e %X] -X` -X` -X` -XR ` x ` R ( R ! ] -X7 q.t.t.t.t.t.t.N.N.N.V.A.T.T.E.T.",
"c.G.K.K.L.L.!.!.~.^./././.P.E.P.M.C.C.M.N.d.d.d.b.b.b.7 8 Y ! R ` G ` ~ -XR -X~ -X` ] ` ` -X8 7 e.b.t.N.n.V.N.N.V.C.P.T.D.`.`.`.",
"K.K.K.K.!.!.!.!./.^.^./././.E.E.P.Y.C.C.m.m.m.m.B.B.B.B.b.7 r R R ` -X~ >X~ >XR -X~ ` ` ` Y 7 b.e.v.t.n.N.N.N.C.C.T._.`.OXOX`.`.",
"x.K.K.K.!.!.!.~.^.~.~.^././././.Q.T.A.C.H.Z.B.B.B.B.B.A.A.B.b.8 Y ` ~ ` %X` -X~ :X%X` ~ e 7 v.b.v.v.v.N.m.B.Z.A.A.T.Q.`.OXOXOXOX",
"x.c.K.K.K.K.L.!.!.~.^.(./.)././.I.Y.Y.Y.A.A.A.A.B.B.B.A.B.B.n.b.b.8 Y ~ Y ~ ` Y ~ ~ Y 8 7 w.b.b.N.N.N.N.B.C.Z.T._.`.).XXOXOXOXOX",
"c.c.K.K.K.L.!.!.!.!.~.~.^.)./.(.W.Q.Q.W.I.A.A.A.A.A.B.A.A.B.B.B.B.b.7 8 8 8 8 8 8 8 7 7 b.b.b.b.b.v.B.m.B.C.A.T.'.Q.`.XXOXOXOX`.",
"c.K.K.K.K.L.L.L.L.^.^.^.^.^.).).[.'.I.I.A.I.A.A.A.A.A.A.A.A.A.B.B.b.b.n.n.b.7 r.q.q.v.v.b.b.B.n.Z.v.v.m.m.M.C.Y.T.Q.).).OXOXOXOX"
};
