/* XPM */
static char *_b65744e0773478485bcddd700026ecanYUJ42PXZuxJej1y[] = {
/* columns rows colors chars-per-pixel */
"64 64 153 2 ",
"   c #AF7B30",
".  c #BA853A",
"X  c #BD8A3E",
"o  c #BE8D41",
"O  c #C38E42",
"+  c #C59246",
"@  c #C99346",
"#  c #C69449",
"$  c #CB964A",
"%  c #CE994D",
"&  c #D19C4E",
"*  c #C89651",
"=  c #CE9C51",
"-  c #CD9E58",
";  c #D29D52",
":  c #D89D57",
">  c #D19F5A",
",  c #D99F59",
"<  c #D5A155",
"1  c #D9A456",
"2  c #D6A45A",
"3  c #DAA55A",
"4  c #DCA95D",
"5  c #E1AC5D",
"6  c #E3B05F",
"7  c #EBB15F",
"8  c #D7A560",
"9  c #D7AA65",
"0  c #DDAC62",
"q  c #DEAD68",
"w  c #DEB166",
"e  c #DDB16B",
"r  c #E1AE63",
"t  c #E3AE68",
"y  c #E4B165",
"u  c #E9B465",
"i  c #E9B866",
"p  c #E5B46A",
"a  c #E9B66B",
"s  c #E7B86C",
"d  c #EBBA6D",
"f  c #F0B664",
"g  c #F0B967",
"h  c #F3BD6C",
"j  c #E3B671",
"k  c #E9B770",
"l  c #E5B972",
"z  c #ECBD73",
"x  c #EBBF79",
"c  c #F1BF73",
"v  c #EFC06E",
"b  c #F3C06F",
"n  c #F8C16F",
"m  c #EEC075",
"M  c #EEC27B",
"N  c #F3C275",
"B  c #F9C575",
"V  c #F9C977",
"C  c #F3C57C",
"Z  c #F9C77A",
"A  c #F5C97D",
"S  c #FAC97D",
"D  c #EEC681",
"F  c #F3C680",
"G  c #F5CA83",
"H  c #F8CE84",
"J  c #FBCF85",
"K  c #FBCF86",
"L  c #FACC84",
"P  c #FDCF84",
"I  c #FDCE86",
"U  c #FACD84",
"Y  c #F7CF89",
"T  c #F6CF8C",
"R  c #F6CE89",
"E  c #F8CD88",
"W  c #F9CE89",
"Q  c #F9CE8A",
"!  c #FACF8A",
"~  c #FCCF8B",
"^  c #F8CF8D",
"/  c #F9CE89",
"(  c #FBD282",
")  c #FED083",
"_  c #FBD185",
"`  c #FBD187",
"'  c #FAD086",
"]  c #FED085",
"[  c #FDD186",
"{  c #FCD087",
"}  c #FFD186",
"|  c #FDD186",
" . c #FDD485",
".. c #FFD687",
"X. c #FDD186",
"o. c #F7D08F",
"O. c #F7D18D",
"+. c #F9D189",
"@. c #FBD189",
"#. c #FAD388",
"$. c #F8D08A",
"%. c #F9D18B",
"&. c #FBD08B",
"*. c #FBD38B",
"=. c #FDD188",
"-. c #FFD388",
";. c #FED289",
":. c #FDD18A",
">. c #FED28B",
",. c #FFD489",
"<. c #FFD788",
"1. c #FCD58A",
"2. c #FED48A",
"3. c #FFD58A",
"4. c #F9D18C",
"5. c #FAD28D",
"6. c #FBD38D",
"7. c #F8D18E",
"8. c #FBD38E",
"9. c #FCD18C",
"0. c #FFD38C",
"q. c #FFD58C",
"w. c #FFD68C",
"e. c #FCD48E",
"r. c #FCD48F",
"t. c #FFD58E",
"y. c #FCD48C",
"u. c #FCD28C",
"i. c #FFD88D",
"p. c #FFD88E",
"a. c #FFD98E",
"s. c #F8D190",
"d. c #F9D291",
"f. c #FAD390",
"g. c #F8D293",
"h. c #FBD491",
"j. c #FBD493",
"k. c #FED690",
"l. c #FED691",
"z. c #FCD592",
"x. c #FED593",
"c. c #FFD792",
"v. c #FBD395",
"b. c #FBD596",
"n. c #FCD594",
"m. c #FDD695",
"M. c #FCD697",
"N. c #FED592",
"B. c #FFD893",
"V. c #FFD994",
"C. c #FFDC97",
"Z. c #FFD991",
"A. c #FFD998",
/* pixels */
"d c r 4 r t t t k t : = < 5 5 d y.9.7.y.F M S A N C V A c C a 0 u a c z G T A.A.b.b.v.h.k.p.<.( G  .' 2.p.p.2.G ) S S S h g g 7 ",
"a u r r t r 8 t t t : @ ; 3 u B 2.7.+.+.C m C C A S N N a a a p t a z c N E V.m.b.v.b.h.k.p.<. .( { H R ( G G M ) P ) S B n g 7 ",
"c a u p t 5 0 t t t , ; < 1 5 N >.7.+.7.D m C M Z Z Z Z k p t r r r a k M 9.V.m.v.g.T T +.1.' ( ) { { { { ' I A  .) S S B n h f ",
"h r r r 8 8 t t r r r r 3 1 3 h >.k.9.7.$.F D M C x C A z p r 8 4 t t l l +.k.h.m.b.m.f.y.y.' S A P H { >.{ >.H 2.{ S S B n n g ",
"a a k a r t t r 4 2 3 r u 3 3 B ~ 9.~ ~ ~ F G C G x c c c t r r 4 r 0 p a J x.f.v.m.m.m.7.1.' H A ) L I >.J >.H { ) S B V B B B ",
"c C x a t a a r 0 3 4 y u 5 < d ~ v.E ~ 7.E L F L C x z k a t 8 r t y s l A 7.k.~ s.f.O.7.+.( A ) { J I J J y. .S S A A V B n n ",
"a z k p t k a a r 4 y 5 y 6 & 4 G v.9.~ 9.~ E E F x Z z z t t : 5 4 t y a M E k.7.x.v.f.y.9.{ { P P S S G L I { H S A V V B h b ",
"N A N z c a p r < 3 6 1 4 y 1 0 F x.9.x.k.E G G L Z F z k t r > : ; 3 0 a d G 9.x.f.f.~ $.+.{ H { { S H I G P S S S V N S V n B ",
"G k z x c c p u r < 5 4 < < r 2 D Q 9.~ x.x.~ F L C x c a t t 8 3 , < 4 w p M k.7.V.f.E 7.1.J H L Z A A S H S S S ( ) S V S V B ",
"~ N x N c d y r r 5 4 1 5 4 r 8 x E Q E ~ ~ E G F F C c a r 5 3 , , < 4 w p z ' E k.f.E E +.E R G Z A S A S G G Z S S S S V V n ",
">.G C N c d d u r 5 < < 4 4 5 r C F L E ~ E E E F F c x a r 3 , : : < 4 4 0 s C E ~ v.9.R 7.+.R L P P S S G S S S P S S Z V N v ",
"~ L C A z a d u u 5 3 : < 3 4 8 x F E 7.x.E G G F F x z k r 5 3 , , ; : 2 4 p C ~ E x.v.y.7.y.J I { { S A P S A H S S S Z S V N ",
">.+.C A z y u y 7 1 1 3 & ; 4 0 z F E ~ 9.E G G F F c c k u r 3 3 : , : 3 4 y M L F R v.x.~ 7.J G H S C A I P Z Z A C B A S S Z ",
"J J G A z i a y 5 1 1 3 ; ; 2 4 z G E 9.9.+.E G L F c z k u r , , , 3 3 3 4 y m G C G 9.k.x.+.' H S G A S P S Z Z Z B B Z S Z Z ",
"E J >.A N m i 6 3 4 ; < ; 2 - 0 l F J J y.y.R R G C x z h u 5 , : : < < 3 3 4 d x G L ~ x.k.k.7.J ( ) ( S S S Z L Z Z S S Z Z B ",
"R G 2.G m v y 5 1 6 & & 3 < # 0 p M R R +.+.G M G A z k a a r 3 : ; : ; 1 < 2 p k L G F ~ k.x.7.F G J J L S G L B Z S S S S S Z ",
"F R 1.C C s a u 6 1 1 @ % & = 2 e G ~ E 9.R A A ' A m d d i r 3 8 3 < ; 3 1 < 3 r k S Q E m.f.A.7.7.J R J L G B L B N N Z Z Z B ",
"G H 1.G G z l d 5 1 & % & @ = = 9 M G E +.G G A A C z d i y r < 3 r 4 < < ; < 5 r 3 a G E ~ E V.9.9.E J J E L L Z Z N Z S L Z B ",
"D G $.G G z a y 5 1 & 1 1 & 4 < 9 x G ~ ' ' E G G C m z a u y 4 < r 3 ; < < : 1 < ; 2 e x x.E 9.V.k.9.9.J L L P A Z Z G S S S B ",
"G H H D G l p 0 1 1 @ & 1 & 1 2 0 j N E J R +.C C C M m l l u 0 < 5 1 : 3 5 & % 3 4 : 3 q x G 7.k.7.9.9.~ L S L A Z Z Z V Z B B ",
"' R E F L x a y 4 & < & ; ; : 4 2 y z A J J +.F D F M M c c a r 5 y r r r 5 : : < < 2 0 > 2 l 1.E R +.7.>.' H G ( S S A B B N N ",
"R R R F L x l u w 1 1 1 ; < $ : < 0 d C R +.k.7.R F F C A N h u a a u u a t , 5 : : ; 3 2 2 e m E 7.7.+.' J H G H S S V N N N B ",
"G G G D G M k d y 1 1 3 1 < @ $ ; 4 0 d C G $.7.R F C Z N k a h i i 7 y h a 4 , ; 2 $ : < 4 y 9 C O.h.1.R R R G G H S A C B B B ",
"H H E F J C z d y 6 < 5 5 3 & & 1 y r y C A R y.7.E L G C c h N 5 i h d d a r 5 > = + < = % 3 i p D 7.7.R +.2.' H H S A A V A B ",
"#.H R +.E G x d d i y 5 5 1 1 < & & < y s l #.1.Y 1.G F A c c N h i d i B u t r r 1 < ; ; ; < 4 p p G +.J >.>.E J J P S Z N C N ",
"$.G E E E J G k k i 6 4 4 1 1 5 < 1 3 y 4 i l A #.1.+.' L c z N b d d i h i t r 5 < , $ & $ % ; 9 e x F R y.G J E J G A C Z A N ",
"R G E +.R J G m d d i 6 5 1 1 1 1 < 6 1 4 w w v N I >.I J A C C V N m d d a a a y 3 4 & ; ; & ; 2 e p z J B.~ x.9.E J G A A V m ",
"R J E E J R G m v d d i 7 1 & & < & 1 & 4 2 6 6 t A I J H ' ' M m N m d l u u u y y 4 & % @ + O $ = 2 9 z J Q 9.y.9.E J H S C d ",
"J R E ~ E R G M m v i y 6 1 1 1 1 1 & < 1 < 5 1 3 k A I E E O.F C Z C d B d d i i i y 3 : % % O = $ 3 2 l C 9.9.9.9.~ J J G G c ",
"F A G R G G F m v s i y 6 4 1 < % < % 1 % & 1 5 4 0 a P 9.G $.O.J G ( m S m B d y p 6 1 , $ : + $ O ; 2 q j L ~ 9.7.~ E L J L G ",
"F A R J G F F M m v s v 7 5 & @ & % % 1 o & & 1 3 < 4 M R G s.O.R R H m C v m v d h f r t : : $ $ O $ 2 3 t x E 9.9.~ E ~ E L G ",
"R G +.E E E R C C v s y 6 1 < % 4 + 1 % @ @ & @ < ; < 0 z R B.D ~ y.2.G C N m V h c a u r $ & @ @ + O % = > - l 9.9.9.7.~ ~ F C ",
"C G L L G R #.G M N l i i 7 5 5 3 $ $ & 1 ; & & % ; 3 0 d x J ' 9.k.7.+.A M G C C c c u r 3 : & $ O $ = * = > s C ( +.+.+.R G R ",
"F I E G F R $.C x M c d y 1 1 5 ; & ; ; 3 & @ $ $ ; ; < 3 p z A J 7.R G G C G C F z p p u p 5 ; ; # $ @ # < < w p M E y.k.y.R D ",
"G L H J +.R G G x M N m u 6 3 1 3 & & $ $ $ & $ % ; = < > t l C +.k.2.H { G R H Z C N c a u r 3 ; $ $ + # < ; 2 y m F +.r.r.o.O.",
"N C G J 2.G D #.C M N m d u u 3 3 3 < $ 3 < & & ; ; < $ = = 4 w G y.$.R >.G G G L G I G d r r r : $ = = % < % - 0 s m M G G O.o.",
"y Z G C G H ( H G m m z y y y 5 4 ; & # O O ; ; & & & $ < 4 s s z J G G ' C C G G C N N N k u r 8 1 ; ; ; ; = ; 2 r z G 1.$.$.R ",
"y z A C A H G G G M m N d d r 3 4 4 1 ; 3 ; $ % < ; # + o = - > z G G +.2.R G G G x k N N c c y r < : ; ; $ $ ; - 0 j x H y.7.+.",
"s s N ( G C C F J F C Z S N u 5 u 3 2 1 < & % @ & ; $ + + < < 2 e M A { +.R G C F C C C N N c h a r , : ; ; & ; ; 2 0 p x G J 7.",
"p i m A A A A m G J S m N k a d y r y 0 4 $ $ & $ $ % + % % > < 2 p x J 2.1.r.H L F C Z C N N c d a t 5 4 3 , ; 2 0 t t z F L E ",
"i i v A ( ( G ' A H M A m m d w z 4 2 < 4 < ; & % X + & $ < < # < w s G G >.L E F D G G N m d N r t t u ; < 4 < ; ; 2 a C G G ~ ",
"2 i N S G G G C D H A M m m N d a i r < ; ; % O @ % < $ # $ < $ < 4 c G I 9.E ~ F x C M m m N N c u a a r t 4 % - ; = ; e C L G ",
"w i m C H 1.H G D H H A m d m s 9 p 3 = ; 4 ; @ # $ % @ & % $ = % = u N G J F R R D C M m C N m c a c d r u 4 < $ ; > - 8 k Z ~ ",
"w 0 y m G H H H A D #.#.m m d s a N l y 1 ; & ; % & & % O . + 1 % 2 p N L L T ~ $.D F M M N d m c k c d a r 0 1 4 3 2 4 p k z x ",
", 0 k C H F G ~ R A R G M m m m k k t y 4 4 ; ; @ % @ @ @ & $ X $ < < m N M F F G D $.C C C N N c z a a d y p 1 = = ; 2 p j z L ",
"> 0 j x A L R E R D A M C M v N z i t 0 < < & X X O & 1 & % $ + $ < ; C A F E ~ O.G O.G C C m m x c p k m 4 u 4 2 w 4 < 3 p z A ",
"8 8 q j x F F D D D A M A C s C q y l p ; ; 4 1 < @ + # & @ O @ @ @ ; a N C D E D D D M m m m m z Z a c s w y w w 4 < > q k C C ",
"0 0 t z F M F E G H D M A C s C C y a t 2 ; ; O + & % @ % # X + 1 $ 5 d C F x E D D D D M C C C N x i k v v y 6 w 6 4 3 q t p C ",
"8 8 q k F G c G x G G G C F G x M z s p p y 3 & & @ @ O & % % + & ; 3 c L F ~ F x D x x F x x x x C c k d c i < r 3 2 w 4 2 d m ",
"> * * 8 x L x F z Z A M N C N z C s s 8 4 w < 1 % % & & @ # $ % $ % 8 p C M E D D E j j C C Z c x l t i d N l p 4 y p y 3 4 d d ",
"t t q q j A N A G G N G G l q m M z l p w y < ; @ & @ & # # $ % $ ; < p x G F D T F x x C x C x G z p l d z i y u r r y y w d z ",
"# = 8 8 t k G >.x G G z M M M z z A d z d 4 4 $ & & @ & $ % $ $ ; $ 4 p G J F F D F F F L x x k k k l N z z a d d d u d 3 < w N ",
"8 : t , p t m C G z m G M M M M l C i l d 4 6 < : & & < $ $ $ * $ X 2 > x C F C g.F x x F C x c z z l k d c d N d u w 4 4 y y w ",
"t & 8 : r 0 l M A C H G M F J e j p a i i u 5 3 : & $ & $ $ o o @ @ % 3 a G L ~ g.F D F x C Z C A C k p a d d t r p d w 4 4 2 s ",
"t , r 3 0 3 a z A l M ' F C G C l i z s d k 4 4 1 & @ @ $ + o o . $ O 2 - x x F F F E E F x C F x z z p c d l p d u i y w < = 4 ",
"r 3 5 5 3 4 q a N z M C D M C G m m d d d d y 4 1 < < @ # X + % . ; ; ; , t C c L F E E F F F F x z c p d i c u 3 y v w 2 2 < y ",
"r r y < y r t 0 p p C L F L C G C N p p d a 4 4 3 % < ; .   $ @ X % $ % 2 > m C F x C F C x x F l p z d d d N N u N y w y w < 4 ",
"u u r 5 3 r 0 a 3 q p z x I A G N A x a 0 q w w 5 3 < & = # $ ; $ $ # $ = < p z C F F L x F x F A j m z d y p z c 5 4 4 2 < 4 0 ",
"4 5 5 < 3 ; 4 r 2 2 q 0 C z G S I C z l 0 y y 2 2 < ; ; ; = @ @ $ $ % % # = 2 N c C F G F F x x z a m z d y u d c h p 0 s 4 4 4 ",
"3 4 y 3 r ; 5 t % 3 2 y p u C I L G G G a 9 0 0 w < 4 r ; < : & 4 < $ % + % - 8 k z L x E x F x M x Z z z d p y r a r ; 0 w 4 4 ",
"< q 2 4 < : < < $ < 4 < r < z C D R G J A d w y 3 < < 4 & : : & $ # X # + ; 3 2 t j G x E D F M M x C a c c d y d d d d 4 y i 2 ",
"0 u 0 4 r 4 r r % < < 4 ; < 4 0 M F C F I H z y w y < 1 5 5 1 5 & & % ; + + % # 0 p z C F R G F M x z t c N k p d u d N w w 2 < ",
"w s w < r 4 u < < % 4 1 = = < > 9 x G G C H Z N i d < 1 7 & 5 6 3 % % % % ; = + > 0 q x x R F R J C z y d z p 0 u y 0 y p w w s ",
"w d 4 2 r r t < ; % 1 0 $ 1 2 2 9 e x ' G { H m v d 4 6 5 O 5 5 4 @ 3 % $ + O $ # = 9 j F F G G ~ A N l C c p i h y d i 0 4 w < "
};
